<svg width="345" height="255" viewBox="0 0 345 255" fill="none" xmlns="http://www.w3.org/2000/svg">
<g clip-path="url(#clip0_38_444)">
<rect width="345" height="255" rx="33" fill="#333333"/>
<path d="M39.67 72.35H30.55L28.87 77H25.99L33.55 56.21H36.7L44.23 77H41.35L39.67 72.35ZM38.89 70.13L35.11 59.57L31.33 70.13H38.89ZM55.5348 60.26C57.5348 60.26 59.1548 60.87 60.3948 62.09C61.6348 63.29 62.2548 65.03 62.2548 67.31V77H59.5548V67.7C59.5548 66.06 59.1448 64.81 58.3248 63.95C57.5048 63.07 56.3848 62.63 54.9648 62.63C53.5248 62.63 52.3748 63.08 51.5148 63.98C50.6748 64.88 50.2548 66.19 50.2548 67.91V77H47.5248V60.56H50.2548V62.9C50.7948 62.06 51.5248 61.41 52.4448 60.95C53.3848 60.49 54.4148 60.26 55.5348 60.26ZM65.6943 68.72C65.6943 67.04 66.0343 65.57 66.7143 64.31C67.3943 63.03 68.3243 62.04 69.5043 61.34C70.7043 60.64 72.0343 60.29 73.4943 60.29C74.9343 60.29 76.1843 60.6 77.2443 61.22C78.3043 61.84 79.0943 62.62 79.6143 63.56V60.56H82.3743V77H79.6143V73.94C79.0743 74.9 78.2643 75.7 77.1843 76.34C76.1243 76.96 74.8843 77.27 73.4643 77.27C72.0043 77.27 70.6843 76.91 69.5043 76.19C68.3243 75.47 67.3943 74.46 66.7143 73.16C66.0343 71.86 65.6943 70.38 65.6943 68.72ZM79.6143 68.75C79.6143 67.51 79.3643 66.43 78.8643 65.51C78.3643 64.59 77.6843 63.89 76.8243 63.41C75.9843 62.91 75.0543 62.66 74.0343 62.66C73.0143 62.66 72.0843 62.9 71.2443 63.38C70.4043 63.86 69.7343 64.56 69.2343 65.48C68.7343 66.4 68.4843 67.48 68.4843 68.72C68.4843 69.98 68.7343 71.08 69.2343 72.02C69.7343 72.94 70.4043 73.65 71.2443 74.15C72.0843 74.63 73.0143 74.87 74.0343 74.87C75.0543 74.87 75.9843 74.63 76.8243 74.15C77.6843 73.65 78.3643 72.94 78.8643 72.02C79.3643 71.08 79.6143 69.99 79.6143 68.75ZM89.7177 54.8V77H86.9877V54.8H89.7177ZM108.531 60.56L98.6305 84.74H95.8105L99.0505 76.82L92.4205 60.56H95.4505L100.611 73.88L105.711 60.56H108.531ZM113.315 74.75H121.385V77H110.195V74.75L118.175 62.78H110.255V60.56H121.325V62.78L113.315 74.75ZM139.927 68.15C139.927 68.67 139.897 69.22 139.837 69.8H126.697C126.797 71.42 127.347 72.69 128.347 73.61C129.367 74.51 130.597 74.96 132.037 74.96C133.217 74.96 134.197 74.69 134.977 74.15C135.777 73.59 136.337 72.85 136.657 71.93H139.597C139.157 73.51 138.277 74.8 136.957 75.8C135.637 76.78 133.997 77.27 132.037 77.27C130.477 77.27 129.077 76.92 127.837 76.22C126.617 75.52 125.657 74.53 124.957 73.25C124.257 71.95 123.907 70.45 123.907 68.75C123.907 67.05 124.247 65.56 124.927 64.28C125.607 63 126.557 62.02 127.777 61.34C129.017 60.64 130.437 60.29 132.037 60.29C133.597 60.29 134.977 60.63 136.177 61.31C137.377 61.99 138.297 62.93 138.937 64.13C139.597 65.31 139.927 66.65 139.927 68.15ZM137.107 67.58C137.107 66.54 136.877 65.65 136.417 64.91C135.957 64.15 135.327 63.58 134.527 63.2C133.747 62.8 132.877 62.6 131.917 62.6C130.537 62.6 129.357 63.04 128.377 63.92C127.417 64.8 126.867 66.02 126.727 67.58H137.107Z" fill="white"/>
<path d="M-318.743 115.933L509.281 -381.594" stroke="white" stroke-opacity="0.2" stroke-dasharray="2 2"/>
<path d="M-257.659 217.593L570.365 -279.934" stroke="white" stroke-opacity="0.2" stroke-dasharray="2 2"/>
<path d="M-196.576 319.253L631.448 -178.274" stroke="white" stroke-opacity="0.2" stroke-dasharray="2 2"/>
<path d="M-135.492 420.913L692.532 -76.6139" stroke="white" stroke-opacity="0.2" stroke-dasharray="2 2"/>
<path d="M-74.4087 522.573L753.615 25.0461" stroke="white" stroke-opacity="0.2" stroke-dasharray="2 2"/>
<rect x="-13.5825" y="623.804" width="966" height="1" transform="rotate(-31 -13.5825 623.804)" fill="white" fill-opacity="0.4"/>
<path opacity="0.2" d="M-199.946 305.829L-202.44 309.492L-14.2251 622.735L813.761 125.23L749.749 18.6961L748.21 23.9491L746.67 29.2022L735.577 18.5546L738.815 31.758L729.633 24.2906L749.113 64.525L738.019 53.8775L735.525 57.5404L713.922 29.4022L714.294 37.8354L703.201 27.1878L702.617 34.0309L699.167 36.1038L685.208 20.6861L692.267 40.2497L684.04 34.3723L669.125 17.3645L680.006 43.2884L676.557 45.3613L686.482 69.6952L606.6 -55.437L595.507 -66.0846L591.101 -65.6018L601.027 -41.2679L594.711 -43.9652L602.726 -22.8115L577.301 -57.31L576.718 -50.4669L582.822 -32.4933L580.327 -28.8303L575.922 -28.3474L566.74 -35.8149L568.067 -25.7916L558.884 -33.2591L554.479 -32.7762L558.672 -17.9828L554.267 -17.4999L545.085 -24.9674L540.679 -24.4845L534.363 -27.1817L533.779 -20.3386L531.285 -16.6756L524.013 -20.9629L522.474 -15.7099L519.024 -13.6369L521.307 -2.02363L516.901 -1.54074L514.407 2.12223L512.868 7.37531L510.373 11.0383L521.254 36.9622L518.76 40.6252L514.354 41.1081L511.86 44.7711L493.123 21.403L490.629 25.066L486.223 25.5488L474.175 13.3112L469.77 13.7941L468.23 19.0471L476.245 40.2008L475.662 47.044L460.747 30.0361L458.252 33.6991L449.07 26.2317L455.174 44.2052L450.769 44.6881L438.72 32.4505L441.958 45.6539L440.419 50.9069L435.058 49.7997L425.876 42.3323L421.47 42.8152L421.842 51.2483L417.437 51.7312L393.923 20.4128L384.741 12.9454L372.692 0.707726L390.261 37.762L387.767 41.4251L383.361 41.9079L392.332 64.6517L387.926 65.1346L385.432 68.7975L396.313 94.7215L389.041 90.4341L420.942 151.339L407.937 137.512L403.532 137.995L409.636 155.968L399.499 146.911L394.138 145.803L389.732 146.286L387.238 149.949L352.259 99.5502L349.765 103.213L345.36 103.696L352.419 123.26L348.014 123.743L345.519 127.406L341.114 127.888L327.154 112.471L325.615 117.724L320.255 116.616L315.849 117.099L312.399 119.172L307.039 118.065L317.92 143.989L313.514 144.472L311.02 148.135L306.615 148.618L304.12 152.281L299.715 152.764L297.22 156.427L292.815 156.909L275.989 136.722L271.584 137.204L269.089 140.867L264.684 141.35L261.234 143.423L256.829 143.906L254.334 147.569L269.992 181.443L268.453 186.696L255.449 172.869L252.955 176.532L256.192 189.735L242.233 174.317L237.828 174.8L226.734 164.153L222.329 164.635L219.835 168.298L216.385 170.371L220.578 185.165L216.173 185.648L208.901 181.36L204.496 181.843L204.867 190.276L157.469 119.206L163.573 137.18L176.365 166.284L191.068 198.568L186.662 199.051L184.168 202.714L179.762 203.197L165.803 187.779L146.111 162.821L144.572 168.074L140.167 168.557L152.959 197.661L166.706 228.355L148.925 206.577L155.985 226.141L159.222 239.344L154.817 239.827L152.323 243.49L147.917 243.973L145.423 247.636L130.508 230.628L128.013 234.291L123.608 234.774L139.266 268.648L117.663 240.51L118.991 250.533L114.585 251.016L108.269 248.319L104.819 250.391L102.325 254.054L106.518 268.848L104.023 272.511L99.618 272.994L92.3464 268.706L87.9411 269.189L85.4465 272.852L71.4871 257.435L64.2155 253.147L74.1413 277.481L71.6468 281.144L67.2414 281.627L58.059 274.159L53.6537 274.642L45.4267 268.765L24.7794 242.217L22.2849 245.88L12.1471 236.822L12.5188 245.255L9.06887 247.328L3.70811 246.221L9.81224 264.195L3.49607 261.497L4.82317 271.521L12.8381 292.674L16.076 305.878L13.5815 309.541L11.0869 313.204L19.1019 334.358L14.6965 334.84L-2.12911 314.652L-19.9101 292.874L-8.07359 320.388L-17.256 312.921L-19.7505 316.584L-31.7991 304.346L-34.2936 308.009L-38.699 308.492L-45.0151 305.795L-70.4394 271.296L-87.2651 251.108L-91.6704 251.591L-102.764 240.944L-107.169 241.427L-101.065 259.4L-114.069 245.572L-101.277 274.676L-116.192 257.669L-114.865 267.692L-119.27 268.175L-111.255 289.328L-93.686 326.383L-91.4035 337.996L-106.318 320.988L-104.036 332.602L-84.556 372.836L-99.4708 355.828L-115.341 337.23L-117.836 340.893L-123.196 339.786L-137.156 324.368L-137.74 331.211L-142.145 331.694L-146.55 332.177L-149.045 335.84L-153.45 336.323L-159.766 333.626L-189.968 291.177L-192.462 294.84L-187.313 311.223L-189.808 314.886L-199.946 305.829Z" fill="url(#paint0_linear_38_444)"/>
<path d="M-202.44 309.492L-199.946 305.829L-189.808 314.886L-187.313 311.223L-192.462 294.84L-189.968 291.177L-159.766 333.626L-153.45 336.323L-149.045 335.84L-146.55 332.177L-142.145 331.694L-137.74 331.211L-137.156 324.368L-123.196 339.786L-117.836 340.893L-115.341 337.23L-99.4708 355.828L-84.556 372.836L-104.036 332.602L-106.318 320.988L-91.4035 337.996L-93.686 326.383L-111.255 289.328L-119.27 268.175L-114.865 267.692L-116.192 257.669L-101.277 274.676L-114.069 245.572L-101.065 259.4L-107.169 241.427L-102.764 240.944L-91.6704 251.591L-87.2651 251.108L-70.4394 271.296L-45.0151 305.795L-38.699 308.492L-34.2936 308.009L-31.7991 304.346L-19.7505 316.584L-17.256 312.921L-8.07358 320.388L-19.9101 292.874L-2.12911 314.652L14.6965 334.84L19.1019 334.358L11.0869 313.204L13.5815 309.541L16.076 305.878L12.8381 292.674L4.82317 271.521L3.49607 261.497L9.81224 264.195L3.70811 246.221L9.06886 247.328L12.5188 245.255L12.1471 236.822L22.2849 245.88L24.7794 242.217L45.4267 268.765L53.6537 274.642L58.059 274.159L67.2414 281.627L71.6468 281.144L74.1413 277.481L64.2155 253.147L71.4871 257.435L85.4465 272.852L87.9411 269.189L92.3464 268.706L99.618 272.994L104.023 272.511L106.518 268.848L102.325 254.054L104.819 250.391L108.269 248.319L114.585 251.016L118.991 250.533L117.663 240.51L139.266 268.648L123.608 234.774L128.013 234.291L130.508 230.628L145.423 247.636L147.917 243.973L152.323 243.49L154.817 239.827L159.222 239.344L155.984 226.141L148.925 206.577L166.706 228.355L152.959 197.661L140.167 168.557L144.572 168.074L146.111 162.821L165.803 187.779L179.762 203.197L184.168 202.714L186.662 199.051L191.068 198.568L176.365 166.284L163.573 137.18L157.469 119.206L204.867 190.276L204.496 181.843L208.901 181.36L216.173 185.648L220.578 185.165L216.385 170.371L219.835 168.298L222.329 164.635L226.734 164.153L237.828 174.8L242.233 174.317L256.192 189.735L252.955 176.532L255.449 172.869L268.453 186.696L269.992 181.443L254.334 147.569L256.829 143.906L261.234 143.423L264.684 141.35L269.089 140.867L271.584 137.204L275.989 136.722L292.815 156.909L297.22 156.427L299.715 152.764L304.12 152.281L306.614 148.618L311.02 148.135L313.514 144.472L317.92 143.989L307.039 118.065L312.399 119.172L315.849 117.099L320.255 116.616L325.615 117.724L327.154 112.471L341.114 127.888L345.519 127.406L348.014 123.743L352.419 123.26L345.36 103.696L349.765 103.213L352.259 99.5501L387.238 149.949L389.732 146.286L394.138 145.803L399.498 146.911L409.636 155.968L403.532 137.995L407.938 137.512L420.942 151.339L389.041 90.4341L396.313 94.7214L385.432 68.7976L387.926 65.1346L392.332 64.6517L383.361 41.9079L387.767 41.4251L390.261 37.7621L372.692 0.707712L384.741 12.9454L393.923 20.4128L417.437 51.7312L421.842 51.2483L421.47 42.8152L425.876 42.3323L435.058 49.7997L440.419 50.9069L441.958 45.6539L438.72 32.4505L450.769 44.6881L455.174 44.2053L449.07 26.2317L458.252 33.6991L460.747 30.0361L475.662 47.044L476.245 40.2008L468.23 19.0471L469.77 13.7941L474.175 13.3112L486.223 25.5488L490.629 25.066L493.123 21.403L511.86 44.7711L514.354 41.1081L518.76 40.6252L521.254 36.9622L510.373 11.0383L512.868 7.37531L514.407 2.12225L516.901 -1.54075L521.307 -2.02362L519.024 -13.6369L522.474 -15.7099L524.013 -20.9629L531.285 -16.6756L533.779 -20.3386L534.363 -27.1817L540.679 -24.4845L545.085 -24.9673L554.267 -17.4999L558.672 -17.9828L554.479 -32.7762L558.884 -33.2591L568.067 -25.7916L566.74 -35.8149L575.922 -28.3474L580.327 -28.8303L582.822 -32.4933L576.718 -50.4669L577.301 -57.31L602.726 -22.8115L594.711 -43.9652L601.027 -41.2679L591.101 -65.6017L595.507 -66.0846L606.6 -55.437L686.482 69.6952L676.557 45.3613L680.006 43.2884L669.125 17.3645L684.04 34.3723L692.267 40.2497L685.208 20.6861L699.167 36.1038L702.617 34.0309L703.201 27.1878L714.294 37.8354L713.922 29.4022L735.525 57.5405L738.019 53.8775L749.113 64.525L729.633 24.2906L738.815 31.758L735.577 18.5546L746.67 29.2022L748.21 23.9492L749.749 18.6961" stroke="#58D764" stroke-linejoin="round"/>
</g>
<defs>
<linearGradient id="paint0_linear_38_444" x1="206.776" y1="52.7895" x2="399.768" y2="373.982" gradientUnits="userSpaceOnUse">
<stop stop-color="#58D764"/>
<stop offset="1" stop-color="#58D764" stop-opacity="0.2"/>
</linearGradient>
<clipPath id="clip0_38_444">
<rect width="345" height="255" rx="33" fill="white"/>
</clipPath>
</defs>
</svg>
