<svg width="345" height="255" viewBox="0 0 345 255" fill="none" xmlns="http://www.w3.org/2000/svg">
<g clip-path="url(#clip0_38_408)">
<rect width="345" height="255" rx="33" fill="#333333"/>
<path d="M37.78 66.23C38.54 66.35 39.23 66.66 39.85 67.16C40.49 67.66 40.99 68.28 41.35 69.02C41.73 69.76 41.92 70.55 41.92 71.39C41.92 72.45 41.65 73.41 41.11 74.27C40.57 75.11 39.78 75.78 38.74 76.28C37.72 76.76 36.51 77 35.11 77H27.31V56.09H34.81C36.23 56.09 37.44 56.33 38.44 56.81C39.44 57.27 40.19 57.9 40.69 58.7C41.19 59.5 41.44 60.4 41.44 61.4C41.44 62.64 41.1 63.67 40.42 64.49C39.76 65.29 38.88 65.87 37.78 66.23ZM30.04 65.12H34.63C35.91 65.12 36.9 64.82 37.6 64.22C38.3 63.62 38.65 62.79 38.65 61.73C38.65 60.67 38.3 59.84 37.6 59.24C36.9 58.64 35.89 58.34 34.57 58.34H30.04V65.12ZM34.87 74.75C36.23 74.75 37.29 74.43 38.05 73.79C38.81 73.15 39.19 72.26 39.19 71.12C39.19 69.96 38.79 69.05 37.99 68.39C37.19 67.71 36.12 67.37 34.78 67.37H30.04V74.75H34.87ZM48.4384 63.23C48.9184 62.29 49.5984 61.56 50.4784 61.04C51.3784 60.52 52.4684 60.26 53.7484 60.26V63.08H53.0284C49.9684 63.08 48.4384 64.74 48.4384 68.06V77H45.7084V60.56H48.4384V63.23ZM64.0698 77.27C62.5298 77.27 61.1298 76.92 59.8698 76.22C58.6298 75.52 57.6498 74.53 56.9298 73.25C56.2298 71.95 55.8798 70.45 55.8798 68.75C55.8798 67.07 56.2398 65.59 56.9598 64.31C57.6998 63.01 58.6998 62.02 59.9598 61.34C61.2198 60.64 62.6298 60.29 64.1898 60.29C65.7498 60.29 67.1598 60.64 68.4198 61.34C69.6798 62.02 70.6698 63 71.3898 64.28C72.1298 65.56 72.4998 67.05 72.4998 68.75C72.4998 70.45 72.1198 71.95 71.3598 73.25C70.6198 74.53 69.6098 75.52 68.3298 76.22C67.0498 76.92 65.6298 77.27 64.0698 77.27ZM64.0698 74.87C65.0498 74.87 65.9698 74.64 66.8298 74.18C67.6898 73.72 68.3798 73.03 68.8998 72.11C69.4398 71.19 69.7098 70.07 69.7098 68.75C69.7098 67.43 69.4498 66.31 68.9298 65.39C68.4098 64.47 67.7298 63.79 66.8898 63.35C66.0498 62.89 65.1398 62.66 64.1598 62.66C63.1598 62.66 62.2398 62.89 61.3998 63.35C60.5798 63.79 59.9198 64.47 59.4198 65.39C58.9198 66.31 58.6698 67.43 58.6698 68.75C58.6698 70.09 58.9098 71.22 59.3898 72.14C59.8898 73.06 60.5498 73.75 61.3698 74.21C62.1898 74.65 63.0898 74.87 64.0698 74.87ZM75.0693 68.72C75.0693 67.04 75.4093 65.57 76.0893 64.31C76.7693 63.03 77.6993 62.04 78.8793 61.34C80.0793 60.64 81.4093 60.29 82.8693 60.29C84.3093 60.29 85.5593 60.6 86.6193 61.22C87.6793 61.84 88.4693 62.62 88.9893 63.56V60.56H91.7493V77H88.9893V73.94C88.4493 74.9 87.6393 75.7 86.5593 76.34C85.4993 76.96 84.2593 77.27 82.8393 77.27C81.3793 77.27 80.0593 76.91 78.8793 76.19C77.6993 75.47 76.7693 74.46 76.0893 73.16C75.4093 71.86 75.0693 70.38 75.0693 68.72ZM88.9893 68.75C88.9893 67.51 88.7393 66.43 88.2393 65.51C87.7393 64.59 87.0593 63.89 86.1993 63.41C85.3593 62.91 84.4293 62.66 83.4093 62.66C82.3893 62.66 81.4593 62.9 80.6193 63.38C79.7793 63.86 79.1093 64.56 78.6093 65.48C78.1093 66.4 77.8593 67.48 77.8593 68.72C77.8593 69.98 78.1093 71.08 78.6093 72.02C79.1093 72.94 79.7793 73.65 80.6193 74.15C81.4593 74.63 82.3893 74.87 83.4093 74.87C84.4293 74.87 85.3593 74.63 86.1993 74.15C87.0593 73.65 87.7393 72.94 88.2393 72.02C88.7393 71.08 88.9893 69.99 88.9893 68.75ZM95.3427 68.72C95.3427 67.04 95.6827 65.57 96.3627 64.31C97.0427 63.03 97.9727 62.04 99.1527 61.34C100.353 60.64 101.693 60.29 103.173 60.29C104.453 60.29 105.643 60.59 106.743 61.19C107.843 61.77 108.683 62.54 109.263 63.5V54.8H112.023V77H109.263V73.91C108.723 74.89 107.923 75.7 106.863 76.34C105.803 76.96 104.563 77.27 103.143 77.27C101.683 77.27 100.353 76.91 99.1527 76.19C97.9727 75.47 97.0427 74.46 96.3627 73.16C95.6827 71.86 95.3427 70.38 95.3427 68.72ZM109.263 68.75C109.263 67.51 109.013 66.43 108.513 65.51C108.013 64.59 107.333 63.89 106.473 63.41C105.633 62.91 104.703 62.66 103.683 62.66C102.663 62.66 101.733 62.9 100.893 63.38C100.053 63.86 99.3827 64.56 98.8827 65.48C98.3827 66.4 98.1327 67.48 98.1327 68.72C98.1327 69.98 98.3827 71.08 98.8827 72.02C99.3827 72.94 100.053 73.65 100.893 74.15C101.733 74.63 102.663 74.87 103.683 74.87C104.703 74.87 105.633 74.63 106.473 74.15C107.333 73.65 108.013 72.94 108.513 72.02C109.013 71.08 109.263 69.99 109.263 68.75ZM115.616 68.75C115.616 67.05 115.956 65.57 116.636 64.31C117.316 63.03 118.256 62.04 119.456 61.34C120.676 60.64 122.066 60.29 123.626 60.29C125.646 60.29 127.306 60.78 128.606 61.76C129.926 62.74 130.796 64.1 131.216 65.84H128.276C127.996 64.84 127.446 64.05 126.626 63.47C125.826 62.89 124.826 62.6 123.626 62.6C122.066 62.6 120.806 63.14 119.846 64.22C118.886 65.28 118.406 66.79 118.406 68.75C118.406 70.73 118.886 72.26 119.846 73.34C120.806 74.42 122.066 74.96 123.626 74.96C124.826 74.96 125.826 74.68 126.626 74.12C127.426 73.56 127.976 72.76 128.276 71.72H131.216C130.776 73.4 129.896 74.75 128.576 75.77C127.256 76.77 125.606 77.27 123.626 77.27C122.066 77.27 120.676 76.92 119.456 76.22C118.256 75.52 117.316 74.53 116.636 73.25C115.956 71.97 115.616 70.47 115.616 68.75ZM133.839 68.72C133.839 67.04 134.179 65.57 134.859 64.31C135.539 63.03 136.469 62.04 137.649 61.34C138.849 60.64 140.179 60.29 141.639 60.29C143.079 60.29 144.329 60.6 145.389 61.22C146.449 61.84 147.239 62.62 147.759 63.56V60.56H150.519V77H147.759V73.94C147.219 74.9 146.409 75.7 145.329 76.34C144.269 76.96 143.029 77.27 141.609 77.27C140.149 77.27 138.829 76.91 137.649 76.19C136.469 75.47 135.539 74.46 134.859 73.16C134.179 71.86 133.839 70.38 133.839 68.72ZM147.759 68.75C147.759 67.51 147.509 66.43 147.009 65.51C146.509 64.59 145.829 63.89 144.969 63.41C144.129 62.91 143.199 62.66 142.179 62.66C141.159 62.66 140.229 62.9 139.389 63.38C138.549 63.86 137.879 64.56 137.379 65.48C136.879 66.4 136.629 67.48 136.629 68.72C136.629 69.98 136.879 71.08 137.379 72.02C137.879 72.94 138.549 73.65 139.389 74.15C140.229 74.63 141.159 74.87 142.179 74.87C143.199 74.87 144.129 74.63 144.969 74.15C145.829 73.65 146.509 72.94 147.009 72.02C147.509 71.08 147.759 69.99 147.759 68.75ZM160.952 77.27C159.692 77.27 158.562 77.06 157.562 76.64C156.562 76.2 155.772 75.6 155.192 74.84C154.612 74.06 154.292 73.17 154.232 72.17H157.052C157.132 72.99 157.512 73.66 158.192 74.18C158.892 74.7 159.802 74.96 160.922 74.96C161.962 74.96 162.782 74.73 163.382 74.27C163.982 73.81 164.282 73.23 164.282 72.53C164.282 71.81 163.962 71.28 163.322 70.94C162.682 70.58 161.692 70.23 160.352 69.89C159.132 69.57 158.132 69.25 157.352 68.93C156.592 68.59 155.932 68.1 155.372 67.46C154.832 66.8 154.562 65.94 154.562 64.88C154.562 64.04 154.812 63.27 155.312 62.57C155.812 61.87 156.522 61.32 157.442 60.92C158.362 60.5 159.412 60.29 160.592 60.29C162.412 60.29 163.882 60.75 165.002 61.67C166.122 62.59 166.722 63.85 166.802 65.45H164.072C164.012 64.59 163.662 63.9 163.022 63.38C162.402 62.86 161.562 62.6 160.502 62.6C159.522 62.6 158.742 62.81 158.162 63.23C157.582 63.65 157.292 64.2 157.292 64.88C157.292 65.42 157.462 65.87 157.802 66.23C158.162 66.57 158.602 66.85 159.122 67.07C159.662 67.27 160.402 67.5 161.342 67.76C162.522 68.08 163.482 68.4 164.222 68.72C164.962 69.02 165.592 69.48 166.112 70.1C166.652 70.72 166.932 71.53 166.952 72.53C166.952 73.43 166.702 74.24 166.202 74.96C165.702 75.68 164.992 76.25 164.072 76.67C163.172 77.07 162.132 77.27 160.952 77.27ZM174.136 62.81V72.5C174.136 73.3 174.306 73.87 174.646 74.21C174.986 74.53 175.576 74.69 176.416 74.69H178.426V77H175.966C174.446 77 173.306 76.65 172.546 75.95C171.786 75.25 171.406 74.1 171.406 72.5V62.81H169.276V60.56H171.406V56.42H174.136V60.56H178.426V62.81H174.136ZM187.554 77.27C186.294 77.27 185.164 77.06 184.164 76.64C183.164 76.2 182.374 75.6 181.794 74.84C181.214 74.06 180.894 73.17 180.834 72.17H183.654C183.734 72.99 184.114 73.66 184.794 74.18C185.494 74.7 186.404 74.96 187.524 74.96C188.564 74.96 189.384 74.73 189.984 74.27C190.584 73.81 190.884 73.23 190.884 72.53C190.884 71.81 190.564 71.28 189.924 70.94C189.284 70.58 188.294 70.23 186.954 69.89C185.734 69.57 184.734 69.25 183.954 68.93C183.194 68.59 182.534 68.1 181.974 67.46C181.434 66.8 181.164 65.94 181.164 64.88C181.164 64.04 181.414 63.27 181.914 62.57C182.414 61.87 183.124 61.32 184.044 60.92C184.964 60.5 186.014 60.29 187.194 60.29C189.014 60.29 190.484 60.75 191.604 61.67C192.724 62.59 193.324 63.85 193.404 65.45H190.674C190.614 64.59 190.264 63.9 189.624 63.38C189.004 62.86 188.164 62.6 187.104 62.6C186.124 62.6 185.344 62.81 184.764 63.23C184.184 63.65 183.894 64.2 183.894 64.88C183.894 65.42 184.064 65.87 184.404 66.23C184.764 66.57 185.204 66.85 185.724 67.07C186.264 67.27 187.004 67.5 187.944 67.76C189.124 68.08 190.084 68.4 190.824 68.72C191.564 69.02 192.194 69.48 192.714 70.1C193.254 70.72 193.534 71.53 193.554 72.53C193.554 73.43 193.304 74.24 192.804 74.96C192.304 75.68 191.594 76.25 190.674 76.67C189.774 77.07 188.734 77.27 187.554 77.27Z" fill="white"/>
<circle cx="299" cy="268" r="89.5" stroke="#4CAF50" stroke-dasharray="8 8"/>
<circle cx="299" cy="268" r="129.5" stroke="#4CAF50" stroke-dasharray="8 8"/>
<circle cx="299" cy="275" r="179.5" stroke="#4CAF50" stroke-dasharray="8 8"/>
<g filter="url(#filter0_dddd_38_408)">
<circle cx="279" cy="139" r="14" fill="#4CAF50"/>
<circle cx="279" cy="139" r="13" stroke="white" stroke-width="2"/>
</g>
<g filter="url(#filter1_dddd_38_408)">
<circle cx="173" cy="152" r="14" fill="black"/>
<circle cx="173" cy="152" r="13" stroke="white" stroke-width="2"/>
</g>
</g>
<defs>
<filter id="filter0_dddd_38_408" x="260" y="124" width="38" height="46" filterUnits="userSpaceOnUse" color-interpolation-filters="sRGB">
<feFlood flood-opacity="0" result="BackgroundImageFix"/>
<feColorMatrix in="SourceAlpha" type="matrix" values="0 0 0 0 0 0 0 0 0 0 0 0 0 0 0 0 0 0 127 0" result="hardAlpha"/>
<feOffset dy="1"/>
<feGaussianBlur stdDeviation="1"/>
<feColorMatrix type="matrix" values="0 0 0 0 0 0 0 0 0 0 0 0 0 0 0 0 0 0 0.1 0"/>
<feBlend mode="normal" in2="BackgroundImageFix" result="effect1_dropShadow_38_408"/>
<feColorMatrix in="SourceAlpha" type="matrix" values="0 0 0 0 0 0 0 0 0 0 0 0 0 0 0 0 0 0 127 0" result="hardAlpha"/>
<feOffset dy="3"/>
<feGaussianBlur stdDeviation="1.5"/>
<feColorMatrix type="matrix" values="0 0 0 0 0 0 0 0 0 0 0 0 0 0 0 0 0 0 0.09 0"/>
<feBlend mode="normal" in2="effect1_dropShadow_38_408" result="effect2_dropShadow_38_408"/>
<feColorMatrix in="SourceAlpha" type="matrix" values="0 0 0 0 0 0 0 0 0 0 0 0 0 0 0 0 0 0 127 0" result="hardAlpha"/>
<feOffset dy="7"/>
<feGaussianBlur stdDeviation="2"/>
<feColorMatrix type="matrix" values="0 0 0 0 0 0 0 0 0 0 0 0 0 0 0 0 0 0 0.05 0"/>
<feBlend mode="normal" in2="effect2_dropShadow_38_408" result="effect3_dropShadow_38_408"/>
<feColorMatrix in="SourceAlpha" type="matrix" values="0 0 0 0 0 0 0 0 0 0 0 0 0 0 0 0 0 0 127 0" result="hardAlpha"/>
<feOffset dy="12"/>
<feGaussianBlur stdDeviation="2.5"/>
<feColorMatrix type="matrix" values="0 0 0 0 0 0 0 0 0 0 0 0 0 0 0 0 0 0 0.01 0"/>
<feBlend mode="normal" in2="effect3_dropShadow_38_408" result="effect4_dropShadow_38_408"/>
<feBlend mode="normal" in="SourceGraphic" in2="effect4_dropShadow_38_408" result="shape"/>
</filter>
<filter id="filter1_dddd_38_408" x="154" y="137" width="38" height="46" filterUnits="userSpaceOnUse" color-interpolation-filters="sRGB">
<feFlood flood-opacity="0" result="BackgroundImageFix"/>
<feColorMatrix in="SourceAlpha" type="matrix" values="0 0 0 0 0 0 0 0 0 0 0 0 0 0 0 0 0 0 127 0" result="hardAlpha"/>
<feOffset dy="1"/>
<feGaussianBlur stdDeviation="1"/>
<feColorMatrix type="matrix" values="0 0 0 0 0 0 0 0 0 0 0 0 0 0 0 0 0 0 0.1 0"/>
<feBlend mode="normal" in2="BackgroundImageFix" result="effect1_dropShadow_38_408"/>
<feColorMatrix in="SourceAlpha" type="matrix" values="0 0 0 0 0 0 0 0 0 0 0 0 0 0 0 0 0 0 127 0" result="hardAlpha"/>
<feOffset dy="3"/>
<feGaussianBlur stdDeviation="1.5"/>
<feColorMatrix type="matrix" values="0 0 0 0 0 0 0 0 0 0 0 0 0 0 0 0 0 0 0.09 0"/>
<feBlend mode="normal" in2="effect1_dropShadow_38_408" result="effect2_dropShadow_38_408"/>
<feColorMatrix in="SourceAlpha" type="matrix" values="0 0 0 0 0 0 0 0 0 0 0 0 0 0 0 0 0 0 127 0" result="hardAlpha"/>
<feOffset dy="7"/>
<feGaussianBlur stdDeviation="2"/>
<feColorMatrix type="matrix" values="0 0 0 0 0 0 0 0 0 0 0 0 0 0 0 0 0 0 0.05 0"/>
<feBlend mode="normal" in2="effect2_dropShadow_38_408" result="effect3_dropShadow_38_408"/>
<feColorMatrix in="SourceAlpha" type="matrix" values="0 0 0 0 0 0 0 0 0 0 0 0 0 0 0 0 0 0 127 0" result="hardAlpha"/>
<feOffset dy="12"/>
<feGaussianBlur stdDeviation="2.5"/>
<feColorMatrix type="matrix" values="0 0 0 0 0 0 0 0 0 0 0 0 0 0 0 0 0 0 0.01 0"/>
<feBlend mode="normal" in2="effect3_dropShadow_38_408" result="effect4_dropShadow_38_408"/>
<feBlend mode="normal" in="SourceGraphic" in2="effect4_dropShadow_38_408" result="shape"/>
</filter>
<clipPath id="clip0_38_408">
<rect width="345" height="255" rx="33" fill="white"/>
</clipPath>
</defs>
</svg>
