<svg width="345" height="255" viewBox="0 0 345 255" fill="none" xmlns="http://www.w3.org/2000/svg">
<g clip-path="url(#clip0_38_423)">
<rect width="345" height="255" rx="33" fill="#333333"/>
<path d="M37.84 56.09V71.54C37.84 73.26 37.31 74.64 36.25 75.68C35.19 76.7 33.79 77.21 32.05 77.21C30.29 77.21 28.88 76.69 27.82 75.65C26.76 74.59 26.23 73.15 26.23 71.33H28.96C28.98 72.35 29.24 73.18 29.74 73.82C30.26 74.46 31.03 74.78 32.05 74.78C33.07 74.78 33.83 74.48 34.33 73.88C34.83 73.26 35.08 72.48 35.08 71.54V56.09H37.84ZM50.3882 77.27C48.8482 77.27 47.4482 76.92 46.1882 76.22C44.9482 75.52 43.9682 74.53 43.2482 73.25C42.5482 71.95 42.1982 70.45 42.1982 68.75C42.1982 67.07 42.5582 65.59 43.2782 64.31C44.0182 63.01 45.0182 62.02 46.2782 61.34C47.5382 60.64 48.9482 60.29 50.5082 60.29C52.0682 60.29 53.4782 60.64 54.7382 61.34C55.9982 62.02 56.9882 63 57.7082 64.28C58.4482 65.56 58.8182 67.05 58.8182 68.75C58.8182 70.45 58.4382 71.95 57.6782 73.25C56.9382 74.53 55.9282 75.52 54.6482 76.22C53.3682 76.92 51.9482 77.27 50.3882 77.27ZM50.3882 74.87C51.3682 74.87 52.2882 74.64 53.1482 74.18C54.0082 73.72 54.6982 73.03 55.2182 72.11C55.7582 71.19 56.0282 70.07 56.0282 68.75C56.0282 67.43 55.7682 66.31 55.2482 65.39C54.7282 64.47 54.0482 63.79 53.2082 63.35C52.3682 62.89 51.4582 62.66 50.4782 62.66C49.4782 62.66 48.5582 62.89 47.7182 63.35C46.8982 63.79 46.2382 64.47 45.7382 65.39C45.2382 66.31 44.9882 67.43 44.9882 68.75C44.9882 70.09 45.2282 71.22 45.7082 72.14C46.2082 73.06 46.8682 73.75 47.6882 74.21C48.5082 74.65 49.4082 74.87 50.3882 74.87ZM76.9877 60.56V77H74.2577V74.57C73.7377 75.41 73.0077 76.07 72.0677 76.55C71.1477 77.01 70.1277 77.24 69.0077 77.24C67.7277 77.24 66.5777 76.98 65.5577 76.46C64.5377 75.92 63.7277 75.12 63.1277 74.06C62.5477 73 62.2577 71.71 62.2577 70.19V60.56H64.9577V69.83C64.9577 71.45 65.3677 72.7 66.1877 73.58C67.0077 74.44 68.1277 74.87 69.5477 74.87C71.0077 74.87 72.1577 74.42 72.9977 73.52C73.8377 72.62 74.2577 71.31 74.2577 69.59V60.56H76.9877ZM84.3271 63.23C84.8071 62.29 85.4871 61.56 86.3671 61.04C87.2671 60.52 88.3571 60.26 89.6371 60.26V63.08H88.9171C85.8571 63.08 84.3271 64.74 84.3271 68.06V77H81.5971V60.56H84.3271V63.23ZM100.799 60.26C102.799 60.26 104.419 60.87 105.659 62.09C106.899 63.29 107.519 65.03 107.519 67.31V77H104.819V67.7C104.819 66.06 104.409 64.81 103.589 63.95C102.769 63.07 101.649 62.63 100.229 62.63C98.7885 62.63 97.6385 63.08 96.7785 63.98C95.9385 64.88 95.5185 66.19 95.5185 67.91V77H92.7885V60.56H95.5185V62.9C96.0585 62.06 96.7885 61.41 97.7085 60.95C98.6485 60.49 99.6785 60.26 100.799 60.26ZM126.978 68.15C126.978 68.67 126.948 69.22 126.888 69.8H113.748C113.848 71.42 114.398 72.69 115.398 73.61C116.418 74.51 117.648 74.96 119.088 74.96C120.268 74.96 121.248 74.69 122.028 74.15C122.828 73.59 123.388 72.85 123.708 71.93H126.648C126.208 73.51 125.328 74.8 124.008 75.8C122.688 76.78 121.048 77.27 119.088 77.27C117.528 77.27 116.128 76.92 114.888 76.22C113.668 75.52 112.708 74.53 112.008 73.25C111.308 71.95 110.958 70.45 110.958 68.75C110.958 67.05 111.298 65.56 111.978 64.28C112.658 63 113.608 62.02 114.828 61.34C116.068 60.64 117.488 60.29 119.088 60.29C120.648 60.29 122.028 60.63 123.228 61.31C124.428 61.99 125.348 62.93 125.988 64.13C126.648 65.31 126.978 66.65 126.978 68.15ZM124.158 67.58C124.158 66.54 123.928 65.65 123.468 64.91C123.008 64.15 122.378 63.58 121.578 63.2C120.798 62.8 119.928 62.6 118.968 62.6C117.588 62.6 116.408 63.04 115.428 63.92C114.468 64.8 113.918 66.02 113.778 67.58H124.158ZM144.741 60.56L134.841 84.74H132.021L135.261 76.82L128.631 60.56H131.661L136.821 73.88L141.921 60.56H144.741ZM153.306 77.27C152.046 77.27 150.916 77.06 149.916 76.64C148.916 76.2 148.126 75.6 147.546 74.84C146.966 74.06 146.646 73.17 146.586 72.17H149.406C149.486 72.99 149.866 73.66 150.546 74.18C151.246 74.7 152.156 74.96 153.276 74.96C154.316 74.96 155.136 74.73 155.736 74.27C156.336 73.81 156.636 73.23 156.636 72.53C156.636 71.81 156.316 71.28 155.676 70.94C155.036 70.58 154.046 70.23 152.706 69.89C151.486 69.57 150.486 69.25 149.706 68.93C148.946 68.59 148.286 68.1 147.726 67.46C147.186 66.8 146.916 65.94 146.916 64.88C146.916 64.04 147.166 63.27 147.666 62.57C148.166 61.87 148.876 61.32 149.796 60.92C150.716 60.5 151.766 60.29 152.946 60.29C154.766 60.29 156.236 60.75 157.356 61.67C158.476 62.59 159.076 63.85 159.156 65.45H156.426C156.366 64.59 156.016 63.9 155.376 63.38C154.756 62.86 153.916 62.6 152.856 62.6C151.876 62.6 151.096 62.81 150.516 63.23C149.936 63.65 149.646 64.2 149.646 64.88C149.646 65.42 149.816 65.87 150.156 66.23C150.516 66.57 150.956 66.85 151.476 67.07C152.016 67.27 152.756 67.5 153.696 67.76C154.876 68.08 155.836 68.4 156.576 68.72C157.316 69.02 157.946 69.48 158.466 70.1C159.006 70.72 159.286 71.53 159.306 72.53C159.306 73.43 159.056 74.24 158.556 74.96C158.056 75.68 157.346 76.25 156.426 76.67C155.526 77.07 154.486 77.27 153.306 77.27Z" fill="white"/>
<path d="M357.553 344.512C357.836 345.864 359.161 346.73 360.512 346.447C361.864 346.164 362.73 344.839 362.447 343.488L357.553 344.512ZM313.733 123.05C320.94 121.541 325.56 114.475 324.05 107.267C322.541 100.06 315.475 95.4405 308.267 96.9497C301.06 98.459 296.44 105.525 297.95 112.733C299.459 119.94 306.525 124.56 313.733 123.05ZM362.447 343.488L361.63 339.588L356.736 340.612L357.553 344.512L362.447 343.488ZM359.997 331.788L358.364 323.988L353.47 325.012L355.103 332.812L359.997 331.788ZM356.73 316.188L355.097 308.388L350.203 309.412L351.836 317.212L356.73 316.188ZM353.464 300.588L351.83 292.788L346.936 293.812L348.57 301.612L353.464 300.588ZM350.197 284.988L348.564 277.188L343.67 278.212L345.303 286.012L350.197 284.988ZM346.93 269.388L345.297 261.588L340.403 262.612L342.036 270.412L346.93 269.388ZM343.664 253.788L342.03 245.988L337.136 247.012L338.77 254.812L343.664 253.788ZM340.397 238.188L338.764 230.388L333.87 231.412L335.503 239.212L340.397 238.188ZM337.13 222.588L335.497 214.788L330.603 215.812L332.236 223.612L337.13 222.588ZM333.864 206.988L332.23 199.188L327.336 200.212L328.97 208.012L333.864 206.988ZM330.597 191.388L328.964 183.588L324.07 184.612L325.703 192.412L330.597 191.388ZM327.33 175.788L325.697 167.988L320.803 169.012L322.436 176.812L327.33 175.788ZM324.064 160.188L322.43 152.388L317.536 153.412L319.17 161.212L324.064 160.188ZM320.797 144.588L319.164 136.788L314.27 137.812L315.903 145.612L320.797 144.588ZM317.53 128.988L315.897 121.188L311.003 122.212L312.636 130.012L317.53 128.988ZM314.264 113.388L313.447 109.488L308.553 110.512L309.37 114.412L314.264 113.388ZM357.553 344.512C357.836 345.864 359.161 346.73 360.512 346.447C361.864 346.164 362.73 344.839 362.447 343.488L357.553 344.512ZM313.733 123.05C320.94 121.541 325.56 114.475 324.05 107.267C322.541 100.06 315.475 95.4405 308.267 96.9497C301.06 98.459 296.44 105.525 297.95 112.733C299.459 119.94 306.525 124.56 313.733 123.05ZM362.447 343.488L361.63 339.588L356.736 340.612L357.553 344.512L362.447 343.488ZM359.997 331.788L358.364 323.988L353.47 325.012L355.103 332.812L359.997 331.788ZM356.73 316.188L355.097 308.388L350.203 309.412L351.836 317.212L356.73 316.188ZM353.464 300.588L351.83 292.788L346.936 293.812L348.57 301.612L353.464 300.588ZM350.197 284.988L348.564 277.188L343.67 278.212L345.303 286.012L350.197 284.988ZM346.93 269.388L345.297 261.588L340.403 262.612L342.036 270.412L346.93 269.388ZM343.664 253.788L342.03 245.988L337.136 247.012L338.77 254.812L343.664 253.788ZM340.397 238.188L338.764 230.388L333.87 231.412L335.503 239.212L340.397 238.188ZM337.13 222.588L335.497 214.788L330.603 215.812L332.236 223.612L337.13 222.588ZM333.864 206.988L332.23 199.188L327.336 200.212L328.97 208.012L333.864 206.988ZM330.597 191.388L328.964 183.588L324.07 184.612L325.703 192.412L330.597 191.388ZM327.33 175.788L325.697 167.988L320.803 169.012L322.436 176.812L327.33 175.788ZM324.064 160.188L322.43 152.388L317.536 153.412L319.17 161.212L324.064 160.188ZM320.797 144.588L319.164 136.788L314.27 137.812L315.903 145.612L320.797 144.588ZM317.53 128.988L315.897 121.188L311.003 122.212L312.636 130.012L317.53 128.988ZM314.264 113.388L313.447 109.488L308.553 110.512L309.37 114.412L314.264 113.388Z" fill="#4CAF50"/>
<path d="M388.617 292.136C390.382 292.923 392.451 292.129 393.238 290.364C394.025 288.598 393.232 286.529 391.466 285.742L388.617 292.136ZM193.747 198.732C191.942 199.424 191.04 201.448 191.732 203.253L203.008 232.666C203.7 234.47 205.724 235.373 207.529 234.681C209.334 233.989 210.236 231.965 209.544 230.16L199.521 204.015L225.666 193.992C227.47 193.3 228.373 191.276 227.681 189.471C226.989 187.666 224.965 186.764 223.16 187.456L193.747 198.732ZM391.466 285.742L387.716 284.07L384.866 290.464L388.617 292.136L391.466 285.742ZM380.214 280.726L372.712 277.383L369.863 283.776L377.364 287.12L380.214 280.726ZM365.211 274.039L357.709 270.695L354.859 277.089L362.361 280.432L365.211 274.039ZM350.208 267.351L342.706 264.007L339.856 270.401L347.358 273.745L350.208 267.351ZM335.204 260.664L327.703 257.32L324.853 263.713L332.355 267.057L335.204 260.664ZM320.201 253.976L312.7 250.632L309.85 257.026L317.351 260.37L320.201 253.976ZM305.198 247.288L297.697 243.945L294.847 250.338L302.348 253.682L305.198 247.288ZM290.195 240.601L282.693 237.257L279.843 243.651L287.345 246.994L290.195 240.601ZM275.192 233.913L267.69 230.569L264.84 236.963L272.342 240.307L275.192 233.913ZM260.189 227.226L252.687 223.882L249.837 230.275L257.339 233.619L260.189 227.226ZM245.185 220.538L237.684 217.194L234.834 223.588L242.335 226.932L245.185 220.538ZM230.182 213.85L222.681 210.506L219.831 216.9L227.332 220.244L230.182 213.85ZM215.179 207.163L207.677 203.819L204.827 210.212L212.329 213.556L215.179 207.163ZM200.176 200.475L196.425 198.803L193.575 205.197L197.326 206.869L200.176 200.475ZM388.617 292.136C390.382 292.923 392.451 292.129 393.238 290.364C394.025 288.598 393.232 286.529 391.466 285.742L388.617 292.136ZM193.747 198.732C191.942 199.424 191.04 201.448 191.732 203.253L203.008 232.666C203.7 234.47 205.724 235.373 207.529 234.681C209.334 233.989 210.236 231.965 209.544 230.16L199.521 204.015L225.666 193.992C227.47 193.3 228.373 191.276 227.681 189.471C226.989 187.666 224.965 186.764 223.16 187.456L193.747 198.732ZM391.466 285.742L387.716 284.07L384.866 290.464L388.617 292.136L391.466 285.742ZM380.214 280.726L372.712 277.383L369.863 283.776L377.364 287.12L380.214 280.726ZM365.211 274.039L357.709 270.695L354.859 277.089L362.361 280.432L365.211 274.039ZM350.208 267.351L342.706 264.007L339.856 270.401L347.358 273.745L350.208 267.351ZM335.204 260.664L327.703 257.32L324.853 263.713L332.355 267.057L335.204 260.664ZM320.201 253.976L312.7 250.632L309.85 257.026L317.351 260.37L320.201 253.976ZM305.198 247.288L297.697 243.945L294.847 250.338L302.348 253.682L305.198 247.288ZM290.195 240.601L282.693 237.257L279.843 243.651L287.345 246.994L290.195 240.601ZM275.192 233.913L267.69 230.569L264.84 236.963L272.342 240.307L275.192 233.913ZM260.189 227.226L252.687 223.882L249.837 230.275L257.339 233.619L260.189 227.226ZM245.185 220.538L237.684 217.194L234.834 223.588L242.335 226.932L245.185 220.538ZM230.182 213.85L222.681 210.506L219.831 216.9L227.332 220.244L230.182 213.85ZM215.179 207.163L207.677 203.819L204.827 210.212L212.329 213.556L215.179 207.163ZM200.176 200.475L196.425 198.803L193.575 205.197L197.326 206.869L200.176 200.475Z" fill="#4CAF50"/>
<path d="M376.855 314.483C378.832 316.789 382.304 317.055 384.61 315.078C386.916 313.1 387.182 309.628 385.205 307.322L376.855 314.483ZM233.066 138.364C245.363 127.818 246.783 109.3 236.237 97.002C225.691 84.7044 207.172 83.2845 194.875 93.8305C182.577 104.377 181.157 122.895 191.703 135.193C202.25 147.49 220.768 148.91 233.066 138.364ZM385.205 307.322L382.595 304.278L374.244 311.439L376.855 314.483L385.205 307.322ZM377.374 298.191L372.153 292.103L363.803 299.264L369.024 305.352L377.374 298.191ZM366.933 286.015L361.712 279.928L353.362 287.089L358.583 293.176L366.933 286.015ZM356.491 273.84L351.271 267.752L342.921 274.913L348.141 281.001L356.491 273.84ZM346.05 261.665L340.83 255.577L332.48 262.738L337.7 268.826L346.05 261.665ZM335.609 249.489L330.388 243.402L322.038 250.563L327.259 256.65L335.609 249.489ZM325.168 237.314L319.947 231.226L311.597 238.387L316.818 244.475L325.168 237.314ZM314.727 225.139L309.506 219.051L301.156 226.212L306.377 232.3L314.727 225.139ZM304.285 212.963L299.065 206.876L290.715 214.037L295.935 220.124L304.285 212.963ZM293.844 200.788L288.624 194.7L280.273 201.861L285.494 207.949L293.844 200.788ZM283.403 188.613L278.182 182.525L269.832 189.686L275.053 195.774L283.403 188.613ZM272.962 176.437L267.741 170.35L259.391 177.511L264.612 183.598L272.962 176.437ZM262.52 164.262L257.3 158.174L248.95 165.335L254.17 171.423L262.52 164.262ZM252.079 152.087L246.859 145.999L238.509 153.16L243.729 159.248L252.079 152.087ZM241.638 139.912L236.417 133.824L228.067 140.985L233.288 147.072L241.638 139.912ZM231.197 127.736L225.976 121.649L217.626 128.809L222.847 134.897L231.197 127.736ZM220.756 115.561L218.145 112.517L209.795 119.678L212.406 122.722L220.756 115.561ZM376.855 314.483C378.832 316.789 382.304 317.055 384.61 315.078C386.916 313.1 387.182 309.628 385.205 307.322L376.855 314.483ZM233.066 138.364C245.363 127.818 246.783 109.3 236.237 97.002C225.691 84.7044 207.172 83.2845 194.875 93.8305C182.577 104.377 181.157 122.895 191.703 135.193C202.25 147.49 220.768 148.91 233.066 138.364ZM385.205 307.322L382.595 304.278L374.244 311.439L376.855 314.483L385.205 307.322ZM377.374 298.191L372.153 292.103L363.803 299.264L369.024 305.352L377.374 298.191ZM366.933 286.015L361.712 279.928L353.362 287.089L358.583 293.176L366.933 286.015ZM356.491 273.84L351.271 267.752L342.921 274.913L348.141 281.001L356.491 273.84ZM346.05 261.665L340.83 255.577L332.48 262.738L337.7 268.826L346.05 261.665ZM335.609 249.489L330.388 243.402L322.038 250.563L327.259 256.65L335.609 249.489ZM325.168 237.314L319.947 231.226L311.597 238.387L316.818 244.475L325.168 237.314ZM314.727 225.139L309.506 219.051L301.156 226.212L306.377 232.3L314.727 225.139ZM304.285 212.963L299.065 206.876L290.715 214.037L295.935 220.124L304.285 212.963ZM293.844 200.788L288.624 194.7L280.273 201.861L285.494 207.949L293.844 200.788ZM283.403 188.613L278.182 182.525L269.832 189.686L275.053 195.774L283.403 188.613ZM272.962 176.437L267.741 170.35L259.391 177.511L264.612 183.598L272.962 176.437ZM262.52 164.262L257.3 158.174L248.95 165.335L254.17 171.423L262.52 164.262ZM252.079 152.087L246.859 145.999L238.509 153.16L243.729 159.248L252.079 152.087ZM241.638 139.912L236.417 133.824L228.067 140.985L233.288 147.072L241.638 139.912ZM231.197 127.736L225.976 121.649L217.626 128.809L222.847 134.897L231.197 127.736ZM220.756 115.561L218.145 112.517L209.795 119.678L212.406 122.722L220.756 115.561Z" fill="#4CAF50"/>
<g filter="url(#filter0_dddd_38_423)">
<circle cx="214.5" cy="115.5" r="30.5" fill="#4CAF50"/>
<circle cx="214.5" cy="115.5" r="29.5" stroke="white" stroke-width="2"/>
</g>
<g filter="url(#filter1_dddd_38_423)">
<circle cx="311" cy="110" r="14" fill="black"/>
<circle cx="311" cy="110" r="13" stroke="white" stroke-width="2"/>
</g>
</g>
<defs>
<filter id="filter0_dddd_38_423" x="179" y="84" width="71" height="79" filterUnits="userSpaceOnUse" color-interpolation-filters="sRGB">
<feFlood flood-opacity="0" result="BackgroundImageFix"/>
<feColorMatrix in="SourceAlpha" type="matrix" values="0 0 0 0 0 0 0 0 0 0 0 0 0 0 0 0 0 0 127 0" result="hardAlpha"/>
<feOffset dy="1"/>
<feGaussianBlur stdDeviation="1"/>
<feColorMatrix type="matrix" values="0 0 0 0 0 0 0 0 0 0 0 0 0 0 0 0 0 0 0.1 0"/>
<feBlend mode="normal" in2="BackgroundImageFix" result="effect1_dropShadow_38_423"/>
<feColorMatrix in="SourceAlpha" type="matrix" values="0 0 0 0 0 0 0 0 0 0 0 0 0 0 0 0 0 0 127 0" result="hardAlpha"/>
<feOffset dy="3"/>
<feGaussianBlur stdDeviation="1.5"/>
<feColorMatrix type="matrix" values="0 0 0 0 0 0 0 0 0 0 0 0 0 0 0 0 0 0 0.09 0"/>
<feBlend mode="normal" in2="effect1_dropShadow_38_423" result="effect2_dropShadow_38_423"/>
<feColorMatrix in="SourceAlpha" type="matrix" values="0 0 0 0 0 0 0 0 0 0 0 0 0 0 0 0 0 0 127 0" result="hardAlpha"/>
<feOffset dy="7"/>
<feGaussianBlur stdDeviation="2"/>
<feColorMatrix type="matrix" values="0 0 0 0 0 0 0 0 0 0 0 0 0 0 0 0 0 0 0.05 0"/>
<feBlend mode="normal" in2="effect2_dropShadow_38_423" result="effect3_dropShadow_38_423"/>
<feColorMatrix in="SourceAlpha" type="matrix" values="0 0 0 0 0 0 0 0 0 0 0 0 0 0 0 0 0 0 127 0" result="hardAlpha"/>
<feOffset dy="12"/>
<feGaussianBlur stdDeviation="2.5"/>
<feColorMatrix type="matrix" values="0 0 0 0 0 0 0 0 0 0 0 0 0 0 0 0 0 0 0.01 0"/>
<feBlend mode="normal" in2="effect3_dropShadow_38_423" result="effect4_dropShadow_38_423"/>
<feBlend mode="normal" in="SourceGraphic" in2="effect4_dropShadow_38_423" result="shape"/>
</filter>
<filter id="filter1_dddd_38_423" x="292" y="95" width="38" height="46" filterUnits="userSpaceOnUse" color-interpolation-filters="sRGB">
<feFlood flood-opacity="0" result="BackgroundImageFix"/>
<feColorMatrix in="SourceAlpha" type="matrix" values="0 0 0 0 0 0 0 0 0 0 0 0 0 0 0 0 0 0 127 0" result="hardAlpha"/>
<feOffset dy="1"/>
<feGaussianBlur stdDeviation="1"/>
<feColorMatrix type="matrix" values="0 0 0 0 0 0 0 0 0 0 0 0 0 0 0 0 0 0 0.1 0"/>
<feBlend mode="normal" in2="BackgroundImageFix" result="effect1_dropShadow_38_423"/>
<feColorMatrix in="SourceAlpha" type="matrix" values="0 0 0 0 0 0 0 0 0 0 0 0 0 0 0 0 0 0 127 0" result="hardAlpha"/>
<feOffset dy="3"/>
<feGaussianBlur stdDeviation="1.5"/>
<feColorMatrix type="matrix" values="0 0 0 0 0 0 0 0 0 0 0 0 0 0 0 0 0 0 0.09 0"/>
<feBlend mode="normal" in2="effect1_dropShadow_38_423" result="effect2_dropShadow_38_423"/>
<feColorMatrix in="SourceAlpha" type="matrix" values="0 0 0 0 0 0 0 0 0 0 0 0 0 0 0 0 0 0 127 0" result="hardAlpha"/>
<feOffset dy="7"/>
<feGaussianBlur stdDeviation="2"/>
<feColorMatrix type="matrix" values="0 0 0 0 0 0 0 0 0 0 0 0 0 0 0 0 0 0 0.05 0"/>
<feBlend mode="normal" in2="effect2_dropShadow_38_423" result="effect3_dropShadow_38_423"/>
<feColorMatrix in="SourceAlpha" type="matrix" values="0 0 0 0 0 0 0 0 0 0 0 0 0 0 0 0 0 0 127 0" result="hardAlpha"/>
<feOffset dy="12"/>
<feGaussianBlur stdDeviation="2.5"/>
<feColorMatrix type="matrix" values="0 0 0 0 0 0 0 0 0 0 0 0 0 0 0 0 0 0 0.01 0"/>
<feBlend mode="normal" in2="effect3_dropShadow_38_423" result="effect4_dropShadow_38_423"/>
<feBlend mode="normal" in="SourceGraphic" in2="effect4_dropShadow_38_423" result="shape"/>
</filter>
<clipPath id="clip0_38_423">
<rect width="345" height="255" rx="33" fill="white"/>
</clipPath>
</defs>
</svg>
