<svg width="345" height="255" viewBox="0 0 345 255" fill="none" xmlns="http://www.w3.org/2000/svg">
<rect width="345" height="255" rx="33" fill="#333333"/>
<path d="M43.75 77H41.02L30.04 60.35V77H27.31V56.06H30.04L41.02 72.68V56.06H43.75V77ZM55.5738 77.27C54.0338 77.27 52.6338 76.92 51.3738 76.22C50.1338 75.52 49.1538 74.53 48.4338 73.25C47.7338 71.95 47.3838 70.45 47.3838 68.75C47.3838 67.07 47.7438 65.59 48.4638 64.31C49.2038 63.01 50.2038 62.02 51.4638 61.34C52.7238 60.64 54.1338 60.29 55.6938 60.29C57.2538 60.29 58.6638 60.64 59.9238 61.34C61.1838 62.02 62.1738 63 62.8938 64.28C63.6338 65.56 64.0038 67.05 64.0038 68.75C64.0038 70.45 63.6238 71.95 62.8638 73.25C62.1238 74.53 61.1138 75.52 59.8338 76.22C58.5538 76.92 57.1338 77.27 55.5738 77.27ZM55.5738 74.87C56.5538 74.87 57.4738 74.64 58.3338 74.18C59.1938 73.72 59.8838 73.03 60.4038 72.11C60.9438 71.19 61.2138 70.07 61.2138 68.75C61.2138 67.43 60.9538 66.31 60.4338 65.39C59.9138 64.47 59.2338 63.79 58.3938 63.35C57.5538 62.89 56.6438 62.66 55.6638 62.66C54.6638 62.66 53.7438 62.89 52.9038 63.35C52.0838 63.79 51.4238 64.47 50.9238 65.39C50.4238 66.31 50.1738 67.43 50.1738 68.75C50.1738 70.09 50.4138 71.22 50.8938 72.14C51.3938 73.06 52.0538 73.75 52.8738 74.21C53.6938 74.65 54.5938 74.87 55.5738 74.87ZM70.9232 62.81V72.5C70.9232 73.3 71.0932 73.87 71.4332 74.21C71.7732 74.53 72.3632 74.69 73.2032 74.69H75.2132V77H72.7532C71.2332 77 70.0932 76.65 69.3332 75.95C68.5732 75.25 68.1932 74.1 68.1932 72.5V62.81H66.0632V60.56H68.1932V56.42H70.9232V60.56H75.2132V62.81H70.9232ZM79.9309 57.89C79.4109 57.89 78.9709 57.71 78.6109 57.35C78.2509 56.99 78.0709 56.55 78.0709 56.03C78.0709 55.51 78.2509 55.07 78.6109 54.71C78.9709 54.35 79.4109 54.17 79.9309 54.17C80.4309 54.17 80.8509 54.35 81.1909 54.71C81.5509 55.07 81.7309 55.51 81.7309 56.03C81.7309 56.55 81.5509 56.99 81.1909 57.35C80.8509 57.71 80.4309 57.89 79.9309 57.89ZM81.2509 60.56V77H78.5209V60.56H81.2509ZM92.5938 62.81H89.1438V77H86.4138V62.81H84.2838V60.56H86.4138V59.39C86.4138 57.55 86.8838 56.21 87.8238 55.37C88.7838 54.51 90.3138 54.08 92.4137 54.08V56.36C91.2138 56.36 90.3638 56.6 89.8638 57.08C89.3838 57.54 89.1438 58.31 89.1438 59.39V60.56H92.5938V62.81ZM97.1868 57.89C96.6668 57.89 96.2268 57.71 95.8668 57.35C95.5068 56.99 95.3268 56.55 95.3268 56.03C95.3268 55.51 95.5068 55.07 95.8668 54.71C96.2268 54.35 96.6668 54.17 97.1868 54.17C97.6868 54.17 98.1068 54.35 98.4468 54.71C98.8068 55.07 98.9868 55.51 98.9868 56.03C98.9868 56.55 98.8068 56.99 98.4468 57.35C98.1068 57.71 97.6868 57.89 97.1868 57.89ZM98.5068 60.56V77H95.7768V60.56H98.5068ZM102.14 68.75C102.14 67.05 102.48 65.57 103.16 64.31C103.84 63.03 104.78 62.04 105.98 61.34C107.2 60.64 108.59 60.29 110.15 60.29C112.17 60.29 113.83 60.78 115.13 61.76C116.45 62.74 117.32 64.1 117.74 65.84H114.8C114.52 64.84 113.97 64.05 113.15 63.47C112.35 62.89 111.35 62.6 110.15 62.6C108.59 62.6 107.33 63.14 106.37 64.22C105.41 65.28 104.93 66.79 104.93 68.75C104.93 70.73 105.41 72.26 106.37 73.34C107.33 74.42 108.59 74.96 110.15 74.96C111.35 74.96 112.35 74.68 113.15 74.12C113.95 73.56 114.5 72.76 114.8 71.72H117.74C117.3 73.4 116.42 74.75 115.1 75.77C113.78 76.77 112.13 77.27 110.15 77.27C108.59 77.27 107.2 76.92 105.98 76.22C104.78 75.52 103.84 74.53 103.16 73.25C102.48 71.97 102.14 70.47 102.14 68.75ZM120.362 68.72C120.362 67.04 120.702 65.57 121.382 64.31C122.062 63.03 122.992 62.04 124.172 61.34C125.372 60.64 126.702 60.29 128.162 60.29C129.602 60.29 130.852 60.6 131.912 61.22C132.972 61.84 133.762 62.62 134.282 63.56V60.56H137.042V77H134.282V73.94C133.742 74.9 132.932 75.7 131.852 76.34C130.792 76.96 129.552 77.27 128.132 77.27C126.672 77.27 125.352 76.91 124.172 76.19C122.992 75.47 122.062 74.46 121.382 73.16C120.702 71.86 120.362 70.38 120.362 68.72ZM134.282 68.75C134.282 67.51 134.032 66.43 133.532 65.51C133.032 64.59 132.352 63.89 131.492 63.41C130.652 62.91 129.722 62.66 128.702 62.66C127.682 62.66 126.752 62.9 125.912 63.38C125.072 63.86 124.402 64.56 123.902 65.48C123.402 66.4 123.152 67.48 123.152 68.72C123.152 69.98 123.402 71.08 123.902 72.02C124.402 72.94 125.072 73.65 125.912 74.15C126.752 74.63 127.682 74.87 128.702 74.87C129.722 74.87 130.652 74.63 131.492 74.15C132.352 73.65 133.032 72.94 133.532 72.02C134.032 71.08 134.282 69.99 134.282 68.75ZM144.986 62.81V72.5C144.986 73.3 145.156 73.87 145.496 74.21C145.836 74.53 146.426 74.69 147.266 74.69H149.276V77H146.816C145.296 77 144.156 76.65 143.396 75.95C142.636 75.25 142.256 74.1 142.256 72.5V62.81H140.126V60.56H142.256V56.42H144.986V60.56H149.276V62.81H144.986ZM153.993 57.89C153.473 57.89 153.033 57.71 152.673 57.35C152.313 56.99 152.133 56.55 152.133 56.03C152.133 55.51 152.313 55.07 152.673 54.71C153.033 54.35 153.473 54.17 153.993 54.17C154.493 54.17 154.913 54.35 155.253 54.71C155.613 55.07 155.793 55.51 155.793 56.03C155.793 56.55 155.613 56.99 155.253 57.35C154.913 57.71 154.493 57.89 153.993 57.89ZM155.313 60.56V77H152.583V60.56H155.313ZM167.136 77.27C165.596 77.27 164.196 76.92 162.936 76.22C161.696 75.52 160.716 74.53 159.996 73.25C159.296 71.95 158.946 70.45 158.946 68.75C158.946 67.07 159.306 65.59 160.026 64.31C160.766 63.01 161.766 62.02 163.026 61.34C164.286 60.64 165.696 60.29 167.256 60.29C168.816 60.29 170.226 60.64 171.486 61.34C172.746 62.02 173.736 63 174.456 64.28C175.196 65.56 175.566 67.05 175.566 68.75C175.566 70.45 175.186 71.95 174.426 73.25C173.686 74.53 172.676 75.52 171.396 76.22C170.116 76.92 168.696 77.27 167.136 77.27ZM167.136 74.87C168.116 74.87 169.036 74.64 169.896 74.18C170.756 73.72 171.446 73.03 171.966 72.11C172.506 71.19 172.776 70.07 172.776 68.75C172.776 67.43 172.516 66.31 171.996 65.39C171.476 64.47 170.796 63.79 169.956 63.35C169.116 62.89 168.206 62.66 167.226 62.66C166.226 62.66 165.306 62.89 164.466 63.35C163.646 63.79 162.986 64.47 162.486 65.39C161.986 66.31 161.736 67.43 161.736 68.75C161.736 70.09 161.976 71.22 162.456 72.14C162.956 73.06 163.616 73.75 164.436 74.21C165.256 74.65 166.156 74.87 167.136 74.87ZM187.166 60.26C189.166 60.26 190.786 60.87 192.026 62.09C193.266 63.29 193.886 65.03 193.886 67.31V77H191.186V67.7C191.186 66.06 190.776 64.81 189.956 63.95C189.136 63.07 188.016 62.63 186.596 62.63C185.156 62.63 184.006 63.08 183.146 63.98C182.306 64.88 181.886 66.19 181.886 67.91V77H179.156V60.56H181.886V62.9C182.426 62.06 183.156 61.41 184.076 60.95C185.016 60.49 186.046 60.26 187.166 60.26ZM204.165 77.27C202.905 77.27 201.775 77.06 200.775 76.64C199.775 76.2 198.985 75.6 198.405 74.84C197.825 74.06 197.505 73.17 197.445 72.17H200.265C200.345 72.99 200.725 73.66 201.405 74.18C202.105 74.7 203.015 74.96 204.135 74.96C205.175 74.96 205.995 74.73 206.595 74.27C207.195 73.81 207.495 73.23 207.495 72.53C207.495 71.81 207.175 71.28 206.535 70.94C205.895 70.58 204.905 70.23 203.565 69.89C202.345 69.57 201.345 69.25 200.565 68.93C199.805 68.59 199.145 68.1 198.585 67.46C198.045 66.8 197.775 65.94 197.775 64.88C197.775 64.04 198.025 63.27 198.525 62.57C199.025 61.87 199.735 61.32 200.655 60.92C201.575 60.5 202.625 60.29 203.805 60.29C205.625 60.29 207.095 60.75 208.215 61.67C209.335 62.59 209.935 63.85 210.015 65.45H207.285C207.225 64.59 206.875 63.9 206.235 63.38C205.615 62.86 204.775 62.6 203.715 62.6C202.735 62.6 201.955 62.81 201.375 63.23C200.795 63.65 200.505 64.2 200.505 64.88C200.505 65.42 200.675 65.87 201.015 66.23C201.375 66.57 201.815 66.85 202.335 67.07C202.875 67.27 203.615 67.5 204.555 67.76C205.735 68.08 206.695 68.4 207.435 68.72C208.175 69.02 208.805 69.48 209.325 70.1C209.865 70.72 210.145 71.53 210.165 72.53C210.165 73.43 209.915 74.24 209.415 74.96C208.915 75.68 208.205 76.25 207.285 76.67C206.385 77.07 205.345 77.27 204.165 77.27Z" fill="white"/>
<g filter="url(#filter0_b_39_452)">
<rect x="13" y="117" width="320" height="91" rx="12" fill="#ABABAB" fill-opacity="0.5" style="mix-blend-mode:luminosity"/>
<rect x="13" y="117" width="320" height="91" rx="12" fill="white" fill-opacity="0.5"/>
<rect x="13" y="117" width="320" height="91" rx="12" fill="black" fill-opacity="0.5" style="mix-blend-mode:soft-light"/>
<path d="M276.343 136.412C276.391 135.668 276.675 135.088 277.195 134.672C277.723 134.256 278.395 134.048 279.211 134.048C279.771 134.048 280.255 134.148 280.663 134.348C281.071 134.548 281.379 134.82 281.587 135.164C281.795 135.508 281.899 135.896 281.899 136.328C281.899 136.824 281.767 137.248 281.503 137.6C281.239 137.952 280.923 138.188 280.555 138.308V138.356C281.027 138.5 281.395 138.764 281.659 139.148C281.923 139.524 282.055 140.008 282.055 140.6C282.055 141.072 281.947 141.492 281.731 141.86C281.515 142.228 281.195 142.52 280.771 142.736C280.347 142.944 279.839 143.048 279.247 143.048C278.383 143.048 277.671 142.828 277.111 142.388C276.559 141.94 276.263 141.3 276.223 140.468H277.543C277.575 140.892 277.739 141.24 278.035 141.512C278.331 141.776 278.731 141.908 279.235 141.908C279.723 141.908 280.099 141.776 280.363 141.512C280.627 141.24 280.759 140.892 280.759 140.468C280.759 139.908 280.579 139.512 280.219 139.28C279.867 139.04 279.323 138.92 278.587 138.92H278.275V137.792H278.599C279.247 137.784 279.739 137.676 280.075 137.468C280.419 137.26 280.591 136.932 280.591 136.484C280.591 136.1 280.467 135.796 280.219 135.572C279.971 135.34 279.619 135.224 279.163 135.224C278.715 135.224 278.367 135.34 278.119 135.572C277.871 135.796 277.723 136.076 277.675 136.412H276.343ZM286.972 136.28C287.476 136.28 287.924 136.388 288.316 136.604C288.716 136.82 289.028 137.14 289.252 137.564C289.484 137.988 289.6 138.5 289.6 139.1V143H288.244V139.304C288.244 138.712 288.096 138.26 287.8 137.948C287.504 137.628 287.1 137.468 286.588 137.468C286.076 137.468 285.668 137.628 285.364 137.948C285.068 138.26 284.92 138.712 284.92 139.304V143H283.552V134.12H284.92V137.156C285.152 136.876 285.444 136.66 285.796 136.508C286.156 136.356 286.548 136.28 286.972 136.28ZM293.766 139.664C293.766 139 293.902 138.412 294.174 137.9C294.454 137.388 294.83 136.992 295.302 136.712C295.782 136.424 296.31 136.28 296.886 136.28C297.406 136.28 297.858 136.384 298.242 136.592C298.634 136.792 298.946 137.044 299.178 137.348V136.388H300.558V143H299.178V142.016C298.946 142.328 298.63 142.588 298.23 142.796C297.83 143.004 297.374 143.108 296.862 143.108C296.294 143.108 295.774 142.964 295.302 142.676C294.83 142.38 294.454 141.972 294.174 141.452C293.902 140.924 293.766 140.328 293.766 139.664ZM299.178 139.688C299.178 139.232 299.082 138.836 298.89 138.5C298.706 138.164 298.462 137.908 298.158 137.732C297.854 137.556 297.526 137.468 297.174 137.468C296.822 137.468 296.494 137.556 296.19 137.732C295.886 137.9 295.638 138.152 295.446 138.488C295.262 138.816 295.17 139.208 295.17 139.664C295.17 140.12 295.262 140.52 295.446 140.864C295.638 141.208 295.886 141.472 296.19 141.656C296.502 141.832 296.83 141.92 297.174 141.92C297.526 141.92 297.854 141.832 298.158 141.656C298.462 141.48 298.706 141.224 298.89 140.888C299.082 140.544 299.178 140.144 299.178 139.688ZM304.899 136.28C305.411 136.28 305.863 136.384 306.255 136.592C306.655 136.792 306.967 137.044 307.191 137.348V136.388H308.571V143.108C308.571 143.716 308.443 144.256 308.187 144.728C307.931 145.208 307.559 145.584 307.071 145.856C306.591 146.128 306.015 146.264 305.343 146.264C304.447 146.264 303.703 146.052 303.111 145.628C302.519 145.212 302.183 144.644 302.103 143.924H303.459C303.563 144.268 303.783 144.544 304.119 144.752C304.463 144.968 304.871 145.076 305.343 145.076C305.895 145.076 306.339 144.908 306.675 144.572C307.019 144.236 307.191 143.748 307.191 143.108V142.004C306.959 142.316 306.643 142.58 306.243 142.796C305.851 143.004 305.403 143.108 304.899 143.108C304.323 143.108 303.795 142.964 303.315 142.676C302.843 142.38 302.467 141.972 302.187 141.452C301.915 140.924 301.779 140.328 301.779 139.664C301.779 139 301.915 138.412 302.187 137.9C302.467 137.388 302.843 136.992 303.315 136.712C303.795 136.424 304.323 136.28 304.899 136.28ZM307.191 139.688C307.191 139.232 307.095 138.836 306.903 138.5C306.719 138.164 306.475 137.908 306.171 137.732C305.867 137.556 305.539 137.468 305.187 137.468C304.835 137.468 304.507 137.556 304.203 137.732C303.899 137.9 303.651 138.152 303.459 138.488C303.275 138.816 303.183 139.208 303.183 139.664C303.183 140.12 303.275 140.52 303.459 140.864C303.651 141.208 303.899 141.472 304.203 141.656C304.515 141.832 304.843 141.92 305.187 141.92C305.539 141.92 305.867 141.832 306.171 141.656C306.475 141.48 306.719 141.224 306.903 140.888C307.095 140.544 307.191 140.144 307.191 139.688ZM313.116 143.108C312.492 143.108 311.928 142.968 311.424 142.688C310.92 142.4 310.524 142 310.236 141.488C309.948 140.968 309.804 140.368 309.804 139.688C309.804 139.016 309.952 138.42 310.248 137.9C310.544 137.38 310.948 136.98 311.46 136.7C311.972 136.42 312.544 136.28 313.176 136.28C313.808 136.28 314.38 136.42 314.892 136.7C315.404 136.98 315.808 137.38 316.104 137.9C316.4 138.42 316.548 139.016 316.548 139.688C316.548 140.36 316.396 140.956 316.092 141.476C315.788 141.996 315.372 142.4 314.844 142.688C314.324 142.968 313.748 143.108 313.116 143.108ZM313.116 141.92C313.468 141.92 313.796 141.836 314.1 141.668C314.412 141.5 314.664 141.248 314.856 140.912C315.048 140.576 315.144 140.168 315.144 139.688C315.144 139.208 315.052 138.804 314.868 138.476C314.684 138.14 314.44 137.888 314.136 137.72C313.832 137.552 313.504 137.468 313.152 137.468C312.8 137.468 312.472 137.552 312.168 137.72C311.872 137.888 311.636 138.14 311.46 138.476C311.284 138.804 311.196 139.208 311.196 139.688C311.196 140.4 311.376 140.952 311.736 141.344C312.104 141.728 312.564 141.92 313.116 141.92Z" fill="black" fill-opacity="0.2"/>
<path d="M276.343 136.412C276.391 135.668 276.675 135.088 277.195 134.672C277.723 134.256 278.395 134.048 279.211 134.048C279.771 134.048 280.255 134.148 280.663 134.348C281.071 134.548 281.379 134.82 281.587 135.164C281.795 135.508 281.899 135.896 281.899 136.328C281.899 136.824 281.767 137.248 281.503 137.6C281.239 137.952 280.923 138.188 280.555 138.308V138.356C281.027 138.5 281.395 138.764 281.659 139.148C281.923 139.524 282.055 140.008 282.055 140.6C282.055 141.072 281.947 141.492 281.731 141.86C281.515 142.228 281.195 142.52 280.771 142.736C280.347 142.944 279.839 143.048 279.247 143.048C278.383 143.048 277.671 142.828 277.111 142.388C276.559 141.94 276.263 141.3 276.223 140.468H277.543C277.575 140.892 277.739 141.24 278.035 141.512C278.331 141.776 278.731 141.908 279.235 141.908C279.723 141.908 280.099 141.776 280.363 141.512C280.627 141.24 280.759 140.892 280.759 140.468C280.759 139.908 280.579 139.512 280.219 139.28C279.867 139.04 279.323 138.92 278.587 138.92H278.275V137.792H278.599C279.247 137.784 279.739 137.676 280.075 137.468C280.419 137.26 280.591 136.932 280.591 136.484C280.591 136.1 280.467 135.796 280.219 135.572C279.971 135.34 279.619 135.224 279.163 135.224C278.715 135.224 278.367 135.34 278.119 135.572C277.871 135.796 277.723 136.076 277.675 136.412H276.343ZM286.972 136.28C287.476 136.28 287.924 136.388 288.316 136.604C288.716 136.82 289.028 137.14 289.252 137.564C289.484 137.988 289.6 138.5 289.6 139.1V143H288.244V139.304C288.244 138.712 288.096 138.26 287.8 137.948C287.504 137.628 287.1 137.468 286.588 137.468C286.076 137.468 285.668 137.628 285.364 137.948C285.068 138.26 284.92 138.712 284.92 139.304V143H283.552V134.12H284.92V137.156C285.152 136.876 285.444 136.66 285.796 136.508C286.156 136.356 286.548 136.28 286.972 136.28ZM293.766 139.664C293.766 139 293.902 138.412 294.174 137.9C294.454 137.388 294.83 136.992 295.302 136.712C295.782 136.424 296.31 136.28 296.886 136.28C297.406 136.28 297.858 136.384 298.242 136.592C298.634 136.792 298.946 137.044 299.178 137.348V136.388H300.558V143H299.178V142.016C298.946 142.328 298.63 142.588 298.23 142.796C297.83 143.004 297.374 143.108 296.862 143.108C296.294 143.108 295.774 142.964 295.302 142.676C294.83 142.38 294.454 141.972 294.174 141.452C293.902 140.924 293.766 140.328 293.766 139.664ZM299.178 139.688C299.178 139.232 299.082 138.836 298.89 138.5C298.706 138.164 298.462 137.908 298.158 137.732C297.854 137.556 297.526 137.468 297.174 137.468C296.822 137.468 296.494 137.556 296.19 137.732C295.886 137.9 295.638 138.152 295.446 138.488C295.262 138.816 295.17 139.208 295.17 139.664C295.17 140.12 295.262 140.52 295.446 140.864C295.638 141.208 295.886 141.472 296.19 141.656C296.502 141.832 296.83 141.92 297.174 141.92C297.526 141.92 297.854 141.832 298.158 141.656C298.462 141.48 298.706 141.224 298.89 140.888C299.082 140.544 299.178 140.144 299.178 139.688ZM304.899 136.28C305.411 136.28 305.863 136.384 306.255 136.592C306.655 136.792 306.967 137.044 307.191 137.348V136.388H308.571V143.108C308.571 143.716 308.443 144.256 308.187 144.728C307.931 145.208 307.559 145.584 307.071 145.856C306.591 146.128 306.015 146.264 305.343 146.264C304.447 146.264 303.703 146.052 303.111 145.628C302.519 145.212 302.183 144.644 302.103 143.924H303.459C303.563 144.268 303.783 144.544 304.119 144.752C304.463 144.968 304.871 145.076 305.343 145.076C305.895 145.076 306.339 144.908 306.675 144.572C307.019 144.236 307.191 143.748 307.191 143.108V142.004C306.959 142.316 306.643 142.58 306.243 142.796C305.851 143.004 305.403 143.108 304.899 143.108C304.323 143.108 303.795 142.964 303.315 142.676C302.843 142.38 302.467 141.972 302.187 141.452C301.915 140.924 301.779 140.328 301.779 139.664C301.779 139 301.915 138.412 302.187 137.9C302.467 137.388 302.843 136.992 303.315 136.712C303.795 136.424 304.323 136.28 304.899 136.28ZM307.191 139.688C307.191 139.232 307.095 138.836 306.903 138.5C306.719 138.164 306.475 137.908 306.171 137.732C305.867 137.556 305.539 137.468 305.187 137.468C304.835 137.468 304.507 137.556 304.203 137.732C303.899 137.9 303.651 138.152 303.459 138.488C303.275 138.816 303.183 139.208 303.183 139.664C303.183 140.12 303.275 140.52 303.459 140.864C303.651 141.208 303.899 141.472 304.203 141.656C304.515 141.832 304.843 141.92 305.187 141.92C305.539 141.92 305.867 141.832 306.171 141.656C306.475 141.48 306.719 141.224 306.903 140.888C307.095 140.544 307.191 140.144 307.191 139.688ZM313.116 143.108C312.492 143.108 311.928 142.968 311.424 142.688C310.92 142.4 310.524 142 310.236 141.488C309.948 140.968 309.804 140.368 309.804 139.688C309.804 139.016 309.952 138.42 310.248 137.9C310.544 137.38 310.948 136.98 311.46 136.7C311.972 136.42 312.544 136.28 313.176 136.28C313.808 136.28 314.38 136.42 314.892 136.7C315.404 136.98 315.808 137.38 316.104 137.9C316.4 138.42 316.548 139.016 316.548 139.688C316.548 140.36 316.396 140.956 316.092 141.476C315.788 141.996 315.372 142.4 314.844 142.688C314.324 142.968 313.748 143.108 313.116 143.108ZM313.116 141.92C313.468 141.92 313.796 141.836 314.1 141.668C314.412 141.5 314.664 141.248 314.856 140.912C315.048 140.576 315.144 140.168 315.144 139.688C315.144 139.208 315.052 138.804 314.868 138.476C314.684 138.14 314.44 137.888 314.136 137.72C313.832 137.552 313.504 137.468 313.152 137.468C312.8 137.468 312.472 137.552 312.168 137.72C311.872 137.888 311.636 138.14 311.46 138.476C311.284 138.804 311.196 139.208 311.196 139.688C311.196 140.4 311.376 140.952 311.736 141.344C312.104 141.728 312.564 141.92 313.116 141.92Z" fill="black" fill-opacity="0.36" style="mix-blend-mode:overlay"/>
<path d="M57.08 134.66L54.32 139.976V143H52.952V139.976L50.18 134.66H51.704L53.636 138.752L55.568 134.66H57.08ZM61.8496 143.084C61.0736 143.084 60.3576 142.904 59.7016 142.544C59.0536 142.176 58.5376 141.668 58.1536 141.02C57.7776 140.364 57.5896 139.628 57.5896 138.812C57.5896 137.996 57.7776 137.264 58.1536 136.616C58.5376 135.968 59.0536 135.464 59.7016 135.104C60.3576 134.736 61.0736 134.552 61.8496 134.552C62.6336 134.552 63.3496 134.736 63.9976 135.104C64.6536 135.464 65.1696 135.968 65.5456 136.616C65.9216 137.264 66.1096 137.996 66.1096 138.812C66.1096 139.628 65.9216 140.364 65.5456 141.02C65.1696 141.668 64.6536 142.176 63.9976 142.544C63.3496 142.904 62.6336 143.084 61.8496 143.084ZM61.8496 141.896C62.4016 141.896 62.8936 141.772 63.3256 141.524C63.7576 141.268 64.0936 140.908 64.3336 140.444C64.5816 139.972 64.7056 139.428 64.7056 138.812C64.7056 138.196 64.5816 137.656 64.3336 137.192C64.0936 136.728 63.7576 136.372 63.3256 136.124C62.8936 135.876 62.4016 135.752 61.8496 135.752C61.2976 135.752 60.8056 135.876 60.3736 136.124C59.9416 136.372 59.6016 136.728 59.3536 137.192C59.1136 137.656 58.9936 138.196 58.9936 138.812C58.9936 139.428 59.1136 139.972 59.3536 140.444C59.6016 140.908 59.9416 141.268 60.3736 141.524C60.8056 141.772 61.2976 141.896 61.8496 141.896ZM68.6918 134.66V139.976C68.6918 140.608 68.8558 141.084 69.1838 141.404C69.5198 141.724 69.9838 141.884 70.5758 141.884C71.1758 141.884 71.6398 141.724 71.9678 141.404C72.3038 141.084 72.4718 140.608 72.4718 139.976V134.66H73.8398V139.952C73.8398 140.632 73.6918 141.208 73.3958 141.68C73.0998 142.152 72.7038 142.504 72.2078 142.736C71.7118 142.968 71.1638 143.084 70.5638 143.084C69.9638 143.084 69.4158 142.968 68.9198 142.736C68.4318 142.504 68.0438 142.152 67.7558 141.68C67.4678 141.208 67.3238 140.632 67.3238 139.952V134.66H68.6918ZM79.8329 143L77.9129 139.664H76.8689V143H75.5009V134.66H78.3809C79.0209 134.66 79.5609 134.772 80.0009 134.996C80.4489 135.22 80.7809 135.52 80.9969 135.896C81.2209 136.272 81.3329 136.692 81.3329 137.156C81.3329 137.7 81.1729 138.196 80.8529 138.644C80.5409 139.084 80.0569 139.384 79.4009 139.544L81.4649 143H79.8329ZM76.8689 138.572H78.3809C78.8929 138.572 79.2769 138.444 79.5329 138.188C79.7969 137.932 79.9289 137.588 79.9289 137.156C79.9289 136.724 79.8009 136.388 79.5449 136.148C79.2889 135.9 78.9009 135.776 78.3809 135.776H76.8689V138.572ZM90.9882 141.296H87.4962L86.8962 143H85.4682L88.4562 134.648H90.0402L93.0282 143H91.5882L90.9882 141.296ZM90.6042 140.18L89.2482 136.304L87.8802 140.18H90.6042ZM100.039 137.144C100.039 137.568 99.9393 137.968 99.7393 138.344C99.5393 138.72 99.2193 139.028 98.7793 139.268C98.3393 139.5 97.7753 139.616 97.0873 139.616H95.5753V143H94.2073V134.66H97.0873C97.7273 134.66 98.2673 134.772 98.7073 134.996C99.1553 135.212 99.4873 135.508 99.7033 135.884C99.9273 136.26 100.039 136.68 100.039 137.144ZM97.0873 138.5C97.6073 138.5 97.9953 138.384 98.2513 138.152C98.5073 137.912 98.6353 137.576 98.6353 137.144C98.6353 136.232 98.1193 135.776 97.0873 135.776H95.5753V138.5H97.0873ZM107.056 137.144C107.056 137.568 106.956 137.968 106.756 138.344C106.556 138.72 106.236 139.028 105.796 139.268C105.356 139.5 104.792 139.616 104.104 139.616H102.592V143H101.224V134.66H104.104C104.744 134.66 105.284 134.772 105.724 134.996C106.172 135.212 106.504 135.508 106.72 135.884C106.944 136.26 107.056 136.68 107.056 137.144ZM104.104 138.5C104.624 138.5 105.012 138.384 105.268 138.152C105.524 137.912 105.652 137.576 105.652 137.144C105.652 136.232 105.136 135.776 104.104 135.776H102.592V138.5H104.104Z" fill="black" fill-opacity="0.2"/>
<path d="M57.08 134.66L54.32 139.976V143H52.952V139.976L50.18 134.66H51.704L53.636 138.752L55.568 134.66H57.08ZM61.8496 143.084C61.0736 143.084 60.3576 142.904 59.7016 142.544C59.0536 142.176 58.5376 141.668 58.1536 141.02C57.7776 140.364 57.5896 139.628 57.5896 138.812C57.5896 137.996 57.7776 137.264 58.1536 136.616C58.5376 135.968 59.0536 135.464 59.7016 135.104C60.3576 134.736 61.0736 134.552 61.8496 134.552C62.6336 134.552 63.3496 134.736 63.9976 135.104C64.6536 135.464 65.1696 135.968 65.5456 136.616C65.9216 137.264 66.1096 137.996 66.1096 138.812C66.1096 139.628 65.9216 140.364 65.5456 141.02C65.1696 141.668 64.6536 142.176 63.9976 142.544C63.3496 142.904 62.6336 143.084 61.8496 143.084ZM61.8496 141.896C62.4016 141.896 62.8936 141.772 63.3256 141.524C63.7576 141.268 64.0936 140.908 64.3336 140.444C64.5816 139.972 64.7056 139.428 64.7056 138.812C64.7056 138.196 64.5816 137.656 64.3336 137.192C64.0936 136.728 63.7576 136.372 63.3256 136.124C62.8936 135.876 62.4016 135.752 61.8496 135.752C61.2976 135.752 60.8056 135.876 60.3736 136.124C59.9416 136.372 59.6016 136.728 59.3536 137.192C59.1136 137.656 58.9936 138.196 58.9936 138.812C58.9936 139.428 59.1136 139.972 59.3536 140.444C59.6016 140.908 59.9416 141.268 60.3736 141.524C60.8056 141.772 61.2976 141.896 61.8496 141.896ZM68.6918 134.66V139.976C68.6918 140.608 68.8558 141.084 69.1838 141.404C69.5198 141.724 69.9838 141.884 70.5758 141.884C71.1758 141.884 71.6398 141.724 71.9678 141.404C72.3038 141.084 72.4718 140.608 72.4718 139.976V134.66H73.8398V139.952C73.8398 140.632 73.6918 141.208 73.3958 141.68C73.0998 142.152 72.7038 142.504 72.2078 142.736C71.7118 142.968 71.1638 143.084 70.5638 143.084C69.9638 143.084 69.4158 142.968 68.9198 142.736C68.4318 142.504 68.0438 142.152 67.7558 141.68C67.4678 141.208 67.3238 140.632 67.3238 139.952V134.66H68.6918ZM79.8329 143L77.9129 139.664H76.8689V143H75.5009V134.66H78.3809C79.0209 134.66 79.5609 134.772 80.0009 134.996C80.4489 135.22 80.7809 135.52 80.9969 135.896C81.2209 136.272 81.3329 136.692 81.3329 137.156C81.3329 137.7 81.1729 138.196 80.8529 138.644C80.5409 139.084 80.0569 139.384 79.4009 139.544L81.4649 143H79.8329ZM76.8689 138.572H78.3809C78.8929 138.572 79.2769 138.444 79.5329 138.188C79.7969 137.932 79.9289 137.588 79.9289 137.156C79.9289 136.724 79.8009 136.388 79.5449 136.148C79.2889 135.9 78.9009 135.776 78.3809 135.776H76.8689V138.572ZM90.9882 141.296H87.4962L86.8962 143H85.4682L88.4562 134.648H90.0402L93.0282 143H91.5882L90.9882 141.296ZM90.6042 140.18L89.2482 136.304L87.8802 140.18H90.6042ZM100.039 137.144C100.039 137.568 99.9393 137.968 99.7393 138.344C99.5393 138.72 99.2193 139.028 98.7793 139.268C98.3393 139.5 97.7753 139.616 97.0873 139.616H95.5753V143H94.2073V134.66H97.0873C97.7273 134.66 98.2673 134.772 98.7073 134.996C99.1553 135.212 99.4873 135.508 99.7033 135.884C99.9273 136.26 100.039 136.68 100.039 137.144ZM97.0873 138.5C97.6073 138.5 97.9953 138.384 98.2513 138.152C98.5073 137.912 98.6353 137.576 98.6353 137.144C98.6353 136.232 98.1193 135.776 97.0873 135.776H95.5753V138.5H97.0873ZM107.056 137.144C107.056 137.568 106.956 137.968 106.756 138.344C106.556 138.72 106.236 139.028 105.796 139.268C105.356 139.5 104.792 139.616 104.104 139.616H102.592V143H101.224V134.66H104.104C104.744 134.66 105.284 134.772 105.724 134.996C106.172 135.212 106.504 135.508 106.72 135.884C106.944 136.26 107.056 136.68 107.056 137.144ZM104.104 138.5C104.624 138.5 105.012 138.384 105.268 138.152C105.524 137.912 105.652 137.576 105.652 137.144C105.652 136.232 105.136 135.776 104.104 135.776H102.592V138.5H104.104Z" fill="black" fill-opacity="0.36" style="mix-blend-mode:overlay"/>
<g clip-path="url(#clip0_39_452)">
<path fill-rule="evenodd" clip-rule="evenodd" d="M38.4444 127H27.5556C25.0396 127 23 129.04 23 131.556V142.444C23 144.96 25.0396 147 27.5556 147H38.4444C40.9604 147 43 144.96 43 142.444V131.556C43 129.04 40.9604 127 38.4444 127Z" fill="#DFEDF5"/>
<path fill-rule="evenodd" clip-rule="evenodd" d="M38.4444 127H27.5556C25.0396 127 23 129.04 23 131.556V142.444C23 144.96 25.0396 147 27.5556 147H38.4444C40.9604 147 43 144.96 43 142.444V131.556C43 129.04 40.9604 127 38.4444 127Z" fill="white"/>
<circle cx="33.0001" cy="137" r="8.63636" fill="#4681C7" fill-opacity="0.06"/>
<circle cx="33.0001" cy="137" r="8.38636" stroke="#2869BF" stroke-opacity="0.04" stroke-width="0.5"/>
<circle cx="33" cy="137" r="5.45455" fill="#4681C7" fill-opacity="0.09"/>
<circle cx="33" cy="137" r="5.20455" stroke="#2869BF" stroke-opacity="0.04" stroke-width="0.5"/>
<path fill-rule="evenodd" clip-rule="evenodd" d="M33.25 127H32.75V136.75H23V137.25H32.75V147H33.25V137.25H43V136.75H33.25V127Z" fill="#3668A8" fill-opacity="0.2"/>
</g>
<path d="M34.38 160.172V170H31.986V165.954H28.262V170H25.868V160.172H28.262V164.022H31.986V160.172H34.38ZM43.3322 165.968C43.3322 166.192 43.3182 166.425 43.2902 166.668H37.8722C37.9096 167.153 38.0636 167.527 38.3342 167.788C38.6142 168.04 38.9549 168.166 39.3562 168.166C39.9536 168.166 40.3689 167.914 40.6022 167.41H43.1502C43.0196 167.923 42.7816 168.385 42.4362 168.796C42.1002 169.207 41.6756 169.529 41.1622 169.762C40.6489 169.995 40.0749 170.112 39.4402 170.112C38.6749 170.112 37.9936 169.949 37.3962 169.622C36.7989 169.295 36.3322 168.829 35.9962 168.222C35.6602 167.615 35.4922 166.906 35.4922 166.094C35.4922 165.282 35.6556 164.573 35.9822 163.966C36.3182 163.359 36.7849 162.893 37.3822 162.566C37.9796 162.239 38.6656 162.076 39.4402 162.076C40.1962 162.076 40.8682 162.235 41.4562 162.552C42.0442 162.869 42.5016 163.322 42.8282 163.91C43.1642 164.498 43.3322 165.184 43.3322 165.968ZM40.8822 165.338C40.8822 164.927 40.7422 164.601 40.4622 164.358C40.1822 164.115 39.8322 163.994 39.4122 163.994C39.0109 163.994 38.6702 164.111 38.3902 164.344C38.1196 164.577 37.9516 164.909 37.8862 165.338H40.8822ZM52.4352 162.188L47.5352 173.71H44.9592L46.7512 169.734L43.5732 162.188H46.2472L48.0532 167.074L49.8452 162.188H52.4352ZM62.1057 168.264H58.4377L57.8497 170H55.3437L58.8997 160.172H61.6717L65.2277 170H62.6937L62.1057 168.264ZM61.4897 166.416L60.2717 162.818L59.0677 166.416H61.4897ZM70.972 162.104C71.868 162.104 72.5866 162.403 73.128 163C73.6693 163.588 73.94 164.4 73.94 165.436V170H71.56V165.758C71.56 165.235 71.4246 164.829 71.154 164.54C70.8833 164.251 70.5193 164.106 70.062 164.106C69.6046 164.106 69.2406 164.251 68.97 164.54C68.6993 164.829 68.564 165.235 68.564 165.758V170H66.17V159.64H68.564V163.238C68.8066 162.893 69.138 162.617 69.558 162.412C69.978 162.207 70.4493 162.104 70.972 162.104ZM85.4315 162.104C86.4022 162.104 87.1722 162.398 87.7415 162.986C88.3202 163.574 88.6095 164.391 88.6095 165.436V170H86.2295V165.758C86.2295 165.254 86.0942 164.867 85.8235 164.596C85.5622 164.316 85.1982 164.176 84.7315 164.176C84.2649 164.176 83.8962 164.316 83.6255 164.596C83.3642 164.867 83.2335 165.254 83.2335 165.758V170H80.8535V165.758C80.8535 165.254 80.7182 164.867 80.4475 164.596C80.1862 164.316 79.8222 164.176 79.3555 164.176C78.8889 164.176 78.5202 164.316 78.2495 164.596C77.9882 164.867 77.8575 165.254 77.8575 165.758V170H75.4635V162.188H77.8575V163.168C78.1002 162.841 78.4175 162.585 78.8095 162.398C79.2015 162.202 79.6449 162.104 80.1395 162.104C80.7275 162.104 81.2502 162.23 81.7075 162.482C82.1742 162.734 82.5382 163.093 82.7995 163.56C83.0702 163.131 83.4389 162.781 83.9055 162.51C84.3722 162.239 84.8809 162.104 85.4315 162.104ZM97.5079 165.968C97.5079 166.192 97.4939 166.425 97.4659 166.668H92.0479C92.0852 167.153 92.2392 167.527 92.5099 167.788C92.7899 168.04 93.1305 168.166 93.5319 168.166C94.1292 168.166 94.5445 167.914 94.7779 167.41H97.3259C97.1952 167.923 96.9572 168.385 96.6119 168.796C96.2759 169.207 95.8512 169.529 95.3379 169.762C94.8245 169.995 94.2505 170.112 93.6159 170.112C92.8505 170.112 92.1692 169.949 91.5719 169.622C90.9745 169.295 90.5079 168.829 90.1719 168.222C89.8359 167.615 89.6679 166.906 89.6679 166.094C89.6679 165.282 89.8312 164.573 90.1579 163.966C90.4939 163.359 90.9605 162.893 91.5579 162.566C92.1552 162.239 92.8412 162.076 93.6159 162.076C94.3719 162.076 95.0439 162.235 95.6319 162.552C96.2199 162.869 96.6772 163.322 97.0039 163.91C97.3399 164.498 97.5079 165.184 97.5079 165.968ZM95.0579 165.338C95.0579 164.927 94.9179 164.601 94.6379 164.358C94.3579 164.115 94.0079 163.994 93.5879 163.994C93.1865 163.994 92.8459 164.111 92.5659 164.344C92.2952 164.577 92.1272 164.909 92.0619 165.338H95.0579ZM98.1548 166.08C98.1548 165.277 98.3041 164.573 98.6028 163.966C98.9108 163.359 99.3261 162.893 99.8488 162.566C100.371 162.239 100.955 162.076 101.599 162.076C102.112 162.076 102.579 162.183 102.999 162.398C103.428 162.613 103.764 162.902 104.007 163.266V159.64H106.401V170H104.007V168.88C103.783 169.253 103.461 169.552 103.041 169.776C102.63 170 102.149 170.112 101.599 170.112C100.955 170.112 100.371 169.949 99.8488 169.622C99.3261 169.286 98.9108 168.815 98.6028 168.208C98.3041 167.592 98.1548 166.883 98.1548 166.08ZM104.007 166.094C104.007 165.497 103.839 165.025 103.503 164.68C103.176 164.335 102.775 164.162 102.299 164.162C101.823 164.162 101.417 164.335 101.081 164.68C100.754 165.016 100.591 165.483 100.591 166.08C100.591 166.677 100.754 167.153 101.081 167.508C101.417 167.853 101.823 168.026 102.299 168.026C102.775 168.026 103.176 167.853 103.503 167.508C103.839 167.163 104.007 166.691 104.007 166.094ZM110.569 167.788L109.015 171.806H107.489L108.301 167.788H110.569ZM117.667 162.076C118.218 162.076 118.698 162.188 119.109 162.412C119.529 162.636 119.851 162.93 120.075 163.294V162.188H122.469V169.986C122.469 170.705 122.324 171.353 122.035 171.932C121.755 172.52 121.321 172.987 120.733 173.332C120.154 173.677 119.431 173.85 118.563 173.85C117.406 173.85 116.468 173.575 115.749 173.024C115.03 172.483 114.62 171.745 114.517 170.812H116.883C116.958 171.111 117.135 171.344 117.415 171.512C117.695 171.689 118.04 171.778 118.451 171.778C118.946 171.778 119.338 171.633 119.627 171.344C119.926 171.064 120.075 170.611 120.075 169.986V168.88C119.842 169.244 119.52 169.543 119.109 169.776C118.698 170 118.218 170.112 117.667 170.112C117.023 170.112 116.44 169.949 115.917 169.622C115.394 169.286 114.979 168.815 114.671 168.208C114.372 167.592 114.223 166.883 114.223 166.08C114.223 165.277 114.372 164.573 114.671 163.966C114.979 163.359 115.394 162.893 115.917 162.566C116.44 162.239 117.023 162.076 117.667 162.076ZM120.075 166.094C120.075 165.497 119.907 165.025 119.571 164.68C119.244 164.335 118.843 164.162 118.367 164.162C117.891 164.162 117.485 164.335 117.149 164.68C116.822 165.016 116.659 165.483 116.659 166.08C116.659 166.677 116.822 167.153 117.149 167.508C117.485 167.853 117.891 168.026 118.367 168.026C118.843 168.026 119.244 167.853 119.571 167.508C119.907 167.163 120.075 166.691 120.075 166.094ZM131.425 165.968C131.425 166.192 131.411 166.425 131.383 166.668H125.965C126.002 167.153 126.156 167.527 126.427 167.788C126.707 168.04 127.048 168.166 127.449 168.166C128.046 168.166 128.462 167.914 128.695 167.41H131.243C131.112 167.923 130.874 168.385 130.529 168.796C130.193 169.207 129.768 169.529 129.255 169.762C128.742 169.995 128.168 170.112 127.533 170.112C126.768 170.112 126.086 169.949 125.489 169.622C124.892 169.295 124.425 168.829 124.089 168.222C123.753 167.615 123.585 166.906 123.585 166.094C123.585 165.282 123.748 164.573 124.075 163.966C124.411 163.359 124.878 162.893 125.475 162.566C126.072 162.239 126.758 162.076 127.533 162.076C128.289 162.076 128.961 162.235 129.549 162.552C130.137 162.869 130.594 163.322 130.921 163.91C131.257 164.498 131.425 165.184 131.425 165.968ZM128.975 165.338C128.975 164.927 128.835 164.601 128.555 164.358C128.275 164.115 127.925 163.994 127.505 163.994C127.104 163.994 126.763 164.111 126.483 164.344C126.212 164.577 126.044 164.909 125.979 165.338H128.975ZM136.902 167.97V170H135.684C134.816 170 134.139 169.79 133.654 169.37C133.169 168.941 132.926 168.245 132.926 167.284V164.176H131.974V162.188H132.926V160.284H135.32V162.188H136.888V164.176H135.32V167.312C135.32 167.545 135.376 167.713 135.488 167.816C135.6 167.919 135.787 167.97 136.048 167.97H136.902ZM148.902 162.188L144.002 173.71H141.426L143.218 169.734L140.04 162.188H142.714L144.52 167.074L146.312 162.188H148.902ZM153.184 170.112C152.419 170.112 151.728 169.949 151.112 169.622C150.505 169.295 150.025 168.829 149.67 168.222C149.325 167.615 149.152 166.906 149.152 166.094C149.152 165.291 149.329 164.587 149.684 163.98C150.039 163.364 150.524 162.893 151.14 162.566C151.756 162.239 152.447 162.076 153.212 162.076C153.977 162.076 154.668 162.239 155.284 162.566C155.9 162.893 156.385 163.364 156.74 163.98C157.095 164.587 157.272 165.291 157.272 166.094C157.272 166.897 157.09 167.606 156.726 168.222C156.371 168.829 155.881 169.295 155.256 169.622C154.64 169.949 153.949 170.112 153.184 170.112ZM153.184 168.04C153.641 168.04 154.029 167.872 154.346 167.536C154.673 167.2 154.836 166.719 154.836 166.094C154.836 165.469 154.677 164.988 154.36 164.652C154.052 164.316 153.669 164.148 153.212 164.148C152.745 164.148 152.358 164.316 152.05 164.652C151.742 164.979 151.588 165.459 151.588 166.094C151.588 166.719 151.737 167.2 152.036 167.536C152.344 167.872 152.727 168.04 153.184 168.04ZM166.116 162.188V170H163.722V168.936C163.479 169.281 163.148 169.561 162.728 169.776C162.317 169.981 161.86 170.084 161.356 170.084C160.759 170.084 160.231 169.953 159.774 169.692C159.317 169.421 158.962 169.034 158.71 168.53C158.458 168.026 158.332 167.433 158.332 166.752V162.188H160.712V166.43C160.712 166.953 160.847 167.359 161.118 167.648C161.389 167.937 161.753 168.082 162.21 168.082C162.677 168.082 163.045 167.937 163.316 167.648C163.587 167.359 163.722 166.953 163.722 166.43V162.188H166.116ZM170.09 163.49C170.37 163.061 170.72 162.725 171.14 162.482C171.56 162.23 172.026 162.104 172.54 162.104V164.638H171.882C171.284 164.638 170.836 164.769 170.538 165.03C170.239 165.282 170.09 165.73 170.09 166.374V170H167.696V162.188H170.09V163.49ZM180.291 164.176H179.003V170H176.609V164.176H175.741V162.188H176.609V161.964C176.609 161.003 176.884 160.275 177.435 159.78C177.985 159.276 178.793 159.024 179.857 159.024C180.034 159.024 180.165 159.029 180.249 159.038V161.068C179.791 161.04 179.469 161.105 179.283 161.264C179.096 161.423 179.003 161.707 179.003 162.118V162.188H180.291V164.176ZM180.8 166.08C180.8 165.277 180.949 164.573 181.248 163.966C181.556 163.359 181.971 162.893 182.494 162.566C183.016 162.239 183.6 162.076 184.244 162.076C184.794 162.076 185.275 162.188 185.686 162.412C186.106 162.636 186.428 162.93 186.652 163.294V162.188H189.046V170H186.652V168.894C186.418 169.258 186.092 169.552 185.672 169.776C185.261 170 184.78 170.112 184.23 170.112C183.595 170.112 183.016 169.949 182.494 169.622C181.971 169.286 181.556 168.815 181.248 168.208C180.949 167.592 180.8 166.883 180.8 166.08ZM186.652 166.094C186.652 165.497 186.484 165.025 186.148 164.68C185.821 164.335 185.42 164.162 184.944 164.162C184.468 164.162 184.062 164.335 183.726 164.68C183.399 165.016 183.236 165.483 183.236 166.08C183.236 166.677 183.399 167.153 183.726 167.508C184.062 167.853 184.468 168.026 184.944 168.026C185.42 168.026 185.821 167.853 186.148 167.508C186.484 167.163 186.652 166.691 186.652 166.094ZM194.152 167.76L195.846 162.188H198.394L195.622 170H192.668L189.896 162.188H192.458L194.152 167.76ZM202.817 170.112C202.052 170.112 201.361 169.949 200.745 169.622C200.139 169.295 199.658 168.829 199.303 168.222C198.958 167.615 198.785 166.906 198.785 166.094C198.785 165.291 198.963 164.587 199.317 163.98C199.672 163.364 200.157 162.893 200.773 162.566C201.389 162.239 202.08 162.076 202.845 162.076C203.611 162.076 204.301 162.239 204.917 162.566C205.533 162.893 206.019 163.364 206.373 163.98C206.728 164.587 206.905 165.291 206.905 166.094C206.905 166.897 206.723 167.606 206.359 168.222C206.005 168.829 205.515 169.295 204.889 169.622C204.273 169.949 203.583 170.112 202.817 170.112ZM202.817 168.04C203.275 168.04 203.662 167.872 203.979 167.536C204.306 167.2 204.469 166.719 204.469 166.094C204.469 165.469 204.311 164.988 203.993 164.652C203.685 164.316 203.303 164.148 202.845 164.148C202.379 164.148 201.991 164.316 201.683 164.652C201.375 164.979 201.221 165.459 201.221 166.094C201.221 166.719 201.371 167.2 201.669 167.536C201.977 167.872 202.36 168.04 202.817 168.04ZM210.429 163.49C210.709 163.061 211.059 162.725 211.479 162.482C211.899 162.23 212.366 162.104 212.879 162.104V164.638H212.221C211.624 164.638 211.176 164.769 210.877 165.03C210.579 165.282 210.429 165.73 210.429 166.374V170H208.035V162.188H210.429V163.49ZM215.088 161.376C214.668 161.376 214.322 161.255 214.052 161.012C213.79 160.76 213.66 160.452 213.66 160.088C213.66 159.715 213.79 159.407 214.052 159.164C214.322 158.912 214.668 158.786 215.088 158.786C215.498 158.786 215.834 158.912 216.096 159.164C216.366 159.407 216.502 159.715 216.502 160.088C216.502 160.452 216.366 160.76 216.096 161.012C215.834 161.255 215.498 161.376 215.088 161.376ZM216.278 162.188V170H213.884V162.188H216.278ZM222.227 167.97V170H221.009C220.141 170 219.464 169.79 218.979 169.37C218.493 168.941 218.251 168.245 218.251 167.284V164.176H217.299V162.188H218.251V160.284H220.645V162.188H222.213V164.176H220.645V167.312C220.645 167.545 220.701 167.713 220.813 167.816C220.925 167.919 221.111 167.97 221.373 167.97H222.227ZM230.784 165.968C230.784 166.192 230.77 166.425 230.742 166.668H225.324C225.361 167.153 225.515 167.527 225.786 167.788C226.066 168.04 226.407 168.166 226.808 168.166C227.405 168.166 227.821 167.914 228.054 167.41H230.602C230.471 167.923 230.233 168.385 229.888 168.796C229.552 169.207 229.127 169.529 228.614 169.762C228.101 169.995 227.527 170.112 226.892 170.112C226.127 170.112 225.445 169.949 224.848 169.622C224.251 169.295 223.784 168.829 223.448 168.222C223.112 167.615 222.944 166.906 222.944 166.094C222.944 165.282 223.107 164.573 223.434 163.966C223.77 163.359 224.237 162.893 224.834 162.566C225.431 162.239 226.117 162.076 226.892 162.076C227.648 162.076 228.32 162.235 228.908 162.552C229.496 162.869 229.953 163.322 230.28 163.91C230.616 164.498 230.784 165.184 230.784 165.968ZM228.334 165.338C228.334 164.927 228.194 164.601 227.914 164.358C227.634 164.115 227.284 163.994 226.864 163.994C226.463 163.994 226.122 164.111 225.842 164.344C225.571 164.577 225.403 164.909 225.338 165.338H228.334ZM234.258 166.08C234.258 165.277 234.407 164.573 234.706 163.966C235.014 163.359 235.429 162.893 235.952 162.566C236.474 162.239 237.058 162.076 237.702 162.076C238.215 162.076 238.682 162.183 239.102 162.398C239.531 162.613 239.867 162.902 240.11 163.266V159.64H242.504V170H240.11V168.88C239.886 169.253 239.564 169.552 239.144 169.776C238.733 170 238.252 170.112 237.702 170.112C237.058 170.112 236.474 169.949 235.952 169.622C235.429 169.286 235.014 168.815 234.706 168.208C234.407 167.592 234.258 166.883 234.258 166.08ZM240.11 166.094C240.11 165.497 239.942 165.025 239.606 164.68C239.279 164.335 238.878 164.162 238.402 164.162C237.926 164.162 237.52 164.335 237.184 164.68C236.857 165.016 236.694 165.483 236.694 166.08C236.694 166.677 236.857 167.153 237.184 167.508C237.52 167.853 237.926 168.026 238.402 168.026C238.878 168.026 239.279 167.853 239.606 167.508C239.942 167.163 240.11 166.691 240.11 166.094ZM246.49 163.49C246.77 163.061 247.12 162.725 247.54 162.482C247.96 162.23 248.426 162.104 248.94 162.104V164.638H248.282C247.684 164.638 247.236 164.769 246.938 165.03C246.639 165.282 246.49 165.73 246.49 166.374V170H244.096V162.188H246.49V163.49ZM251.148 161.376C250.728 161.376 250.383 161.255 250.112 161.012C249.851 160.76 249.72 160.452 249.72 160.088C249.72 159.715 249.851 159.407 250.112 159.164C250.383 158.912 250.728 158.786 251.148 158.786C251.559 158.786 251.895 158.912 252.156 159.164C252.427 159.407 252.562 159.715 252.562 160.088C252.562 160.452 252.427 160.76 252.156 161.012C251.895 161.255 251.559 161.376 251.148 161.376ZM252.338 162.188V170H249.944V162.188H252.338ZM258.693 162.104C259.608 162.104 260.336 162.403 260.877 163C261.428 163.588 261.703 164.4 261.703 165.436V170H259.323V165.758C259.323 165.235 259.188 164.829 258.917 164.54C258.646 164.251 258.282 164.106 257.825 164.106C257.368 164.106 257.004 164.251 256.733 164.54C256.462 164.829 256.327 165.235 256.327 165.758V170H253.933V162.188H256.327V163.224C256.57 162.879 256.896 162.608 257.307 162.412C257.718 162.207 258.18 162.104 258.693 162.104ZM268.001 170L265.621 166.724V170H263.227V159.64H265.621V165.366L267.987 162.188H270.941L267.693 166.108L270.969 170H268.001ZM279.328 162.104C280.242 162.104 280.97 162.403 281.512 163C282.062 163.588 282.338 164.4 282.338 165.436V170H279.958V165.758C279.958 165.235 279.822 164.829 279.552 164.54C279.281 164.251 278.917 164.106 278.46 164.106C278.002 164.106 277.638 164.251 277.368 164.54C277.097 164.829 276.962 165.235 276.962 165.758V170H274.568V162.188H276.962V163.224C277.204 162.879 277.531 162.608 277.942 162.412C278.352 162.207 278.814 162.104 279.328 162.104ZM287.417 170.112C286.652 170.112 285.961 169.949 285.345 169.622C284.739 169.295 284.258 168.829 283.903 168.222C283.558 167.615 283.385 166.906 283.385 166.094C283.385 165.291 283.563 164.587 283.917 163.98C284.272 163.364 284.757 162.893 285.373 162.566C285.989 162.239 286.68 162.076 287.445 162.076C288.211 162.076 288.901 162.239 289.517 162.566C290.133 162.893 290.619 163.364 290.973 163.98C291.328 164.587 291.505 165.291 291.505 166.094C291.505 166.897 291.323 167.606 290.959 168.222C290.605 168.829 290.115 169.295 289.489 169.622C288.873 169.949 288.183 170.112 287.417 170.112ZM287.417 168.04C287.875 168.04 288.262 167.872 288.579 167.536C288.906 167.2 289.069 166.719 289.069 166.094C289.069 165.469 288.911 164.988 288.593 164.652C288.285 164.316 287.903 164.148 287.445 164.148C286.979 164.148 286.591 164.316 286.283 164.652C285.975 164.979 285.821 165.459 285.821 166.094C285.821 166.719 285.971 167.2 286.269 167.536C286.577 167.872 286.96 168.04 287.417 168.04ZM303.849 162.188L301.735 170H299.089L297.857 164.932L296.583 170H293.951L291.823 162.188H294.217L295.323 167.774L296.639 162.188H299.173L300.503 167.746L301.595 162.188H303.849Z" fill="black" fill-opacity="0.5"/>
<path d="M34.38 160.172V170H31.986V165.954H28.262V170H25.868V160.172H28.262V164.022H31.986V160.172H34.38ZM43.3322 165.968C43.3322 166.192 43.3182 166.425 43.2902 166.668H37.8722C37.9096 167.153 38.0636 167.527 38.3342 167.788C38.6142 168.04 38.9549 168.166 39.3562 168.166C39.9536 168.166 40.3689 167.914 40.6022 167.41H43.1502C43.0196 167.923 42.7816 168.385 42.4362 168.796C42.1002 169.207 41.6756 169.529 41.1622 169.762C40.6489 169.995 40.0749 170.112 39.4402 170.112C38.6749 170.112 37.9936 169.949 37.3962 169.622C36.7989 169.295 36.3322 168.829 35.9962 168.222C35.6602 167.615 35.4922 166.906 35.4922 166.094C35.4922 165.282 35.6556 164.573 35.9822 163.966C36.3182 163.359 36.7849 162.893 37.3822 162.566C37.9796 162.239 38.6656 162.076 39.4402 162.076C40.1962 162.076 40.8682 162.235 41.4562 162.552C42.0442 162.869 42.5016 163.322 42.8282 163.91C43.1642 164.498 43.3322 165.184 43.3322 165.968ZM40.8822 165.338C40.8822 164.927 40.7422 164.601 40.4622 164.358C40.1822 164.115 39.8322 163.994 39.4122 163.994C39.0109 163.994 38.6702 164.111 38.3902 164.344C38.1196 164.577 37.9516 164.909 37.8862 165.338H40.8822ZM52.4352 162.188L47.5352 173.71H44.9592L46.7512 169.734L43.5732 162.188H46.2472L48.0532 167.074L49.8452 162.188H52.4352ZM62.1057 168.264H58.4377L57.8497 170H55.3437L58.8997 160.172H61.6717L65.2277 170H62.6937L62.1057 168.264ZM61.4897 166.416L60.2717 162.818L59.0677 166.416H61.4897ZM70.972 162.104C71.868 162.104 72.5866 162.403 73.128 163C73.6693 163.588 73.94 164.4 73.94 165.436V170H71.56V165.758C71.56 165.235 71.4246 164.829 71.154 164.54C70.8833 164.251 70.5193 164.106 70.062 164.106C69.6046 164.106 69.2406 164.251 68.97 164.54C68.6993 164.829 68.564 165.235 68.564 165.758V170H66.17V159.64H68.564V163.238C68.8066 162.893 69.138 162.617 69.558 162.412C69.978 162.207 70.4493 162.104 70.972 162.104ZM85.4315 162.104C86.4022 162.104 87.1722 162.398 87.7415 162.986C88.3202 163.574 88.6095 164.391 88.6095 165.436V170H86.2295V165.758C86.2295 165.254 86.0942 164.867 85.8235 164.596C85.5622 164.316 85.1982 164.176 84.7315 164.176C84.2649 164.176 83.8962 164.316 83.6255 164.596C83.3642 164.867 83.2335 165.254 83.2335 165.758V170H80.8535V165.758C80.8535 165.254 80.7182 164.867 80.4475 164.596C80.1862 164.316 79.8222 164.176 79.3555 164.176C78.8889 164.176 78.5202 164.316 78.2495 164.596C77.9882 164.867 77.8575 165.254 77.8575 165.758V170H75.4635V162.188H77.8575V163.168C78.1002 162.841 78.4175 162.585 78.8095 162.398C79.2015 162.202 79.6449 162.104 80.1395 162.104C80.7275 162.104 81.2502 162.23 81.7075 162.482C82.1742 162.734 82.5382 163.093 82.7995 163.56C83.0702 163.131 83.4389 162.781 83.9055 162.51C84.3722 162.239 84.8809 162.104 85.4315 162.104ZM97.5079 165.968C97.5079 166.192 97.4939 166.425 97.4659 166.668H92.0479C92.0852 167.153 92.2392 167.527 92.5099 167.788C92.7899 168.04 93.1305 168.166 93.5319 168.166C94.1292 168.166 94.5445 167.914 94.7779 167.41H97.3259C97.1952 167.923 96.9572 168.385 96.6119 168.796C96.2759 169.207 95.8512 169.529 95.3379 169.762C94.8245 169.995 94.2505 170.112 93.6159 170.112C92.8505 170.112 92.1692 169.949 91.5719 169.622C90.9745 169.295 90.5079 168.829 90.1719 168.222C89.8359 167.615 89.6679 166.906 89.6679 166.094C89.6679 165.282 89.8312 164.573 90.1579 163.966C90.4939 163.359 90.9605 162.893 91.5579 162.566C92.1552 162.239 92.8412 162.076 93.6159 162.076C94.3719 162.076 95.0439 162.235 95.6319 162.552C96.2199 162.869 96.6772 163.322 97.0039 163.91C97.3399 164.498 97.5079 165.184 97.5079 165.968ZM95.0579 165.338C95.0579 164.927 94.9179 164.601 94.6379 164.358C94.3579 164.115 94.0079 163.994 93.5879 163.994C93.1865 163.994 92.8459 164.111 92.5659 164.344C92.2952 164.577 92.1272 164.909 92.0619 165.338H95.0579ZM98.1548 166.08C98.1548 165.277 98.3041 164.573 98.6028 163.966C98.9108 163.359 99.3261 162.893 99.8488 162.566C100.371 162.239 100.955 162.076 101.599 162.076C102.112 162.076 102.579 162.183 102.999 162.398C103.428 162.613 103.764 162.902 104.007 163.266V159.64H106.401V170H104.007V168.88C103.783 169.253 103.461 169.552 103.041 169.776C102.63 170 102.149 170.112 101.599 170.112C100.955 170.112 100.371 169.949 99.8488 169.622C99.3261 169.286 98.9108 168.815 98.6028 168.208C98.3041 167.592 98.1548 166.883 98.1548 166.08ZM104.007 166.094C104.007 165.497 103.839 165.025 103.503 164.68C103.176 164.335 102.775 164.162 102.299 164.162C101.823 164.162 101.417 164.335 101.081 164.68C100.754 165.016 100.591 165.483 100.591 166.08C100.591 166.677 100.754 167.153 101.081 167.508C101.417 167.853 101.823 168.026 102.299 168.026C102.775 168.026 103.176 167.853 103.503 167.508C103.839 167.163 104.007 166.691 104.007 166.094ZM110.569 167.788L109.015 171.806H107.489L108.301 167.788H110.569ZM117.667 162.076C118.218 162.076 118.698 162.188 119.109 162.412C119.529 162.636 119.851 162.93 120.075 163.294V162.188H122.469V169.986C122.469 170.705 122.324 171.353 122.035 171.932C121.755 172.52 121.321 172.987 120.733 173.332C120.154 173.677 119.431 173.85 118.563 173.85C117.406 173.85 116.468 173.575 115.749 173.024C115.03 172.483 114.62 171.745 114.517 170.812H116.883C116.958 171.111 117.135 171.344 117.415 171.512C117.695 171.689 118.04 171.778 118.451 171.778C118.946 171.778 119.338 171.633 119.627 171.344C119.926 171.064 120.075 170.611 120.075 169.986V168.88C119.842 169.244 119.52 169.543 119.109 169.776C118.698 170 118.218 170.112 117.667 170.112C117.023 170.112 116.44 169.949 115.917 169.622C115.394 169.286 114.979 168.815 114.671 168.208C114.372 167.592 114.223 166.883 114.223 166.08C114.223 165.277 114.372 164.573 114.671 163.966C114.979 163.359 115.394 162.893 115.917 162.566C116.44 162.239 117.023 162.076 117.667 162.076ZM120.075 166.094C120.075 165.497 119.907 165.025 119.571 164.68C119.244 164.335 118.843 164.162 118.367 164.162C117.891 164.162 117.485 164.335 117.149 164.68C116.822 165.016 116.659 165.483 116.659 166.08C116.659 166.677 116.822 167.153 117.149 167.508C117.485 167.853 117.891 168.026 118.367 168.026C118.843 168.026 119.244 167.853 119.571 167.508C119.907 167.163 120.075 166.691 120.075 166.094ZM131.425 165.968C131.425 166.192 131.411 166.425 131.383 166.668H125.965C126.002 167.153 126.156 167.527 126.427 167.788C126.707 168.04 127.048 168.166 127.449 168.166C128.046 168.166 128.462 167.914 128.695 167.41H131.243C131.112 167.923 130.874 168.385 130.529 168.796C130.193 169.207 129.768 169.529 129.255 169.762C128.742 169.995 128.168 170.112 127.533 170.112C126.768 170.112 126.086 169.949 125.489 169.622C124.892 169.295 124.425 168.829 124.089 168.222C123.753 167.615 123.585 166.906 123.585 166.094C123.585 165.282 123.748 164.573 124.075 163.966C124.411 163.359 124.878 162.893 125.475 162.566C126.072 162.239 126.758 162.076 127.533 162.076C128.289 162.076 128.961 162.235 129.549 162.552C130.137 162.869 130.594 163.322 130.921 163.91C131.257 164.498 131.425 165.184 131.425 165.968ZM128.975 165.338C128.975 164.927 128.835 164.601 128.555 164.358C128.275 164.115 127.925 163.994 127.505 163.994C127.104 163.994 126.763 164.111 126.483 164.344C126.212 164.577 126.044 164.909 125.979 165.338H128.975ZM136.902 167.97V170H135.684C134.816 170 134.139 169.79 133.654 169.37C133.169 168.941 132.926 168.245 132.926 167.284V164.176H131.974V162.188H132.926V160.284H135.32V162.188H136.888V164.176H135.32V167.312C135.32 167.545 135.376 167.713 135.488 167.816C135.6 167.919 135.787 167.97 136.048 167.97H136.902ZM148.902 162.188L144.002 173.71H141.426L143.218 169.734L140.04 162.188H142.714L144.52 167.074L146.312 162.188H148.902ZM153.184 170.112C152.419 170.112 151.728 169.949 151.112 169.622C150.505 169.295 150.025 168.829 149.67 168.222C149.325 167.615 149.152 166.906 149.152 166.094C149.152 165.291 149.329 164.587 149.684 163.98C150.039 163.364 150.524 162.893 151.14 162.566C151.756 162.239 152.447 162.076 153.212 162.076C153.977 162.076 154.668 162.239 155.284 162.566C155.9 162.893 156.385 163.364 156.74 163.98C157.095 164.587 157.272 165.291 157.272 166.094C157.272 166.897 157.09 167.606 156.726 168.222C156.371 168.829 155.881 169.295 155.256 169.622C154.64 169.949 153.949 170.112 153.184 170.112ZM153.184 168.04C153.641 168.04 154.029 167.872 154.346 167.536C154.673 167.2 154.836 166.719 154.836 166.094C154.836 165.469 154.677 164.988 154.36 164.652C154.052 164.316 153.669 164.148 153.212 164.148C152.745 164.148 152.358 164.316 152.05 164.652C151.742 164.979 151.588 165.459 151.588 166.094C151.588 166.719 151.737 167.2 152.036 167.536C152.344 167.872 152.727 168.04 153.184 168.04ZM166.116 162.188V170H163.722V168.936C163.479 169.281 163.148 169.561 162.728 169.776C162.317 169.981 161.86 170.084 161.356 170.084C160.759 170.084 160.231 169.953 159.774 169.692C159.317 169.421 158.962 169.034 158.71 168.53C158.458 168.026 158.332 167.433 158.332 166.752V162.188H160.712V166.43C160.712 166.953 160.847 167.359 161.118 167.648C161.389 167.937 161.753 168.082 162.21 168.082C162.677 168.082 163.045 167.937 163.316 167.648C163.587 167.359 163.722 166.953 163.722 166.43V162.188H166.116ZM170.09 163.49C170.37 163.061 170.72 162.725 171.14 162.482C171.56 162.23 172.026 162.104 172.54 162.104V164.638H171.882C171.284 164.638 170.836 164.769 170.538 165.03C170.239 165.282 170.09 165.73 170.09 166.374V170H167.696V162.188H170.09V163.49ZM180.291 164.176H179.003V170H176.609V164.176H175.741V162.188H176.609V161.964C176.609 161.003 176.884 160.275 177.435 159.78C177.985 159.276 178.793 159.024 179.857 159.024C180.034 159.024 180.165 159.029 180.249 159.038V161.068C179.791 161.04 179.469 161.105 179.283 161.264C179.096 161.423 179.003 161.707 179.003 162.118V162.188H180.291V164.176ZM180.8 166.08C180.8 165.277 180.949 164.573 181.248 163.966C181.556 163.359 181.971 162.893 182.494 162.566C183.016 162.239 183.6 162.076 184.244 162.076C184.794 162.076 185.275 162.188 185.686 162.412C186.106 162.636 186.428 162.93 186.652 163.294V162.188H189.046V170H186.652V168.894C186.418 169.258 186.092 169.552 185.672 169.776C185.261 170 184.78 170.112 184.23 170.112C183.595 170.112 183.016 169.949 182.494 169.622C181.971 169.286 181.556 168.815 181.248 168.208C180.949 167.592 180.8 166.883 180.8 166.08ZM186.652 166.094C186.652 165.497 186.484 165.025 186.148 164.68C185.821 164.335 185.42 164.162 184.944 164.162C184.468 164.162 184.062 164.335 183.726 164.68C183.399 165.016 183.236 165.483 183.236 166.08C183.236 166.677 183.399 167.153 183.726 167.508C184.062 167.853 184.468 168.026 184.944 168.026C185.42 168.026 185.821 167.853 186.148 167.508C186.484 167.163 186.652 166.691 186.652 166.094ZM194.152 167.76L195.846 162.188H198.394L195.622 170H192.668L189.896 162.188H192.458L194.152 167.76ZM202.817 170.112C202.052 170.112 201.361 169.949 200.745 169.622C200.139 169.295 199.658 168.829 199.303 168.222C198.958 167.615 198.785 166.906 198.785 166.094C198.785 165.291 198.963 164.587 199.317 163.98C199.672 163.364 200.157 162.893 200.773 162.566C201.389 162.239 202.08 162.076 202.845 162.076C203.611 162.076 204.301 162.239 204.917 162.566C205.533 162.893 206.019 163.364 206.373 163.98C206.728 164.587 206.905 165.291 206.905 166.094C206.905 166.897 206.723 167.606 206.359 168.222C206.005 168.829 205.515 169.295 204.889 169.622C204.273 169.949 203.583 170.112 202.817 170.112ZM202.817 168.04C203.275 168.04 203.662 167.872 203.979 167.536C204.306 167.2 204.469 166.719 204.469 166.094C204.469 165.469 204.311 164.988 203.993 164.652C203.685 164.316 203.303 164.148 202.845 164.148C202.379 164.148 201.991 164.316 201.683 164.652C201.375 164.979 201.221 165.459 201.221 166.094C201.221 166.719 201.371 167.2 201.669 167.536C201.977 167.872 202.36 168.04 202.817 168.04ZM210.429 163.49C210.709 163.061 211.059 162.725 211.479 162.482C211.899 162.23 212.366 162.104 212.879 162.104V164.638H212.221C211.624 164.638 211.176 164.769 210.877 165.03C210.579 165.282 210.429 165.73 210.429 166.374V170H208.035V162.188H210.429V163.49ZM215.088 161.376C214.668 161.376 214.322 161.255 214.052 161.012C213.79 160.76 213.66 160.452 213.66 160.088C213.66 159.715 213.79 159.407 214.052 159.164C214.322 158.912 214.668 158.786 215.088 158.786C215.498 158.786 215.834 158.912 216.096 159.164C216.366 159.407 216.502 159.715 216.502 160.088C216.502 160.452 216.366 160.76 216.096 161.012C215.834 161.255 215.498 161.376 215.088 161.376ZM216.278 162.188V170H213.884V162.188H216.278ZM222.227 167.97V170H221.009C220.141 170 219.464 169.79 218.979 169.37C218.493 168.941 218.251 168.245 218.251 167.284V164.176H217.299V162.188H218.251V160.284H220.645V162.188H222.213V164.176H220.645V167.312C220.645 167.545 220.701 167.713 220.813 167.816C220.925 167.919 221.111 167.97 221.373 167.97H222.227ZM230.784 165.968C230.784 166.192 230.77 166.425 230.742 166.668H225.324C225.361 167.153 225.515 167.527 225.786 167.788C226.066 168.04 226.407 168.166 226.808 168.166C227.405 168.166 227.821 167.914 228.054 167.41H230.602C230.471 167.923 230.233 168.385 229.888 168.796C229.552 169.207 229.127 169.529 228.614 169.762C228.101 169.995 227.527 170.112 226.892 170.112C226.127 170.112 225.445 169.949 224.848 169.622C224.251 169.295 223.784 168.829 223.448 168.222C223.112 167.615 222.944 166.906 222.944 166.094C222.944 165.282 223.107 164.573 223.434 163.966C223.77 163.359 224.237 162.893 224.834 162.566C225.431 162.239 226.117 162.076 226.892 162.076C227.648 162.076 228.32 162.235 228.908 162.552C229.496 162.869 229.953 163.322 230.28 163.91C230.616 164.498 230.784 165.184 230.784 165.968ZM228.334 165.338C228.334 164.927 228.194 164.601 227.914 164.358C227.634 164.115 227.284 163.994 226.864 163.994C226.463 163.994 226.122 164.111 225.842 164.344C225.571 164.577 225.403 164.909 225.338 165.338H228.334ZM234.258 166.08C234.258 165.277 234.407 164.573 234.706 163.966C235.014 163.359 235.429 162.893 235.952 162.566C236.474 162.239 237.058 162.076 237.702 162.076C238.215 162.076 238.682 162.183 239.102 162.398C239.531 162.613 239.867 162.902 240.11 163.266V159.64H242.504V170H240.11V168.88C239.886 169.253 239.564 169.552 239.144 169.776C238.733 170 238.252 170.112 237.702 170.112C237.058 170.112 236.474 169.949 235.952 169.622C235.429 169.286 235.014 168.815 234.706 168.208C234.407 167.592 234.258 166.883 234.258 166.08ZM240.11 166.094C240.11 165.497 239.942 165.025 239.606 164.68C239.279 164.335 238.878 164.162 238.402 164.162C237.926 164.162 237.52 164.335 237.184 164.68C236.857 165.016 236.694 165.483 236.694 166.08C236.694 166.677 236.857 167.153 237.184 167.508C237.52 167.853 237.926 168.026 238.402 168.026C238.878 168.026 239.279 167.853 239.606 167.508C239.942 167.163 240.11 166.691 240.11 166.094ZM246.49 163.49C246.77 163.061 247.12 162.725 247.54 162.482C247.96 162.23 248.426 162.104 248.94 162.104V164.638H248.282C247.684 164.638 247.236 164.769 246.938 165.03C246.639 165.282 246.49 165.73 246.49 166.374V170H244.096V162.188H246.49V163.49ZM251.148 161.376C250.728 161.376 250.383 161.255 250.112 161.012C249.851 160.76 249.72 160.452 249.72 160.088C249.72 159.715 249.851 159.407 250.112 159.164C250.383 158.912 250.728 158.786 251.148 158.786C251.559 158.786 251.895 158.912 252.156 159.164C252.427 159.407 252.562 159.715 252.562 160.088C252.562 160.452 252.427 160.76 252.156 161.012C251.895 161.255 251.559 161.376 251.148 161.376ZM252.338 162.188V170H249.944V162.188H252.338ZM258.693 162.104C259.608 162.104 260.336 162.403 260.877 163C261.428 163.588 261.703 164.4 261.703 165.436V170H259.323V165.758C259.323 165.235 259.188 164.829 258.917 164.54C258.646 164.251 258.282 164.106 257.825 164.106C257.368 164.106 257.004 164.251 256.733 164.54C256.462 164.829 256.327 165.235 256.327 165.758V170H253.933V162.188H256.327V163.224C256.57 162.879 256.896 162.608 257.307 162.412C257.718 162.207 258.18 162.104 258.693 162.104ZM268.001 170L265.621 166.724V170H263.227V159.64H265.621V165.366L267.987 162.188H270.941L267.693 166.108L270.969 170H268.001ZM279.328 162.104C280.242 162.104 280.97 162.403 281.512 163C282.062 163.588 282.338 164.4 282.338 165.436V170H279.958V165.758C279.958 165.235 279.822 164.829 279.552 164.54C279.281 164.251 278.917 164.106 278.46 164.106C278.002 164.106 277.638 164.251 277.368 164.54C277.097 164.829 276.962 165.235 276.962 165.758V170H274.568V162.188H276.962V163.224C277.204 162.879 277.531 162.608 277.942 162.412C278.352 162.207 278.814 162.104 279.328 162.104ZM287.417 170.112C286.652 170.112 285.961 169.949 285.345 169.622C284.739 169.295 284.258 168.829 283.903 168.222C283.558 167.615 283.385 166.906 283.385 166.094C283.385 165.291 283.563 164.587 283.917 163.98C284.272 163.364 284.757 162.893 285.373 162.566C285.989 162.239 286.68 162.076 287.445 162.076C288.211 162.076 288.901 162.239 289.517 162.566C290.133 162.893 290.619 163.364 290.973 163.98C291.328 164.587 291.505 165.291 291.505 166.094C291.505 166.897 291.323 167.606 290.959 168.222C290.605 168.829 290.115 169.295 289.489 169.622C288.873 169.949 288.183 170.112 287.417 170.112ZM287.417 168.04C287.875 168.04 288.262 167.872 288.579 167.536C288.906 167.2 289.069 166.719 289.069 166.094C289.069 165.469 288.911 164.988 288.593 164.652C288.285 164.316 287.903 164.148 287.445 164.148C286.979 164.148 286.591 164.316 286.283 164.652C285.975 164.979 285.821 165.459 285.821 166.094C285.821 166.719 285.971 167.2 286.269 167.536C286.577 167.872 286.96 168.04 287.417 168.04ZM303.849 162.188L301.735 170H299.089L297.857 164.932L296.583 170H293.951L291.823 162.188H294.217L295.323 167.774L296.639 162.188H299.173L300.503 167.746L301.595 162.188H303.849Z" fill="black" fill-opacity="0.6" style="mix-blend-mode:overlay"/>
<g filter="url(#filter1_b_39_452)">
<path d="M26 208H320V208C320 212.418 316.418 216 312 216H34C29.5817 216 26 212.418 26 208V208Z" fill="#C6C6C6" fill-opacity="0.1" style="mix-blend-mode:luminosity"/>
<path d="M26 208H320V208C320 212.418 316.418 216 312 216H34C29.5817 216 26 212.418 26 208V208Z" fill="white" fill-opacity="0.4"/>
<path d="M26 208H320V208C320 212.418 316.418 216 312 216H34C29.5817 216 26 212.418 26 208V208Z" fill="black" fill-opacity="0.4" style="mix-blend-mode:soft-light"/>
</g>
<g filter="url(#filter2_b_39_452)">
<path d="M38 216H308V216C308 220.418 304.418 224 300 224H46C41.5817 224 38 220.418 38 216V216Z" fill="#C6C6C6" fill-opacity="0.1" style="mix-blend-mode:luminosity"/>
<path d="M38 216H308V216C308 220.418 304.418 224 300 224H46C41.5817 224 38 220.418 38 216V216Z" fill="white" fill-opacity="0.25"/>
<path d="M38 216H308V216C308 220.418 304.418 224 300 224H46C41.5817 224 38 220.418 38 216V216Z" fill="black" fill-opacity="0.3" style="mix-blend-mode:soft-light"/>
</g>
<path d="M31.276 189.272H27.064V192.008C27.248 191.752 27.52 191.544 27.88 191.384C28.24 191.216 28.628 191.132 29.044 191.132C29.708 191.132 30.248 191.272 30.664 191.552C31.08 191.824 31.376 192.18 31.552 192.62C31.736 193.052 31.828 193.512 31.828 194C31.828 194.576 31.72 195.092 31.504 195.548C31.288 196.004 30.956 196.364 30.508 196.628C30.068 196.892 29.52 197.024 28.864 197.024C28.024 197.024 27.344 196.808 26.824 196.376C26.304 195.944 25.988 195.368 25.876 194.648H26.944C27.048 195.104 27.268 195.46 27.604 195.716C27.94 195.972 28.364 196.1 28.876 196.1C29.508 196.1 29.984 195.912 30.304 195.536C30.624 195.152 30.784 194.648 30.784 194.024C30.784 193.4 30.624 192.92 30.304 192.584C29.984 192.24 29.512 192.068 28.888 192.068C28.464 192.068 28.092 192.172 27.772 192.38C27.46 192.58 27.232 192.856 27.088 193.208H26.056V188.312H31.276V189.272ZM32.8952 195.068V194.24L37.1072 188.408H38.4152V194.12H39.6152V195.068H38.4152V197H37.3352V195.068H32.8952ZM37.3832 189.548L34.1552 194.12H37.3832V189.548ZM51.7533 190.304C52.2652 190.304 52.7212 190.412 53.1212 190.628C53.5212 190.836 53.8372 191.152 54.0692 191.576C54.3012 192 54.4173 192.516 54.4173 193.124V197H53.3372V193.28C53.3372 192.624 53.1732 192.124 52.8452 191.78C52.5252 191.428 52.0893 191.252 51.5373 191.252C50.9692 191.252 50.5172 191.436 50.1812 191.804C49.8452 192.164 49.6772 192.688 49.6772 193.376V197H48.5972V193.28C48.5972 192.624 48.4332 192.124 48.1052 191.78C47.7852 191.428 47.3492 191.252 46.7972 191.252C46.2292 191.252 45.7772 191.436 45.4412 191.804C45.1052 192.164 44.9372 192.688 44.9372 193.376V197H43.8452V190.424H44.9372V191.372C45.1532 191.028 45.4412 190.764 45.8012 190.58C46.1692 190.396 46.5732 190.304 47.0132 190.304C47.5652 190.304 48.0532 190.428 48.4772 190.676C48.9012 190.924 49.2172 191.288 49.4253 191.768C49.6092 191.304 49.9132 190.944 50.3372 190.688C50.7612 190.432 51.2332 190.304 51.7533 190.304ZM58.9565 197.108C58.3405 197.108 57.7805 196.968 57.2765 196.688C56.7805 196.408 56.3885 196.012 56.1005 195.5C55.8205 194.98 55.6805 194.38 55.6805 193.7C55.6805 193.028 55.8245 192.436 56.1125 191.924C56.4085 191.404 56.8085 191.008 57.3125 190.736C57.8165 190.456 58.3805 190.316 59.0045 190.316C59.6285 190.316 60.1925 190.456 60.6965 190.736C61.2005 191.008 61.5965 191.4 61.8845 191.912C62.1805 192.424 62.3285 193.02 62.3285 193.7C62.3285 194.38 62.1765 194.98 61.8725 195.5C61.5765 196.012 61.1725 196.408 60.6605 196.688C60.1485 196.968 59.5805 197.108 58.9565 197.108ZM58.9565 196.148C59.3485 196.148 59.7165 196.056 60.0605 195.872C60.4045 195.688 60.6805 195.412 60.8885 195.044C61.1045 194.676 61.2125 194.228 61.2125 193.7C61.2125 193.172 61.1085 192.724 60.9005 192.356C60.6925 191.988 60.4205 191.716 60.0845 191.54C59.7485 191.356 59.3845 191.264 58.9925 191.264C58.5925 191.264 58.2245 191.356 57.8885 191.54C57.5605 191.716 57.2965 191.988 57.0965 192.356C56.8965 192.724 56.7965 193.172 56.7965 193.7C56.7965 194.236 56.8925 194.688 57.0845 195.056C57.2845 195.424 57.5485 195.7 57.8765 195.884C58.2045 196.06 58.5645 196.148 58.9565 196.148ZM64.7363 191.492C64.9283 191.116 65.2003 190.824 65.5523 190.616C65.9123 190.408 66.3483 190.304 66.8603 190.304V191.432H66.5723C65.3483 191.432 64.7363 192.096 64.7363 193.424V197H63.6443V190.424H64.7363V191.492ZM74.0009 193.46C74.0009 193.668 73.9889 193.888 73.9649 194.12H68.7089C68.7489 194.768 68.9689 195.276 69.3689 195.644C69.7769 196.004 70.2689 196.184 70.8449 196.184C71.3169 196.184 71.7089 196.076 72.0209 195.86C72.3409 195.636 72.5649 195.34 72.6929 194.972H73.8689C73.6929 195.604 73.3409 196.12 72.8129 196.52C72.2849 196.912 71.6289 197.108 70.8449 197.108C70.2209 197.108 69.6609 196.968 69.1649 196.688C68.6769 196.408 68.2929 196.012 68.0129 195.5C67.7329 194.98 67.5929 194.38 67.5929 193.7C67.5929 193.02 67.7289 192.424 68.0009 191.912C68.2729 191.4 68.6529 191.008 69.1409 190.736C69.6369 190.456 70.2049 190.316 70.8449 190.316C71.4689 190.316 72.0209 190.452 72.5009 190.724C72.9809 190.996 73.3489 191.372 73.6049 191.852C73.8689 192.324 74.0009 192.86 74.0009 193.46ZM72.8729 193.232C72.8729 192.816 72.7809 192.46 72.5969 192.164C72.4129 191.86 72.1609 191.632 71.8409 191.48C71.5289 191.32 71.1809 191.24 70.7969 191.24C70.2449 191.24 69.7729 191.416 69.3809 191.768C68.9969 192.12 68.7769 192.608 68.7209 193.232H72.8729ZM81.6055 190.304C82.4055 190.304 83.0535 190.548 83.5495 191.036C84.0455 191.516 84.2935 192.212 84.2935 193.124V197H83.2135V193.28C83.2135 192.624 83.0495 192.124 82.7215 191.78C82.3935 191.428 81.9455 191.252 81.3775 191.252C80.8015 191.252 80.3415 191.432 79.9975 191.792C79.6615 192.152 79.4935 192.676 79.4935 193.364V197H78.4015V190.424H79.4935V191.36C79.7095 191.024 80.0015 190.764 80.3695 190.58C80.7455 190.396 81.1575 190.304 81.6055 190.304ZM88.8253 197.108C88.2093 197.108 87.6493 196.968 87.1453 196.688C86.6493 196.408 86.2573 196.012 85.9693 195.5C85.6893 194.98 85.5493 194.38 85.5493 193.7C85.5493 193.028 85.6933 192.436 85.9813 191.924C86.2773 191.404 86.6773 191.008 87.1813 190.736C87.6853 190.456 88.2493 190.316 88.8733 190.316C89.4973 190.316 90.0613 190.456 90.5653 190.736C91.0693 191.008 91.4653 191.4 91.7533 191.912C92.0493 192.424 92.1973 193.02 92.1973 193.7C92.1973 194.38 92.0453 194.98 91.7413 195.5C91.4453 196.012 91.0413 196.408 90.5293 196.688C90.0173 196.968 89.4493 197.108 88.8253 197.108ZM88.8253 196.148C89.2173 196.148 89.5853 196.056 89.9293 195.872C90.2733 195.688 90.5493 195.412 90.7573 195.044C90.9733 194.676 91.0813 194.228 91.0813 193.7C91.0813 193.172 90.9773 192.724 90.7693 192.356C90.5613 191.988 90.2893 191.716 89.9533 191.54C89.6173 191.356 89.2533 191.264 88.8613 191.264C88.4613 191.264 88.0933 191.356 87.7573 191.54C87.4293 191.716 87.1653 191.988 86.9653 192.356C86.7653 192.724 86.6653 193.172 86.6653 193.7C86.6653 194.236 86.7613 194.688 86.9533 195.056C87.1533 195.424 87.4173 195.7 87.7453 195.884C88.0733 196.06 88.4333 196.148 88.8253 196.148ZM94.8451 191.324V195.2C94.8451 195.52 94.9131 195.748 95.0491 195.884C95.1851 196.012 95.4211 196.076 95.7571 196.076H96.5611V197H95.5771C94.9691 197 94.5131 196.86 94.2091 196.58C93.9051 196.3 93.7531 195.84 93.7531 195.2V191.324H92.9011V190.424H93.7531V188.768H94.8451V190.424H96.5611V191.324H94.8451ZM98.3282 189.356C98.1202 189.356 97.9442 189.284 97.8002 189.14C97.6562 188.996 97.5842 188.82 97.5842 188.612C97.5842 188.404 97.6562 188.228 97.8002 188.084C97.9442 187.94 98.1202 187.868 98.3282 187.868C98.5282 187.868 98.6962 187.94 98.8322 188.084C98.9762 188.228 99.0482 188.404 99.0482 188.612C99.0482 188.82 98.9762 188.996 98.8322 189.14C98.6962 189.284 98.5282 189.356 98.3282 189.356ZM98.8562 190.424V197H97.7642V190.424H98.8562ZM103.273 191.324H101.893V197H100.801V191.324H99.9493V190.424H100.801V189.956C100.801 189.22 100.989 188.684 101.365 188.348C101.749 188.004 102.361 187.832 103.201 187.832V188.744C102.721 188.744 102.381 188.84 102.181 189.032C101.989 189.216 101.893 189.524 101.893 189.956V190.424H103.273V191.324ZM104.991 189.356C104.783 189.356 104.607 189.284 104.463 189.14C104.319 188.996 104.247 188.82 104.247 188.612C104.247 188.404 104.319 188.228 104.463 188.084C104.607 187.94 104.783 187.868 104.991 187.868C105.191 187.868 105.359 187.94 105.495 188.084C105.639 188.228 105.711 188.404 105.711 188.612C105.711 188.82 105.639 188.996 105.495 189.14C105.359 189.284 105.191 189.356 104.991 189.356ZM105.519 190.424V197H104.427V190.424H105.519ZM106.852 193.7C106.852 193.02 106.988 192.428 107.26 191.924C107.532 191.412 107.908 191.016 108.388 190.736C108.876 190.456 109.432 190.316 110.056 190.316C110.864 190.316 111.528 190.512 112.048 190.904C112.576 191.296 112.924 191.84 113.092 192.536H111.916C111.804 192.136 111.584 191.82 111.256 191.588C110.936 191.356 110.536 191.24 110.056 191.24C109.432 191.24 108.928 191.456 108.544 191.888C108.16 192.312 107.968 192.916 107.968 193.7C107.968 194.492 108.16 195.104 108.544 195.536C108.928 195.968 109.432 196.184 110.056 196.184C110.536 196.184 110.936 196.072 111.256 195.848C111.576 195.624 111.796 195.304 111.916 194.888H113.092C112.916 195.56 112.564 196.1 112.036 196.508C111.508 196.908 110.848 197.108 110.056 197.108C109.432 197.108 108.876 196.968 108.388 196.688C107.908 196.408 107.532 196.012 107.26 195.5C106.988 194.988 106.852 194.388 106.852 193.7ZM114.021 193.688C114.021 193.016 114.157 192.428 114.429 191.924C114.701 191.412 115.073 191.016 115.545 190.736C116.025 190.456 116.557 190.316 117.141 190.316C117.717 190.316 118.217 190.44 118.641 190.688C119.065 190.936 119.381 191.248 119.589 191.624V190.424H120.693V197H119.589V195.776C119.373 196.16 119.049 196.48 118.617 196.736C118.193 196.984 117.697 197.108 117.129 197.108C116.545 197.108 116.017 196.964 115.545 196.676C115.073 196.388 114.701 195.984 114.429 195.464C114.157 194.944 114.021 194.352 114.021 193.688ZM119.589 193.7C119.589 193.204 119.489 192.772 119.289 192.404C119.089 192.036 118.817 191.756 118.473 191.564C118.137 191.364 117.765 191.264 117.357 191.264C116.949 191.264 116.577 191.36 116.241 191.552C115.905 191.744 115.637 192.024 115.437 192.392C115.237 192.76 115.137 193.192 115.137 193.688C115.137 194.192 115.237 194.632 115.437 195.008C115.637 195.376 115.905 195.66 116.241 195.86C116.577 196.052 116.949 196.148 117.357 196.148C117.765 196.148 118.137 196.052 118.473 195.86C118.817 195.66 119.089 195.376 119.289 195.008C119.489 194.632 119.589 194.196 119.589 193.7ZM123.75 191.324V195.2C123.75 195.52 123.818 195.748 123.954 195.884C124.09 196.012 124.326 196.076 124.662 196.076H125.466V197H124.482C123.874 197 123.418 196.86 123.114 196.58C122.81 196.3 122.658 195.84 122.658 195.2V191.324H121.806V190.424H122.658V188.768H123.75V190.424H125.466V191.324H123.75ZM127.233 189.356C127.025 189.356 126.849 189.284 126.705 189.14C126.561 188.996 126.489 188.82 126.489 188.612C126.489 188.404 126.561 188.228 126.705 188.084C126.849 187.94 127.025 187.868 127.233 187.868C127.433 187.868 127.601 187.94 127.737 188.084C127.881 188.228 127.953 188.404 127.953 188.612C127.953 188.82 127.881 188.996 127.737 189.14C127.601 189.284 127.433 189.356 127.233 189.356ZM127.761 190.424V197H126.669V190.424H127.761ZM132.37 197.108C131.754 197.108 131.194 196.968 130.69 196.688C130.194 196.408 129.802 196.012 129.514 195.5C129.234 194.98 129.094 194.38 129.094 193.7C129.094 193.028 129.238 192.436 129.526 191.924C129.822 191.404 130.222 191.008 130.726 190.736C131.23 190.456 131.794 190.316 132.418 190.316C133.042 190.316 133.606 190.456 134.11 190.736C134.614 191.008 135.01 191.4 135.298 191.912C135.594 192.424 135.742 193.02 135.742 193.7C135.742 194.38 135.59 194.98 135.286 195.5C134.99 196.012 134.586 196.408 134.074 196.688C133.562 196.968 132.994 197.108 132.37 197.108ZM132.37 196.148C132.762 196.148 133.13 196.056 133.474 195.872C133.818 195.688 134.094 195.412 134.302 195.044C134.518 194.676 134.626 194.228 134.626 193.7C134.626 193.172 134.522 192.724 134.314 192.356C134.106 191.988 133.834 191.716 133.498 191.54C133.162 191.356 132.798 191.264 132.406 191.264C132.006 191.264 131.638 191.356 131.302 191.54C130.974 191.716 130.71 191.988 130.51 192.356C130.31 192.724 130.21 193.172 130.21 193.7C130.21 194.236 130.306 194.688 130.498 195.056C130.698 195.424 130.962 195.7 131.29 195.884C131.618 196.06 131.978 196.148 132.37 196.148ZM140.262 190.304C141.062 190.304 141.71 190.548 142.206 191.036C142.702 191.516 142.95 192.212 142.95 193.124V197H141.87V193.28C141.87 192.624 141.706 192.124 141.378 191.78C141.05 191.428 140.602 191.252 140.034 191.252C139.458 191.252 138.998 191.432 138.654 191.792C138.318 192.152 138.15 192.676 138.15 193.364V197H137.058V190.424H138.15V191.36C138.366 191.024 138.658 190.764 139.026 190.58C139.402 190.396 139.814 190.304 140.262 190.304ZM146.942 197.108C146.438 197.108 145.986 197.024 145.586 196.856C145.186 196.68 144.87 196.44 144.638 196.136C144.406 195.824 144.278 195.468 144.254 195.068H145.382C145.414 195.396 145.566 195.664 145.838 195.872C146.118 196.08 146.482 196.184 146.93 196.184C147.346 196.184 147.674 196.092 147.914 195.908C148.154 195.724 148.274 195.492 148.274 195.212C148.274 194.924 148.146 194.712 147.89 194.576C147.634 194.432 147.238 194.292 146.702 194.156C146.214 194.028 145.814 193.9 145.502 193.772C145.198 193.636 144.934 193.44 144.71 193.184C144.494 192.92 144.386 192.576 144.386 192.152C144.386 191.816 144.486 191.508 144.686 191.228C144.886 190.948 145.17 190.728 145.538 190.568C145.906 190.4 146.326 190.316 146.798 190.316C147.526 190.316 148.114 190.5 148.562 190.868C149.01 191.236 149.25 191.74 149.282 192.38H148.19C148.166 192.036 148.026 191.76 147.77 191.552C147.522 191.344 147.186 191.24 146.762 191.24C146.37 191.24 146.058 191.324 145.826 191.492C145.594 191.66 145.478 191.88 145.478 192.152C145.478 192.368 145.546 192.548 145.682 192.692C145.826 192.828 146.002 192.94 146.21 193.028C146.426 193.108 146.722 193.2 147.098 193.304C147.57 193.432 147.954 193.56 148.25 193.688C148.546 193.808 148.798 193.992 149.006 194.24C149.222 194.488 149.334 194.812 149.342 195.212C149.342 195.572 149.242 195.896 149.042 196.184C148.842 196.472 148.558 196.7 148.19 196.868C147.83 197.028 147.414 197.108 146.942 197.108Z" fill="black" fill-opacity="0.2"/>
<path d="M31.276 189.272H27.064V192.008C27.248 191.752 27.52 191.544 27.88 191.384C28.24 191.216 28.628 191.132 29.044 191.132C29.708 191.132 30.248 191.272 30.664 191.552C31.08 191.824 31.376 192.18 31.552 192.62C31.736 193.052 31.828 193.512 31.828 194C31.828 194.576 31.72 195.092 31.504 195.548C31.288 196.004 30.956 196.364 30.508 196.628C30.068 196.892 29.52 197.024 28.864 197.024C28.024 197.024 27.344 196.808 26.824 196.376C26.304 195.944 25.988 195.368 25.876 194.648H26.944C27.048 195.104 27.268 195.46 27.604 195.716C27.94 195.972 28.364 196.1 28.876 196.1C29.508 196.1 29.984 195.912 30.304 195.536C30.624 195.152 30.784 194.648 30.784 194.024C30.784 193.4 30.624 192.92 30.304 192.584C29.984 192.24 29.512 192.068 28.888 192.068C28.464 192.068 28.092 192.172 27.772 192.38C27.46 192.58 27.232 192.856 27.088 193.208H26.056V188.312H31.276V189.272ZM32.8952 195.068V194.24L37.1072 188.408H38.4152V194.12H39.6152V195.068H38.4152V197H37.3352V195.068H32.8952ZM37.3832 189.548L34.1552 194.12H37.3832V189.548ZM51.7533 190.304C52.2652 190.304 52.7212 190.412 53.1212 190.628C53.5212 190.836 53.8372 191.152 54.0692 191.576C54.3012 192 54.4173 192.516 54.4173 193.124V197H53.3372V193.28C53.3372 192.624 53.1732 192.124 52.8452 191.78C52.5252 191.428 52.0893 191.252 51.5373 191.252C50.9692 191.252 50.5172 191.436 50.1812 191.804C49.8452 192.164 49.6772 192.688 49.6772 193.376V197H48.5972V193.28C48.5972 192.624 48.4332 192.124 48.1052 191.78C47.7852 191.428 47.3492 191.252 46.7972 191.252C46.2292 191.252 45.7772 191.436 45.4412 191.804C45.1052 192.164 44.9372 192.688 44.9372 193.376V197H43.8452V190.424H44.9372V191.372C45.1532 191.028 45.4412 190.764 45.8012 190.58C46.1692 190.396 46.5732 190.304 47.0132 190.304C47.5652 190.304 48.0532 190.428 48.4772 190.676C48.9012 190.924 49.2172 191.288 49.4253 191.768C49.6092 191.304 49.9132 190.944 50.3372 190.688C50.7612 190.432 51.2332 190.304 51.7533 190.304ZM58.9565 197.108C58.3405 197.108 57.7805 196.968 57.2765 196.688C56.7805 196.408 56.3885 196.012 56.1005 195.5C55.8205 194.98 55.6805 194.38 55.6805 193.7C55.6805 193.028 55.8245 192.436 56.1125 191.924C56.4085 191.404 56.8085 191.008 57.3125 190.736C57.8165 190.456 58.3805 190.316 59.0045 190.316C59.6285 190.316 60.1925 190.456 60.6965 190.736C61.2005 191.008 61.5965 191.4 61.8845 191.912C62.1805 192.424 62.3285 193.02 62.3285 193.7C62.3285 194.38 62.1765 194.98 61.8725 195.5C61.5765 196.012 61.1725 196.408 60.6605 196.688C60.1485 196.968 59.5805 197.108 58.9565 197.108ZM58.9565 196.148C59.3485 196.148 59.7165 196.056 60.0605 195.872C60.4045 195.688 60.6805 195.412 60.8885 195.044C61.1045 194.676 61.2125 194.228 61.2125 193.7C61.2125 193.172 61.1085 192.724 60.9005 192.356C60.6925 191.988 60.4205 191.716 60.0845 191.54C59.7485 191.356 59.3845 191.264 58.9925 191.264C58.5925 191.264 58.2245 191.356 57.8885 191.54C57.5605 191.716 57.2965 191.988 57.0965 192.356C56.8965 192.724 56.7965 193.172 56.7965 193.7C56.7965 194.236 56.8925 194.688 57.0845 195.056C57.2845 195.424 57.5485 195.7 57.8765 195.884C58.2045 196.06 58.5645 196.148 58.9565 196.148ZM64.7363 191.492C64.9283 191.116 65.2003 190.824 65.5523 190.616C65.9123 190.408 66.3483 190.304 66.8603 190.304V191.432H66.5723C65.3483 191.432 64.7363 192.096 64.7363 193.424V197H63.6443V190.424H64.7363V191.492ZM74.0009 193.46C74.0009 193.668 73.9889 193.888 73.9649 194.12H68.7089C68.7489 194.768 68.9689 195.276 69.3689 195.644C69.7769 196.004 70.2689 196.184 70.8449 196.184C71.3169 196.184 71.7089 196.076 72.0209 195.86C72.3409 195.636 72.5649 195.34 72.6929 194.972H73.8689C73.6929 195.604 73.3409 196.12 72.8129 196.52C72.2849 196.912 71.6289 197.108 70.8449 197.108C70.2209 197.108 69.6609 196.968 69.1649 196.688C68.6769 196.408 68.2929 196.012 68.0129 195.5C67.7329 194.98 67.5929 194.38 67.5929 193.7C67.5929 193.02 67.7289 192.424 68.0009 191.912C68.2729 191.4 68.6529 191.008 69.1409 190.736C69.6369 190.456 70.2049 190.316 70.8449 190.316C71.4689 190.316 72.0209 190.452 72.5009 190.724C72.9809 190.996 73.3489 191.372 73.6049 191.852C73.8689 192.324 74.0009 192.86 74.0009 193.46ZM72.8729 193.232C72.8729 192.816 72.7809 192.46 72.5969 192.164C72.4129 191.86 72.1609 191.632 71.8409 191.48C71.5289 191.32 71.1809 191.24 70.7969 191.24C70.2449 191.24 69.7729 191.416 69.3809 191.768C68.9969 192.12 68.7769 192.608 68.7209 193.232H72.8729ZM81.6055 190.304C82.4055 190.304 83.0535 190.548 83.5495 191.036C84.0455 191.516 84.2935 192.212 84.2935 193.124V197H83.2135V193.28C83.2135 192.624 83.0495 192.124 82.7215 191.78C82.3935 191.428 81.9455 191.252 81.3775 191.252C80.8015 191.252 80.3415 191.432 79.9975 191.792C79.6615 192.152 79.4935 192.676 79.4935 193.364V197H78.4015V190.424H79.4935V191.36C79.7095 191.024 80.0015 190.764 80.3695 190.58C80.7455 190.396 81.1575 190.304 81.6055 190.304ZM88.8253 197.108C88.2093 197.108 87.6493 196.968 87.1453 196.688C86.6493 196.408 86.2573 196.012 85.9693 195.5C85.6893 194.98 85.5493 194.38 85.5493 193.7C85.5493 193.028 85.6933 192.436 85.9813 191.924C86.2773 191.404 86.6773 191.008 87.1813 190.736C87.6853 190.456 88.2493 190.316 88.8733 190.316C89.4973 190.316 90.0613 190.456 90.5653 190.736C91.0693 191.008 91.4653 191.4 91.7533 191.912C92.0493 192.424 92.1973 193.02 92.1973 193.7C92.1973 194.38 92.0453 194.98 91.7413 195.5C91.4453 196.012 91.0413 196.408 90.5293 196.688C90.0173 196.968 89.4493 197.108 88.8253 197.108ZM88.8253 196.148C89.2173 196.148 89.5853 196.056 89.9293 195.872C90.2733 195.688 90.5493 195.412 90.7573 195.044C90.9733 194.676 91.0813 194.228 91.0813 193.7C91.0813 193.172 90.9773 192.724 90.7693 192.356C90.5613 191.988 90.2893 191.716 89.9533 191.54C89.6173 191.356 89.2533 191.264 88.8613 191.264C88.4613 191.264 88.0933 191.356 87.7573 191.54C87.4293 191.716 87.1653 191.988 86.9653 192.356C86.7653 192.724 86.6653 193.172 86.6653 193.7C86.6653 194.236 86.7613 194.688 86.9533 195.056C87.1533 195.424 87.4173 195.7 87.7453 195.884C88.0733 196.06 88.4333 196.148 88.8253 196.148ZM94.8451 191.324V195.2C94.8451 195.52 94.9131 195.748 95.0491 195.884C95.1851 196.012 95.4211 196.076 95.7571 196.076H96.5611V197H95.5771C94.9691 197 94.5131 196.86 94.2091 196.58C93.9051 196.3 93.7531 195.84 93.7531 195.2V191.324H92.9011V190.424H93.7531V188.768H94.8451V190.424H96.5611V191.324H94.8451ZM98.3282 189.356C98.1202 189.356 97.9442 189.284 97.8002 189.14C97.6562 188.996 97.5842 188.82 97.5842 188.612C97.5842 188.404 97.6562 188.228 97.8002 188.084C97.9442 187.94 98.1202 187.868 98.3282 187.868C98.5282 187.868 98.6962 187.94 98.8322 188.084C98.9762 188.228 99.0482 188.404 99.0482 188.612C99.0482 188.82 98.9762 188.996 98.8322 189.14C98.6962 189.284 98.5282 189.356 98.3282 189.356ZM98.8562 190.424V197H97.7642V190.424H98.8562ZM103.273 191.324H101.893V197H100.801V191.324H99.9493V190.424H100.801V189.956C100.801 189.22 100.989 188.684 101.365 188.348C101.749 188.004 102.361 187.832 103.201 187.832V188.744C102.721 188.744 102.381 188.84 102.181 189.032C101.989 189.216 101.893 189.524 101.893 189.956V190.424H103.273V191.324ZM104.991 189.356C104.783 189.356 104.607 189.284 104.463 189.14C104.319 188.996 104.247 188.82 104.247 188.612C104.247 188.404 104.319 188.228 104.463 188.084C104.607 187.94 104.783 187.868 104.991 187.868C105.191 187.868 105.359 187.94 105.495 188.084C105.639 188.228 105.711 188.404 105.711 188.612C105.711 188.82 105.639 188.996 105.495 189.14C105.359 189.284 105.191 189.356 104.991 189.356ZM105.519 190.424V197H104.427V190.424H105.519ZM106.852 193.7C106.852 193.02 106.988 192.428 107.26 191.924C107.532 191.412 107.908 191.016 108.388 190.736C108.876 190.456 109.432 190.316 110.056 190.316C110.864 190.316 111.528 190.512 112.048 190.904C112.576 191.296 112.924 191.84 113.092 192.536H111.916C111.804 192.136 111.584 191.82 111.256 191.588C110.936 191.356 110.536 191.24 110.056 191.24C109.432 191.24 108.928 191.456 108.544 191.888C108.16 192.312 107.968 192.916 107.968 193.7C107.968 194.492 108.16 195.104 108.544 195.536C108.928 195.968 109.432 196.184 110.056 196.184C110.536 196.184 110.936 196.072 111.256 195.848C111.576 195.624 111.796 195.304 111.916 194.888H113.092C112.916 195.56 112.564 196.1 112.036 196.508C111.508 196.908 110.848 197.108 110.056 197.108C109.432 197.108 108.876 196.968 108.388 196.688C107.908 196.408 107.532 196.012 107.26 195.5C106.988 194.988 106.852 194.388 106.852 193.7ZM114.021 193.688C114.021 193.016 114.157 192.428 114.429 191.924C114.701 191.412 115.073 191.016 115.545 190.736C116.025 190.456 116.557 190.316 117.141 190.316C117.717 190.316 118.217 190.44 118.641 190.688C119.065 190.936 119.381 191.248 119.589 191.624V190.424H120.693V197H119.589V195.776C119.373 196.16 119.049 196.48 118.617 196.736C118.193 196.984 117.697 197.108 117.129 197.108C116.545 197.108 116.017 196.964 115.545 196.676C115.073 196.388 114.701 195.984 114.429 195.464C114.157 194.944 114.021 194.352 114.021 193.688ZM119.589 193.7C119.589 193.204 119.489 192.772 119.289 192.404C119.089 192.036 118.817 191.756 118.473 191.564C118.137 191.364 117.765 191.264 117.357 191.264C116.949 191.264 116.577 191.36 116.241 191.552C115.905 191.744 115.637 192.024 115.437 192.392C115.237 192.76 115.137 193.192 115.137 193.688C115.137 194.192 115.237 194.632 115.437 195.008C115.637 195.376 115.905 195.66 116.241 195.86C116.577 196.052 116.949 196.148 117.357 196.148C117.765 196.148 118.137 196.052 118.473 195.86C118.817 195.66 119.089 195.376 119.289 195.008C119.489 194.632 119.589 194.196 119.589 193.7ZM123.75 191.324V195.2C123.75 195.52 123.818 195.748 123.954 195.884C124.09 196.012 124.326 196.076 124.662 196.076H125.466V197H124.482C123.874 197 123.418 196.86 123.114 196.58C122.81 196.3 122.658 195.84 122.658 195.2V191.324H121.806V190.424H122.658V188.768H123.75V190.424H125.466V191.324H123.75ZM127.233 189.356C127.025 189.356 126.849 189.284 126.705 189.14C126.561 188.996 126.489 188.82 126.489 188.612C126.489 188.404 126.561 188.228 126.705 188.084C126.849 187.94 127.025 187.868 127.233 187.868C127.433 187.868 127.601 187.94 127.737 188.084C127.881 188.228 127.953 188.404 127.953 188.612C127.953 188.82 127.881 188.996 127.737 189.14C127.601 189.284 127.433 189.356 127.233 189.356ZM127.761 190.424V197H126.669V190.424H127.761ZM132.37 197.108C131.754 197.108 131.194 196.968 130.69 196.688C130.194 196.408 129.802 196.012 129.514 195.5C129.234 194.98 129.094 194.38 129.094 193.7C129.094 193.028 129.238 192.436 129.526 191.924C129.822 191.404 130.222 191.008 130.726 190.736C131.23 190.456 131.794 190.316 132.418 190.316C133.042 190.316 133.606 190.456 134.11 190.736C134.614 191.008 135.01 191.4 135.298 191.912C135.594 192.424 135.742 193.02 135.742 193.7C135.742 194.38 135.59 194.98 135.286 195.5C134.99 196.012 134.586 196.408 134.074 196.688C133.562 196.968 132.994 197.108 132.37 197.108ZM132.37 196.148C132.762 196.148 133.13 196.056 133.474 195.872C133.818 195.688 134.094 195.412 134.302 195.044C134.518 194.676 134.626 194.228 134.626 193.7C134.626 193.172 134.522 192.724 134.314 192.356C134.106 191.988 133.834 191.716 133.498 191.54C133.162 191.356 132.798 191.264 132.406 191.264C132.006 191.264 131.638 191.356 131.302 191.54C130.974 191.716 130.71 191.988 130.51 192.356C130.31 192.724 130.21 193.172 130.21 193.7C130.21 194.236 130.306 194.688 130.498 195.056C130.698 195.424 130.962 195.7 131.29 195.884C131.618 196.06 131.978 196.148 132.37 196.148ZM140.262 190.304C141.062 190.304 141.71 190.548 142.206 191.036C142.702 191.516 142.95 192.212 142.95 193.124V197H141.87V193.28C141.87 192.624 141.706 192.124 141.378 191.78C141.05 191.428 140.602 191.252 140.034 191.252C139.458 191.252 138.998 191.432 138.654 191.792C138.318 192.152 138.15 192.676 138.15 193.364V197H137.058V190.424H138.15V191.36C138.366 191.024 138.658 190.764 139.026 190.58C139.402 190.396 139.814 190.304 140.262 190.304ZM146.942 197.108C146.438 197.108 145.986 197.024 145.586 196.856C145.186 196.68 144.87 196.44 144.638 196.136C144.406 195.824 144.278 195.468 144.254 195.068H145.382C145.414 195.396 145.566 195.664 145.838 195.872C146.118 196.08 146.482 196.184 146.93 196.184C147.346 196.184 147.674 196.092 147.914 195.908C148.154 195.724 148.274 195.492 148.274 195.212C148.274 194.924 148.146 194.712 147.89 194.576C147.634 194.432 147.238 194.292 146.702 194.156C146.214 194.028 145.814 193.9 145.502 193.772C145.198 193.636 144.934 193.44 144.71 193.184C144.494 192.92 144.386 192.576 144.386 192.152C144.386 191.816 144.486 191.508 144.686 191.228C144.886 190.948 145.17 190.728 145.538 190.568C145.906 190.4 146.326 190.316 146.798 190.316C147.526 190.316 148.114 190.5 148.562 190.868C149.01 191.236 149.25 191.74 149.282 192.38H148.19C148.166 192.036 148.026 191.76 147.77 191.552C147.522 191.344 147.186 191.24 146.762 191.24C146.37 191.24 146.058 191.324 145.826 191.492C145.594 191.66 145.478 191.88 145.478 192.152C145.478 192.368 145.546 192.548 145.682 192.692C145.826 192.828 146.002 192.94 146.21 193.028C146.426 193.108 146.722 193.2 147.098 193.304C147.57 193.432 147.954 193.56 148.25 193.688C148.546 193.808 148.798 193.992 149.006 194.24C149.222 194.488 149.334 194.812 149.342 195.212C149.342 195.572 149.242 195.896 149.042 196.184C148.842 196.472 148.558 196.7 148.19 196.868C147.83 197.028 147.414 197.108 146.942 197.108Z" fill="black" fill-opacity="0.36" style="mix-blend-mode:overlay"/>
</g>
<defs>
<filter id="filter0_b_39_452" x="-77" y="27" width="500" height="287" filterUnits="userSpaceOnUse" color-interpolation-filters="sRGB">
<feFlood flood-opacity="0" result="BackgroundImageFix"/>
<feGaussianBlur in="BackgroundImageFix" stdDeviation="45"/>
<feComposite in2="SourceAlpha" operator="in" result="effect1_backgroundBlur_39_452"/>
<feBlend mode="normal" in="SourceGraphic" in2="effect1_backgroundBlur_39_452" result="shape"/>
</filter>
<filter id="filter1_b_39_452" x="-48" y="134" width="442" height="156" filterUnits="userSpaceOnUse" color-interpolation-filters="sRGB">
<feFlood flood-opacity="0" result="BackgroundImageFix"/>
<feGaussianBlur in="BackgroundImageFix" stdDeviation="37"/>
<feComposite in2="SourceAlpha" operator="in" result="effect1_backgroundBlur_39_452"/>
<feBlend mode="normal" in="SourceGraphic" in2="effect1_backgroundBlur_39_452" result="shape"/>
</filter>
<filter id="filter2_b_39_452" x="-36" y="142" width="418" height="156" filterUnits="userSpaceOnUse" color-interpolation-filters="sRGB">
<feFlood flood-opacity="0" result="BackgroundImageFix"/>
<feGaussianBlur in="BackgroundImageFix" stdDeviation="37"/>
<feComposite in2="SourceAlpha" operator="in" result="effect1_backgroundBlur_39_452"/>
<feBlend mode="normal" in="SourceGraphic" in2="effect1_backgroundBlur_39_452" result="shape"/>
</filter>
<clipPath id="clip0_39_452">
<rect width="20" height="20" fill="white" transform="translate(23 127)"/>
</clipPath>
</defs>
</svg>
