<svg width="345" height="255" viewBox="0 0 345 255" fill="none" xmlns="http://www.w3.org/2000/svg">
<g clip-path="url(#clip0_39_438)">
<rect width="345" height="255" rx="33" fill="#333333"/>
<path d="M33.94 77.21C32.56 77.21 31.32 76.97 30.22 76.49C29.14 75.99 28.29 75.31 27.67 74.45C27.05 73.57 26.73 72.56 26.71 71.42H29.62C29.72 72.4 30.12 73.23 30.82 73.91C31.54 74.57 32.58 74.9 33.94 74.9C35.24 74.9 36.26 74.58 37 73.94C37.76 73.28 38.14 72.44 38.14 71.42C38.14 70.62 37.92 69.97 37.48 69.47C37.04 68.97 36.49 68.59 35.83 68.33C35.17 68.07 34.28 67.79 33.16 67.49C31.78 67.13 30.67 66.77 29.83 66.41C29.01 66.05 28.3 65.49 27.7 64.73C27.12 63.95 26.83 62.91 26.83 61.61C26.83 60.47 27.12 59.46 27.7 58.58C28.28 57.7 29.09 57.02 30.13 56.54C31.19 56.06 32.4 55.82 33.76 55.82C35.72 55.82 37.32 56.31 38.56 57.29C39.82 58.27 40.53 59.57 40.69 61.19H37.69C37.59 60.39 37.17 59.69 36.43 59.09C35.69 58.47 34.71 58.16 33.49 58.16C32.35 58.16 31.42 58.46 30.7 59.06C29.98 59.64 29.62 60.46 29.62 61.52C29.62 62.28 29.83 62.9 30.25 63.38C30.69 63.86 31.22 64.23 31.84 64.49C32.48 64.73 33.37 65.01 34.51 65.33C35.89 65.71 37 66.09 37.84 66.47C38.68 66.83 39.4 67.4 40 68.18C40.6 68.94 40.9 69.98 40.9 71.3C40.9 72.32 40.63 73.28 40.09 74.18C39.55 75.08 38.75 75.81 37.69 76.37C36.63 76.93 35.38 77.21 33.94 77.21ZM66.1274 56.24V77H63.3974V61.52L56.4974 77H54.5774L47.6474 61.49V77H44.9174V56.24H47.8574L55.5374 73.4L63.2174 56.24H66.1274ZM77.3873 77.21C76.0073 77.21 74.7673 76.97 73.6673 76.49C72.5873 75.99 71.7373 75.31 71.1173 74.45C70.4973 73.57 70.1773 72.56 70.1573 71.42H73.0673C73.1673 72.4 73.5673 73.23 74.2673 73.91C74.9873 74.57 76.0273 74.9 77.3873 74.9C78.6873 74.9 79.7073 74.58 80.4473 73.94C81.2073 73.28 81.5873 72.44 81.5873 71.42C81.5873 70.62 81.3673 69.97 80.9273 69.47C80.4873 68.97 79.9373 68.59 79.2773 68.33C78.6173 68.07 77.7273 67.79 76.6073 67.49C75.2273 67.13 74.1173 66.77 73.2773 66.41C72.4573 66.05 71.7473 65.49 71.1473 64.73C70.5673 63.95 70.2773 62.91 70.2773 61.61C70.2773 60.47 70.5673 59.46 71.1473 58.58C71.7273 57.7 72.5373 57.02 73.5773 56.54C74.6373 56.06 75.8473 55.82 77.2073 55.82C79.1673 55.82 80.7673 56.31 82.0073 57.29C83.2673 58.27 83.9773 59.57 84.1373 61.19H81.1373C81.0373 60.39 80.6173 59.69 79.8773 59.09C79.1373 58.47 78.1573 58.16 76.9373 58.16C75.7973 58.16 74.8673 58.46 74.1473 59.06C73.4273 59.64 73.0673 60.46 73.0673 61.52C73.0673 62.28 73.2773 62.9 73.6973 63.38C74.1373 63.86 74.6673 64.23 75.2873 64.49C75.9273 64.73 76.8173 65.01 77.9573 65.33C79.3373 65.71 80.4473 66.09 81.2873 66.47C82.1273 66.83 82.8473 67.4 83.4473 68.18C84.0473 68.94 84.3473 69.98 84.3473 71.3C84.3473 72.32 84.0773 73.28 83.5373 74.18C82.9973 75.08 82.1973 75.81 81.1373 76.37C80.0773 76.93 78.8273 77.21 77.3873 77.21Z" fill="white"/>
<path d="M187.395 134.355L184.865 139.228V142H183.611V139.228L181.07 134.355H182.467L184.238 138.106L186.009 134.355H187.395ZM194.005 138.821C194.005 139.048 193.991 139.254 193.961 139.437H189.33C189.367 139.921 189.547 140.31 189.869 140.603C190.192 140.896 190.588 141.043 191.057 141.043C191.732 141.043 192.209 140.761 192.487 140.196H193.84C193.657 140.753 193.323 141.212 192.839 141.571C192.363 141.923 191.769 142.099 191.057 142.099C190.478 142.099 189.957 141.971 189.495 141.714C189.041 141.45 188.681 141.083 188.417 140.614C188.161 140.137 188.032 139.587 188.032 138.964C188.032 138.341 188.157 137.794 188.406 137.325C188.663 136.848 189.019 136.482 189.473 136.225C189.935 135.968 190.463 135.84 191.057 135.84C191.629 135.84 192.139 135.965 192.586 136.214C193.034 136.463 193.382 136.815 193.631 137.27C193.881 137.717 194.005 138.234 194.005 138.821ZM192.696 138.425C192.689 137.963 192.524 137.593 192.201 137.314C191.879 137.035 191.479 136.896 191.002 136.896C190.57 136.896 190.199 137.035 189.891 137.314C189.583 137.585 189.4 137.956 189.341 138.425H192.696ZM197.499 142.099C197.023 142.099 196.594 142.015 196.212 141.846C195.838 141.67 195.541 141.435 195.321 141.142C195.101 140.841 194.984 140.508 194.969 140.141H196.267C196.289 140.398 196.41 140.614 196.63 140.79C196.858 140.959 197.14 141.043 197.477 141.043C197.829 141.043 198.101 140.977 198.291 140.845C198.489 140.706 198.588 140.53 198.588 140.317C198.588 140.09 198.478 139.921 198.258 139.811C198.046 139.701 197.705 139.58 197.235 139.448C196.781 139.323 196.41 139.202 196.124 139.085C195.838 138.968 195.589 138.788 195.376 138.546C195.171 138.304 195.068 137.985 195.068 137.589C195.068 137.266 195.164 136.973 195.354 136.709C195.545 136.438 195.816 136.225 196.168 136.071C196.528 135.917 196.938 135.84 197.4 135.84C198.09 135.84 198.643 136.016 199.061 136.368C199.487 136.713 199.714 137.186 199.743 137.787H198.489C198.467 137.516 198.357 137.299 198.159 137.138C197.961 136.977 197.694 136.896 197.356 136.896C197.026 136.896 196.773 136.958 196.597 137.083C196.421 137.208 196.333 137.373 196.333 137.578C196.333 137.739 196.392 137.875 196.509 137.985C196.627 138.095 196.77 138.183 196.938 138.249C197.107 138.308 197.356 138.385 197.686 138.48C198.126 138.597 198.486 138.718 198.764 138.843C199.05 138.96 199.296 139.136 199.501 139.371C199.707 139.606 199.813 139.917 199.82 140.306C199.82 140.651 199.725 140.959 199.534 141.23C199.344 141.501 199.072 141.714 198.72 141.868C198.376 142.022 197.969 142.099 197.499 142.099ZM202.698 136.962V140.317C202.698 140.544 202.75 140.709 202.852 140.812C202.962 140.907 203.146 140.955 203.402 140.955H204.172V142H203.182C202.618 142 202.185 141.868 201.884 141.604C201.584 141.34 201.433 140.911 201.433 140.317V136.962H200.718V135.939H201.433V134.432H202.698V135.939H204.172V136.962H202.698ZM210.943 138.821C210.943 139.048 210.928 139.254 210.899 139.437H206.268C206.305 139.921 206.484 140.31 206.807 140.603C207.13 140.896 207.526 141.043 207.995 141.043C208.67 141.043 209.146 140.761 209.425 140.196H210.778C210.595 140.753 210.261 141.212 209.777 141.571C209.3 141.923 208.706 142.099 207.995 142.099C207.416 142.099 206.895 141.971 206.433 141.714C205.978 141.45 205.619 141.083 205.355 140.614C205.098 140.137 204.97 139.587 204.97 138.964C204.97 138.341 205.095 137.794 205.344 137.325C205.601 136.848 205.956 136.482 206.411 136.225C206.873 135.968 207.401 135.84 207.995 135.84C208.567 135.84 209.077 135.965 209.524 136.214C209.971 136.463 210.32 136.815 210.569 137.27C210.818 137.717 210.943 138.234 210.943 138.821ZM209.634 138.425C209.627 137.963 209.462 137.593 209.139 137.314C208.816 137.035 208.417 136.896 207.94 136.896C207.507 136.896 207.137 137.035 206.829 137.314C206.521 137.585 206.338 137.956 206.279 138.425H209.634ZM213.491 136.819C213.674 136.511 213.916 136.273 214.217 136.104C214.525 135.928 214.888 135.84 215.306 135.84V137.138H214.987C214.496 137.138 214.122 137.263 213.865 137.512C213.616 137.761 213.491 138.194 213.491 138.81V142H212.237V135.939H213.491V136.819ZM216.101 138.942C216.101 138.333 216.225 137.794 216.475 137.325C216.731 136.856 217.076 136.493 217.509 136.236C217.949 135.972 218.436 135.84 218.972 135.84C219.368 135.84 219.756 135.928 220.138 136.104C220.526 136.273 220.834 136.5 221.062 136.786V133.86H222.327V142H221.062V141.087C220.856 141.38 220.57 141.622 220.204 141.813C219.844 142.004 219.43 142.099 218.961 142.099C218.433 142.099 217.949 141.967 217.509 141.703C217.076 141.432 216.731 141.058 216.475 140.581C216.225 140.097 216.101 139.551 216.101 138.942ZM221.062 138.964C221.062 138.546 220.974 138.183 220.798 137.875C220.629 137.567 220.405 137.332 220.127 137.171C219.848 137.01 219.547 136.929 219.225 136.929C218.902 136.929 218.601 137.01 218.323 137.171C218.044 137.325 217.817 137.556 217.641 137.864C217.472 138.165 217.388 138.524 217.388 138.942C217.388 139.36 217.472 139.727 217.641 140.042C217.817 140.357 218.044 140.599 218.323 140.768C218.609 140.929 218.909 141.01 219.225 141.01C219.547 141.01 219.848 140.929 220.127 140.768C220.405 140.607 220.629 140.372 220.798 140.064C220.974 139.749 221.062 139.382 221.062 138.964ZM223.616 138.942C223.616 138.333 223.741 137.794 223.99 137.325C224.247 136.856 224.591 136.493 225.024 136.236C225.464 135.972 225.948 135.84 226.476 135.84C226.953 135.84 227.367 135.935 227.719 136.126C228.078 136.309 228.364 136.54 228.577 136.819V135.939H229.842V142H228.577V141.098C228.364 141.384 228.075 141.622 227.708 141.813C227.341 142.004 226.923 142.099 226.454 142.099C225.933 142.099 225.457 141.967 225.024 141.703C224.591 141.432 224.247 141.058 223.99 140.581C223.741 140.097 223.616 139.551 223.616 138.942ZM228.577 138.964C228.577 138.546 228.489 138.183 228.313 137.875C228.144 137.567 227.921 137.332 227.642 137.171C227.363 137.01 227.063 136.929 226.74 136.929C226.417 136.929 226.117 137.01 225.838 137.171C225.559 137.325 225.332 137.556 225.156 137.864C224.987 138.165 224.903 138.524 224.903 138.942C224.903 139.36 224.987 139.727 225.156 140.042C225.332 140.357 225.559 140.599 225.838 140.768C226.124 140.929 226.425 141.01 226.74 141.01C227.063 141.01 227.363 140.929 227.642 140.768C227.921 140.607 228.144 140.372 228.313 140.064C228.489 139.749 228.577 139.382 228.577 138.964ZM237.005 135.939L233.287 144.849H231.989L233.221 141.901L230.834 135.939H232.231L233.936 140.559L235.707 135.939H237.005ZM242.154 139.866C242.227 140.284 242.396 140.607 242.66 140.834C242.931 141.061 243.294 141.175 243.749 141.175C244.358 141.175 244.805 140.937 245.091 140.46C245.384 139.983 245.524 139.18 245.509 138.051C245.355 138.381 245.098 138.641 244.739 138.832C244.38 139.015 243.98 139.107 243.54 139.107C243.049 139.107 242.609 139.008 242.22 138.81C241.839 138.605 241.538 138.308 241.318 137.919C241.098 137.53 240.988 137.061 240.988 136.511C240.988 135.726 241.215 135.096 241.67 134.619C242.125 134.135 242.77 133.893 243.606 133.893C244.633 133.893 245.351 134.227 245.762 134.894C246.18 135.561 246.389 136.555 246.389 137.875C246.389 138.799 246.305 139.562 246.136 140.163C245.975 140.764 245.696 141.223 245.3 141.538C244.911 141.853 244.376 142.011 243.694 142.011C242.946 142.011 242.363 141.809 241.945 141.406C241.527 141.003 241.289 140.489 241.23 139.866H242.154ZM243.705 138.26C244.196 138.26 244.6 138.11 244.915 137.809C245.23 137.501 245.388 137.087 245.388 136.566C245.388 136.016 245.234 135.572 244.926 135.235C244.618 134.898 244.185 134.729 243.628 134.729C243.115 134.729 242.704 134.89 242.396 135.213C242.095 135.536 241.945 135.961 241.945 136.489C241.945 137.024 242.095 137.453 242.396 137.776C242.697 138.099 243.133 138.26 243.705 138.26ZM248.346 142.066C248.155 142.066 247.994 142 247.862 141.868C247.73 141.736 247.664 141.575 247.664 141.384C247.664 141.193 247.73 141.032 247.862 140.9C247.994 140.768 248.155 140.702 248.346 140.702C248.529 140.702 248.683 140.768 248.808 140.9C248.94 141.032 249.006 141.193 249.006 141.384C249.006 141.575 248.94 141.736 248.808 141.868C248.683 142 248.529 142.066 248.346 142.066ZM248.346 137.358C248.155 137.358 247.994 137.292 247.862 137.16C247.73 137.028 247.664 136.867 247.664 136.676C247.664 136.485 247.73 136.324 247.862 136.192C247.994 136.06 248.155 135.994 248.346 135.994C248.529 135.994 248.683 136.06 248.808 136.192C248.94 136.324 249.006 136.485 249.006 136.676C249.006 136.867 248.94 137.028 248.808 137.16C248.683 137.292 248.529 137.358 248.346 137.358ZM250.027 140.229V139.47L253.888 134.124H255.087V139.36H256.187V140.229H255.087V142H254.097V140.229H250.027ZM254.141 135.169L251.182 139.36H254.141V135.169ZM256.989 134.96V134.047H259.057V142H258.045V134.96H256.989Z" fill="white"/>
<rect x="43" y="153" width="291" height="34" rx="17" fill="#E9E9EB"/>
<path d="M64.605 164.151L60.746 171.529V176H59.199V171.529L55.323 164.151H57.04L59.964 170.152L62.888 164.151H64.605ZM69.8917 176.153C69.0191 176.153 68.2257 175.955 67.5117 175.558C66.8091 175.161 66.2537 174.6 65.8457 173.875C65.4491 173.138 65.2507 172.288 65.2507 171.325C65.2507 170.373 65.4547 169.534 65.8627 168.809C66.2821 168.072 66.8487 167.511 67.5627 167.126C68.2767 166.729 69.0757 166.531 69.9597 166.531C70.8437 166.531 71.6427 166.729 72.3567 167.126C73.0707 167.511 73.6317 168.067 74.0397 168.792C74.4591 169.517 74.6687 170.362 74.6687 171.325C74.6687 172.288 74.4534 173.138 74.0227 173.875C73.6034 174.6 73.0311 175.161 72.3057 175.558C71.5804 175.955 70.7757 176.153 69.8917 176.153ZM69.8917 174.793C70.4471 174.793 70.9684 174.663 71.4557 174.402C71.9431 174.141 72.3341 173.75 72.6287 173.229C72.9347 172.708 73.0877 172.073 73.0877 171.325C73.0877 170.577 72.9404 169.942 72.6457 169.421C72.3511 168.9 71.9657 168.514 71.4897 168.265C71.0137 168.004 70.4981 167.874 69.9427 167.874C69.3761 167.874 68.8547 168.004 68.3787 168.265C67.9141 168.514 67.5401 168.9 67.2567 169.421C66.9734 169.942 66.8317 170.577 66.8317 171.325C66.8317 172.084 66.9677 172.725 67.2397 173.246C67.5231 173.767 67.8971 174.158 68.3617 174.419C68.8264 174.668 69.3364 174.793 69.8917 174.793ZM84.5568 166.684V176H83.0098V174.623C82.7151 175.099 82.3014 175.473 81.7688 175.745C81.2474 176.006 80.6694 176.136 80.0348 176.136C79.3094 176.136 78.6578 175.989 78.0798 175.694C77.5018 175.388 77.0428 174.935 76.7028 174.334C76.3741 173.733 76.2098 173.002 76.2098 172.141V166.684H77.7398V171.937C77.7398 172.855 77.9721 173.563 78.4368 174.062C78.9014 174.549 79.5361 174.793 80.3408 174.793C81.1681 174.793 81.8198 174.538 82.2958 174.028C82.7718 173.518 83.0098 172.776 83.0098 171.801V166.684H84.5568ZM88.3078 168.197C88.5798 167.664 88.9651 167.251 89.4638 166.956C89.9738 166.661 90.5914 166.514 91.3168 166.514V168.112H90.9088C89.1748 168.112 88.3078 169.053 88.3078 170.934V176H86.7608V166.684H88.3078V168.197ZM100.576 176.119C99.7938 176.119 99.0911 175.983 98.4678 175.711C97.8558 175.428 97.3741 175.042 97.0228 174.555C96.6715 174.056 96.4901 173.484 96.4788 172.838H98.1278C98.1845 173.393 98.4111 173.864 98.8078 174.249C99.2158 174.623 99.8051 174.81 100.576 174.81C101.312 174.81 101.89 174.629 102.31 174.266C102.74 173.892 102.956 173.416 102.956 172.838C102.956 172.385 102.831 172.016 102.582 171.733C102.332 171.45 102.021 171.234 101.647 171.087C101.273 170.94 100.768 170.781 100.134 170.611C99.3518 170.407 98.7228 170.203 98.2468 169.999C97.7821 169.795 97.3798 169.478 97.0398 169.047C96.7111 168.605 96.5468 168.016 96.5468 167.279C96.5468 166.633 96.7111 166.061 97.0398 165.562C97.3685 165.063 97.8275 164.678 98.4168 164.406C99.0175 164.134 99.7031 163.998 100.474 163.998C101.584 163.998 102.491 164.276 103.194 164.831C103.908 165.386 104.31 166.123 104.401 167.041H102.701C102.644 166.588 102.406 166.191 101.987 165.851C101.567 165.5 101.012 165.324 100.321 165.324C99.6748 165.324 99.1478 165.494 98.7398 165.834C98.3318 166.163 98.1278 166.627 98.1278 167.228C98.1278 167.659 98.2468 168.01 98.4848 168.282C98.7341 168.554 99.0345 168.764 99.3858 168.911C99.7485 169.047 100.253 169.206 100.899 169.387C101.681 169.602 102.31 169.818 102.786 170.033C103.262 170.237 103.67 170.56 104.01 171.002C104.35 171.433 104.52 172.022 104.52 172.77C104.52 173.348 104.367 173.892 104.061 174.402C103.755 174.912 103.301 175.326 102.701 175.643C102.1 175.96 101.392 176.119 100.576 176.119ZM118.407 164.236V176H116.86V167.228L112.95 176H111.862L107.935 167.211V176H106.388V164.236H108.054L112.406 173.96L116.758 164.236H118.407ZM124.38 176.119C123.598 176.119 122.895 175.983 122.272 175.711C121.66 175.428 121.178 175.042 120.827 174.555C120.476 174.056 120.294 173.484 120.283 172.838H121.932C121.989 173.393 122.215 173.864 122.612 174.249C123.02 174.623 123.609 174.81 124.38 174.81C125.117 174.81 125.695 174.629 126.114 174.266C126.545 173.892 126.76 173.416 126.76 172.838C126.76 172.385 126.635 172.016 126.386 171.733C126.137 171.45 125.825 171.234 125.451 171.087C125.077 170.94 124.573 170.781 123.938 170.611C123.156 170.407 122.527 170.203 122.051 169.999C121.586 169.795 121.184 169.478 120.844 169.047C120.515 168.605 120.351 168.016 120.351 167.279C120.351 166.633 120.515 166.061 120.844 165.562C121.173 165.063 121.632 164.678 122.221 164.406C122.822 164.134 123.507 163.998 124.278 163.998C125.389 163.998 126.295 164.276 126.998 164.831C127.712 165.386 128.114 166.123 128.205 167.041H126.505C126.448 166.588 126.21 166.191 125.791 165.851C125.372 165.5 124.816 165.324 124.125 165.324C123.479 165.324 122.952 165.494 122.544 165.834C122.136 166.163 121.932 166.627 121.932 167.228C121.932 167.659 122.051 168.01 122.289 168.282C122.538 168.554 122.839 168.764 123.19 168.911C123.553 169.047 124.057 169.206 124.703 169.387C125.485 169.602 126.114 169.818 126.59 170.033C127.066 170.237 127.474 170.56 127.814 171.002C128.154 171.433 128.324 172.022 128.324 172.77C128.324 173.348 128.171 173.892 127.865 174.402C127.559 174.912 127.106 175.326 126.505 175.643C125.904 175.96 125.196 176.119 124.38 176.119ZM136.204 167.959V173.45C136.204 173.903 136.3 174.226 136.493 174.419C136.685 174.6 137.02 174.691 137.496 174.691H138.635V176H137.241C136.379 176 135.733 175.802 135.303 175.405C134.872 175.008 134.657 174.357 134.657 173.45V167.959H133.45V166.684H134.657V164.338H136.204V166.684H138.635V167.959H136.204ZM148.601 170.985C148.601 171.28 148.584 171.591 148.55 171.92H141.104C141.161 172.838 141.472 173.558 142.039 174.079C142.617 174.589 143.314 174.844 144.13 174.844C144.799 174.844 145.354 174.691 145.796 174.385C146.249 174.068 146.567 173.648 146.748 173.127H148.414C148.165 174.022 147.666 174.753 146.918 175.32C146.17 175.875 145.241 176.153 144.13 176.153C143.246 176.153 142.453 175.955 141.75 175.558C141.059 175.161 140.515 174.6 140.118 173.875C139.721 173.138 139.523 172.288 139.523 171.325C139.523 170.362 139.716 169.517 140.101 168.792C140.486 168.067 141.025 167.511 141.716 167.126C142.419 166.729 143.223 166.531 144.13 166.531C145.014 166.531 145.796 166.724 146.476 167.109C147.156 167.494 147.677 168.027 148.04 168.707C148.414 169.376 148.601 170.135 148.601 170.985ZM147.003 170.662C147.003 170.073 146.873 169.568 146.612 169.149C146.351 168.718 145.994 168.395 145.541 168.18C145.099 167.953 144.606 167.84 144.062 167.84C143.28 167.84 142.611 168.089 142.056 168.588C141.512 169.087 141.2 169.778 141.121 170.662H147.003ZM155.097 176L152.887 172.532L150.762 176H149.147L152.156 171.376L149.147 166.684H150.898L153.108 170.135L155.216 166.684H156.831L153.839 171.291L156.848 176H155.097ZM159.849 167.959V173.45C159.849 173.903 159.945 174.226 160.138 174.419C160.33 174.6 160.665 174.691 161.141 174.691H162.28V176H160.886C160.024 176 159.378 175.802 158.948 175.405C158.517 175.008 158.302 174.357 158.302 173.45V167.959H157.095V166.684H158.302V164.338H159.849V166.684H162.28V167.959H159.849ZM180.28 166.684L177.373 176H175.775L173.531 168.605L171.287 176H169.689L166.765 166.684H168.346L170.488 174.504L172.8 166.684H174.381L176.642 174.521L178.75 166.684H180.28ZM182.207 165.171C181.912 165.171 181.663 165.069 181.459 164.865C181.255 164.661 181.153 164.412 181.153 164.117C181.153 163.822 181.255 163.573 181.459 163.369C181.663 163.165 181.912 163.063 182.207 163.063C182.49 163.063 182.728 163.165 182.921 163.369C183.125 163.573 183.227 163.822 183.227 164.117C183.227 164.412 183.125 164.661 182.921 164.865C182.728 165.069 182.49 165.171 182.207 165.171ZM182.955 166.684V176H181.408V166.684H182.955ZM187.07 167.959V173.45C187.07 173.903 187.167 174.226 187.359 174.419C187.552 174.6 187.886 174.691 188.362 174.691H189.501V176H188.107C187.246 176 186.6 175.802 186.169 175.405C185.739 175.008 185.523 174.357 185.523 173.45V167.959H184.316V166.684H185.523V164.338H187.07V166.684H189.501V167.959H187.07ZM195.592 166.514C196.294 166.514 196.929 166.667 197.496 166.973C198.062 167.268 198.504 167.715 198.822 168.316C199.15 168.917 199.315 169.648 199.315 170.509V176H197.785V170.73C197.785 169.801 197.552 169.092 197.088 168.605C196.623 168.106 195.988 167.857 195.184 167.857C194.368 167.857 193.716 168.112 193.229 168.622C192.753 169.132 192.515 169.874 192.515 170.849V176H190.968V163.42H192.515V168.01C192.821 167.534 193.24 167.166 193.773 166.905C194.317 166.644 194.923 166.514 195.592 166.514Z" fill="black"/>
<path d="M207.105 163.42V176H205.558V163.42H207.105ZM210.133 165.171C209.838 165.171 209.589 165.069 209.385 164.865C209.181 164.661 209.079 164.412 209.079 164.117C209.079 163.822 209.181 163.573 209.385 163.369C209.589 163.165 209.838 163.063 210.133 163.063C210.416 163.063 210.654 163.165 210.847 163.369C211.051 163.573 211.153 163.822 211.153 164.117C211.153 164.412 211.051 164.661 210.847 164.865C210.654 165.069 210.416 165.171 210.133 165.171ZM210.881 166.684V176H209.334V166.684H210.881ZM217.648 166.514C218.782 166.514 219.7 166.86 220.402 167.551C221.105 168.231 221.456 169.217 221.456 170.509V176H219.926V170.73C219.926 169.801 219.694 169.092 219.229 168.605C218.765 168.106 218.13 167.857 217.325 167.857C216.509 167.857 215.858 168.112 215.37 168.622C214.894 169.132 214.656 169.874 214.656 170.849V176H213.109V166.684H214.656V168.01C214.962 167.534 215.376 167.166 215.897 166.905C216.43 166.644 217.014 166.514 217.648 166.514ZM228.777 176L225.122 171.886V176H223.575V163.42H225.122V170.815L228.709 166.684H230.868L226.482 171.325L230.885 176H228.777Z" fill="#4CAF50"/>
<path d="M204.249 177.7H231.021V178.55H204.249V177.7Z" fill="#4CAF50"/>
<path d="M38.1127 187.185C43.3127 187.985 48.446 185.121 50.1127 183.288C48.3948 179.191 59.0006 169.242 52.0006 169.241C50.382 169.241 48.9995 165.001 43.1127 168.185C43.0914 169.471 43.1127 173.926 43.1127 174.684C43.1127 185.184 37.1127 186.581 38.1127 187.185Z" fill="#E9E9EB"/>
</g>
<defs>
<clipPath id="clip0_39_438">
<rect width="345" height="255" rx="33" fill="white"/>
</clipPath>
</defs>
</svg>
